# MagicaVoxel @ Ephtracy

# group
o 

# material
mtllib Ice fairy.mtl
usemtl palette

# normals
vn -1 0 0
vn 1 0 0
vn 0 0 1
vn 0 0 -1
vn 0 -1 0
vn 0 1 0

# texcoords
vt 0.0683594 0.5
vt 0.205078 0.5
vt 0.248047 0.5
vt 0.333984 0.5
vt 0.369141 0.5
vt 0.642578 0.5
vt 0.728516 0.5
vt 0.748047 0.5
vt 0.751953 0.5
vt 0.771484 0.5
vt 0.958984 0.5
vt 0.994141 0.5

# verts
v -0.6 1.1 0.1
v -0.6 1.1 0
v -0.6 1.2 0.2
v -0.6 1.2 0.1
v -0.6 1.2 0
v -0.6 1.2 -0.1
v -0.6 1.3 0.2
v -0.6 1.3 0.1
v -0.6 1.3 0
v -0.6 1.3 -0.1
v -0.6 1.4 0.1
v -0.6 1.4 0
v -0.5 0 0.1
v -0.5 0 0
v -0.5 1.1 0.2
v -0.5 1.1 0.1
v -0.5 1.1 0
v -0.5 1.1 -0.1
v -0.5 1.2 0.2
v -0.5 1.2 0.1
v -0.5 1.2 0
v -0.5 1.2 -0.1
v -0.5 1.3 0.2
v -0.5 1.3 0.1
v -0.5 1.3 0
v -0.5 1.3 -0.1
v -0.5 1.4 0.2
v -0.5 1.4 0.1
v -0.5 1.4 0
v -0.5 1.4 -0.1
v -0.3 0.4 0.1
v -0.3 0.4 0
v -0.3 0.5 0.1
v -0.3 0.5 0
v -0.3 0.9 0.3
v -0.3 0.9 0.2
v -0.3 0.9 0.1
v -0.3 0.9 0
v -0.3 0.9 -0.1
v -0.3 0.9 -0.2
v -0.3 1 0.2
v -0.3 1 0.1
v -0.3 1 0
v -0.3 1 -0.1
v -0.3 1 -0.2
v -0.3 1.1 0.2
v -0.3 1.1 0.1
v -0.3 1.1 0
v -0.3 1.1 -0.1
v -0.3 1.2 0.3
v -0.3 1.2 0.2
v -0.3 1.2 -0.1
v -0.3 1.2 -0.2
v -0.2 0.3 0.3
v -0.2 0.3 -0.2
v -0.2 0.4 0.3
v -0.2 0.4 0.1
v -0.2 0.4 0
v -0.2 0.4 -0.2
v -0.2 0.5 0.2
v -0.2 0.5 0.1
v -0.2 0.5 0
v -0.2 0.6 0.1
v -0.2 0.6 0
v -0.2 0.6 -0.1
v -0.2 0.7 0.3
v -0.2 0.7 0.2
v -0.2 0.7 -0.1
v -0.2 0.7 -0.2
v -0.2 0.8 -0.1
v -0.2 0.8 -0.2
v -0.2 0.9 0.3
v -0.2 0.9 0.2
v -0.2 0.9 0.1
v -0.2 0.9 0
v -0.2 0.9 -0.1
v -0.2 0.9 -0.2
v -0.2 0.9 -0.3
v -0.2 1 0.4
v -0.2 1 0.3
v -0.2 1 0.2
v -0.2 1 0.1
v -0.2 1 0
v -0.2 1 -0.1
v -0.2 1 -0.2
v -0.2 1.1 0.4
v -0.2 1.1 0.3
v -0.2 1.1 0.2
v -0.2 1.1 0.1
v -0.2 1.1 0
v -0.2 1.1 -0.1
v -0.2 1.2 0.4
v -0.2 1.2 0.3
v -0.2 1.2 0.2
v -0.2 1.2 0.1
v -0.2 1.2 0
v -0.2 1.2 -0.1
v -0.2 1.2 -0.2
v -0.2 1.2 -0.3
v -0.2 1.3 0.3
v -0.2 1.3 0.2
v -0.2 1.3 -0.1
v -0.2 1.3 -0.2
v -0.1 0 0.1
v -0.1 0 0
v -0.1 0.2 0.1
v -0.1 0.2 0
v -0.1 0.3 0.1
v -0.1 0.3 0
v -0.1 0.4 0.2
v -0.1 0.4 -0.1
v -0.1 0.5 0.2
v -0.1 0.5 0.1
v -0.1 0.5 0
v -0.1 0.6 0.3
v -0.1 0.6 0.2
v -0.1 0.6 0
v -0.1 0.6 -0.1
v -0.1 0.6 -0.2
v -0.1 0.7 0.3
v -0.1 0.7 0.2
v -0.1 0.7 -0.1
v -0.1 0.7 -0.2
v -0.1 0.7 -0.3
v -0.1 0.8 -0.1
v -0.1 0.8 -0.2
v -0.1 0.8 -0.3
v -0.1 0.9 -0.1
v -0.1 0.9 -0.2
v -0.1 0.9 -0.3
v -0.1 0.9 -0.4
v -0.1 1 -0.3
v -0.1 1 -0.4
v -0.1 1.1 -0.3
v -0.1 1.1 -0.4
v -0.1 1.3 0.2
v -0.1 1.3 0.1
v -0.1 1.3 -0.1
v -0.1 1.4 0.2
v -0.1 1.4 0.1
v -0.1 1.4 -0.1
v 0 0.6 -0.2
v 0 0.6 -0.3
v 0 0.7 -0.2
v 0 0.7 -0.3
v 0 0.9 0.3
v 0 0.9 0.2
v 0 1 0.3
v 0 1 0.2
v 0 1.4 0.1
v 0 1.4 0
v 0 1.5 0.1
v 0 1.5 0
v 0.2 0 0.1
v 0.2 0 0
v 0.2 0.2 0.1
v 0.2 0.2 0
v 0.2 0.3 0.1
v 0.2 0.3 0
v 0.2 0.5 -0.1
v 0.2 0.5 -0.2
v 0.2 0.6 0.3
v 0.2 0.6 0.2
v 0.2 0.6 -0.1
v 0.2 0.6 -0.2
v 0.2 0.7 0.3
v 0.2 0.7 0.2
v 0.2 0.7 -0.2
v 0.2 0.7 -0.3
v 0.2 0.8 -0.1
v 0.2 0.8 -0.2
v 0.2 0.8 -0.3
v 0.2 0.9 -0.1
v 0.2 0.9 -0.2
v 0.3 0.7 0.3
v 0.3 0.7 0.2
v 0.3 0.8 0.2
v 0.3 0.9 0.2
v 0.3 1 0.3
v 0.3 1 0.2
v 0.4 0.5 0.1
v 0.4 0.5 0
v 0.4 0.6 0.1
v 0.4 0.6 0
v 0.5 0.4 0.1
v 0.5 0.4 0
v 0.5 0.5 0.1
v 0.5 0.5 0
v -0.4 0 0.1
v -0.4 0 0
v -0.4 0.3 0.1
v -0.4 0.3 0
v -0.4 0.4 0.1
v -0.4 0.4 0
v -0.4 1.1 0.2
v -0.4 1.1 0.1
v -0.4 1.1 0
v -0.4 1.1 -0.1
v -0.4 1.2 0.2
v -0.4 1.2 0.1
v -0.4 1.2 0
v -0.4 1.2 -0.1
v -0.4 1.3 0.2
v -0.4 1.3 0.1
v -0.4 1.3 0
v -0.4 1.3 -0.1
v -0.4 1.4 0.2
v -0.4 1.4 0.1
v -0.4 1.4 0
v -0.4 1.4 -0.1
v -0.3 0.3 0.1
v -0.3 0.3 0
v -0.3 0.4 0.1
v -0.3 0.4 0
v -0.3 1.3 0.1
v -0.3 1.3 0
v -0.3 1.4 0.1
v -0.3 1.4 0
v -0.2 0.4 0.1
v -0.2 0.4 0
v -0.2 0.5 0.1
v -0.2 0.5 0
v -0.1 0.7 0.3
v -0.1 0.7 0.2
v -0.1 0.8 0.2
v -0.1 0.9 0.2
v -0.1 1 0.3
v -0.1 1 0.2
v 0 0 0.1
v 0 0 0
v 0 0.2 0.1
v 0 0.2 0
v 0 0.3 0.1
v 0 0.3 0
v 0 0.6 0.3
v 0 0.6 0.2
v 0 0.7 0.3
v 0 0.7 0.2
v 0 0.7 -0.2
v 0 0.7 -0.3
v 0 0.8 -0.1
v 0 0.8 -0.2
v 0 0.8 -0.3
v 0 0.9 -0.1
v 0 0.9 -0.2
v 0.1 0.9 0.3
v 0.1 0.9 0.2
v 0.1 1 0.3
v 0.1 1 0.2
v 0.2 0.6 -0.2
v 0.2 0.6 -0.3
v 0.2 0.7 -0.2
v 0.2 0.7 -0.3
v 0.2 1.4 0.1
v 0.2 1.4 0
v 0.2 1.5 0.1
v 0.2 1.5 0
v 0.3 0 0.1
v 0.3 0 0
v 0.3 0.2 0.1
v 0.3 0.2 0
v 0.3 0.3 0.1
v 0.3 0.3 0
v 0.3 0.4 0.2
v 0.3 0.4 -0.1
v 0.3 0.5 0.2
v 0.3 0.5 0.1
v 0.3 0.5 -0.1
v 0.3 0.5 -0.2
v 0.3 0.6 0.3
v 0.3 0.6 0.2
v 0.3 0.6 0.1
v 0.3 0.6 -0.2
v 0.3 0.7 0.3
v 0.3 0.7 0.2
v 0.3 0.7 -0.2
v 0.3 0.7 -0.3
v 0.3 0.8 -0.1
v 0.3 0.8 -0.2
v 0.3 0.8 -0.3
v 0.3 0.9 -0.1
v 0.3 0.9 -0.2
v 0.3 0.9 -0.3
v 0.3 0.9 -0.4
v 0.3 1 -0.2
v 0.3 1 -0.3
v 0.3 1.1 -0.3
v 0.3 1.1 -0.4
v 0.3 1.3 0.2
v 0.3 1.3 -0.1
v 0.3 1.4 0.2
v 0.3 1.4 -0.1
v 0.4 0.3 0.3
v 0.4 0.3 0.1
v 0.4 0.3 0
v 0.4 0.3 -0.2
v 0.4 0.4 0.3
v 0.4 0.4 0.1
v 0.4 0.4 0
v 0.4 0.4 -0.2
v 0.4 0.5 0.2
v 0.4 0.5 0.1
v 0.4 0.6 0.1
v 0.4 0.6 0
v 0.4 0.6 -0.2
v 0.4 0.7 0.3
v 0.4 0.7 0.2
v 0.4 0.8 -0.1
v 0.4 0.8 -0.2
v 0.4 0.9 -0.1
v 0.4 0.9 -0.2
v 0.4 1 0.4
v 0.4 1 0.3
v 0.4 1 0.1
v 0.4 1 0
v 0.4 1 -0.2
v 0.4 1 -0.3
v 0.4 1.1 0.3
v 0.4 1.1 0.2
v 0.4 1.1 0.1
v 0.4 1.1 0
v 0.4 1.1 -0.1
v 0.4 1.2 0.4
v 0.4 1.2 0.3
v 0.4 1.2 0.2
v 0.4 1.2 0.1
v 0.4 1.2 0
v 0.4 1.2 -0.1
v 0.4 1.2 -0.2
v 0.4 1.2 -0.3
v 0.4 1.3 0.3
v 0.4 1.3 0.2
v 0.4 1.3 -0.1
v 0.4 1.3 -0.2
v 0.5 0.3 0.1
v 0.5 0.3 0
v 0.5 0.4 0.1
v 0.5 0.4 0
v 0.5 0.5 0.1
v 0.5 0.5 0
v 0.5 0.6 0.1
v 0.5 0.6 0
v 0.5 1 0.3
v 0.5 1 0.1
v 0.5 1 0
v 0.5 1 -0.2
v 0.5 1.1 0.3
v 0.5 1.1 0.2
v 0.5 1.1 0.1
v 0.5 1.1 0
v 0.5 1.1 -0.1
v 0.5 1.2 0.3
v 0.5 1.2 0.2
v 0.5 1.2 0.1
v 0.5 1.2 0
v 0.5 1.2 -0.1
v 0.5 1.2 -0.2
v 0.5 1.3 0.2
v 0.5 1.3 0.1
v 0.5 1.3 0
v 0.5 1.3 -0.1
v 0.6 0.4 0.1
v 0.6 0.4 0
v 0.6 0.5 0.1
v 0.6 0.5 0
v -0.2 1 0.4
v -0.2 1.1 0.4
v -0.2 1.2 0.4
v -0.1 1 0.4
v -0.1 1.1 0.4
v 0.1 1 0.4
v 0.1 1.1 0.4
v 0.2 1 0.4
v 0.2 1.1 0.4
v 0.4 1 0.4
v 0.4 1.2 0.4
v -0.3 0.9 0.3
v -0.3 1.2 0.3
v -0.2 0.3 0.3
v -0.2 0.4 0.3
v -0.2 0.7 0.3
v -0.2 0.9 0.3
v -0.2 1 0.3
v -0.2 1.1 0.3
v -0.2 1.2 0.3
v -0.2 1.3 0.3
v -0.1 0.6 0.3
v -0.1 0.7 0.3
v -0.1 1 0.3
v 0 0.6 0.3
v 0 0.7 0.3
v 0 0.9 0.3
v 0 1 0.3
v 0.1 0.9 0.3
v 0.1 1 0.3
v 0.2 0.6 0.3
v 0.2 0.7 0.3
v 0.2 1.2 0.3
v 0.2 1.3 0.3
v 0.3 0.6 0.3
v 0.3 0.7 0.3
v 0.3 1 0.3
v 0.3 1.2 0.3
v 0.3 1.3 0.3
v 0.4 0.3 0.3
v 0.4 0.4 0.3
v 0.4 0.7 0.3
v 0.4 1 0.3
v 0.4 1.1 0.3
v 0.4 1.2 0.3
v 0.4 1.3 0.3
v 0.5 1 0.3
v 0.5 1.1 0.3
v 0.5 1.2 0.3
v -0.6 1.2 0.2
v -0.6 1.3 0.2
v -0.5 1.1 0.2
v -0.5 1.2 0.2
v -0.5 1.3 0.2
v -0.5 1.4 0.2
v -0.4 1.1 0.2
v -0.4 1.2 0.2
v -0.4 1.3 0.2
v -0.4 1.4 0.2
v -0.3 1.2 0.2
v -0.3 1.3 0.2
v -0.2 0.5 0.2
v -0.2 0.7 0.2
v -0.2 1.2 0.2
v -0.2 1.3 0.2
v -0.1 0.4 0.2
v -0.1 0.5 0.2
v -0.1 0.6 0.2
v -0.1 0.7 0.2
v -0.1 0.8 0.2
v -0.1 0.9 0.2
v -0.1 1 0.2
v -0.1 1.3 0.2
v -0.1 1.4 0.2
v 0 0.6 0.2
v 0 0.7 0.2
v 0 0.8 0.2
v 0 0.9 0.2
v 0 1 0.2
v 0 1.3 0.2
v 0 1.4 0.2
v 0.1 0.9 0.2
v 0.1 1 0.2
v 0.2 0.6 0.2
v 0.2 0.7 0.2
v 0.2 0.8 0.2
v 0.2 0.9 0.2
v 0.2 1.3 0.2
v 0.3 0.4 0.2
v 0.3 0.5 0.2
v 0.3 0.6 0.2
v 0.3 0.7 0.2
v 0.3 0.8 0.2
v 0.3 0.9 0.2
v 0.3 1 0.2
v 0.3 1.3 0.2
v 0.3 1.4 0.2
v 0.4 0.5 0.2
v 0.4 0.7 0.2
v 0.4 1.2 0.2
v 0.4 1.3 0.2
v 0.5 1.2 0.2
v 0.5 1.3 0.2
v -0.6 1.1 0.1
v -0.6 1.2 0.1
v -0.6 1.3 0.1
v -0.6 1.4 0.1
v -0.5 0 0.1
v -0.5 1.1 0.1
v -0.5 1.2 0.1
v -0.5 1.3 0.1
v -0.5 1.4 0.1
v -0.4 0 0.1
v -0.4 0.3 0.1
v -0.4 0.4 0.1
v -0.4 1.1 0.1
v -0.4 1.2 0.1
v -0.4 1.3 0.1
v -0.4 1.4 0.1
v -0.3 0.3 0.1
v -0.3 0.4 0.1
v -0.3 0.5 0.1
v -0.3 0.9 0.1
v -0.3 1 0.1
v -0.3 1.1 0.1
v -0.3 1.2 0.1
v -0.3 1.3 0.1
v -0.3 1.4 0.1
v -0.2 0.4 0.1
v -0.2 0.5 0.1
v -0.2 0.9 0.1
v -0.2 1 0.1
v -0.2 1.1 0.1
v -0.2 1.2 0.1
v -0.1 0 0.1
v -0.1 0.2 0.1
v -0.1 0.3 0.1
v 0 0 0.1
v 0 0.2 0.1
v 0 0.3 0.1
v 0 1.4 0.1
v 0 1.5 0.1
v 0.2 0 0.1
v 0.2 0.2 0.1
v 0.2 0.3 0.1
v 0.2 1.4 0.1
v 0.2 1.5 0.1
v 0.3 0 0.1
v 0.3 0.2 0.1
v 0.3 0.3 0.1
v 0.4 0.3 0.1
v 0.4 0.4 0.1
v 0.4 0.5 0.1
v 0.4 0.6 0.1
v 0.4 1.1 0.1
v 0.4 1.2 0.1
v 0.5 0.3 0.1
v 0.5 0.4 0.1
v 0.5 0.5 0.1
v 0.5 0.6 0.1
v 0.5 1.1 0.1
v 0.5 1.2 0.1
v 0.6 0.4 0.1
v 0.6 0.5 0.1
v -0.3 1 0
v -0.3 1.1 0
v -0.2 1 0
v -0.2 1.1 0
v 0.4 1 0
v 0.4 1.1 0
v 0.5 1 0
v 0.5 1.1 0
v -0.3 0.9 -0.1
v -0.3 1 -0.1
v -0.3 1.1 -0.1
v -0.3 1.2 -0.1
v -0.2 0.9 -0.1
v -0.2 1 -0.1
v -0.2 1.1 -0.1
v -0.2 1.2 -0.1
v 0.4 1.1 -0.1
v 0.4 1.2 -0.1
v 0.5 1.1 -0.1
v 0.5 1.2 -0.1
v -0.3 0.9 0.2
v -0.3 1 0.2
v -0.3 1.1 0.2
v -0.3 1.2 0.2
v -0.2 0.9 0.2
v -0.2 1 0.2
v -0.2 1.1 0.2
v -0.2 1.2 0.2
v 0.4 1.1 0.2
v 0.4 1.2 0.2
v 0.5 1.1 0.2
v 0.5 1.2 0.2
v -0.3 1 0.1
v -0.3 1.1 0.1
v -0.2 1 0.1
v -0.2 1.1 0.1
v 0.3 0.5 0.1
v 0.3 0.6 0.1
v 0.4 0.5 0.1
v 0.4 0.6 0.1
v 0.4 1 0.1
v 0.4 1.1 0.1
v 0.5 1 0.1
v 0.5 1.1 0.1
v -0.6 1.1 0
v -0.6 1.2 0
v -0.6 1.3 0
v -0.6 1.4 0
v -0.5 0 0
v -0.5 1.1 0
v -0.5 1.2 0
v -0.5 1.3 0
v -0.5 1.4 0
v -0.4 0 0
v -0.4 0.3 0
v -0.4 0.4 0
v -0.4 1.1 0
v -0.4 1.2 0
v -0.4 1.3 0
v -0.4 1.4 0
v -0.3 0.3 0
v -0.3 0.4 0
v -0.3 0.5 0
v -0.3 0.9 0
v -0.3 1 0
v -0.3 1.1 0
v -0.3 1.2 0
v -0.3 1.3 0
v -0.3 1.4 0
v -0.2 0.4 0
v -0.2 0.5 0
v -0.2 0.6 0
v -0.2 0.9 0
v -0.2 1 0
v -0.2 1.1 0
v -0.2 1.2 0
v -0.1 0 0
v -0.1 0.2 0
v -0.1 0.3 0
v -0.1 0.5 0
v -0.1 0.6 0
v 0 0 0
v 0 0.2 0
v 0 0.3 0
v 0 1.4 0
v 0 1.5 0
v 0.1 1.4 0
v 0.2 0 0
v 0.2 0.2 0
v 0.2 0.3 0
v 0.2 1.4 0
v 0.2 1.5 0
v 0.3 0 0
v 0.3 0.2 0
v 0.3 0.3 0
v 0.4 0.3 0
v 0.4 0.4 0
v 0.4 0.5 0
v 0.4 0.6 0
v 0.4 1.1 0
v 0.4 1.2 0
v 0.5 0.3 0
v 0.5 0.4 0
v 0.5 0.5 0
v 0.5 0.6 0
v 0.5 1.1 0
v 0.5 1.2 0
v 0.6 0.4 0
v 0.6 0.5 0
v -0.6 1.2 -0.1
v -0.6 1.3 -0.1
v -0.5 1.1 -0.1
v -0.5 1.2 -0.1
v -0.5 1.3 -0.1
v -0.5 1.4 -0.1
v -0.4 1.1 -0.1
v -0.4 1.2 -0.1
v -0.4 1.3 -0.1
v -0.4 1.4 -0.1
v -0.3 1.2 -0.1
v -0.3 1.3 -0.1
v -0.2 0.6 -0.1
v -0.2 0.7 -0.1
v -0.2 0.8 -0.1
v -0.2 0.9 -0.1
v -0.2 1.2 -0.1
v -0.2 1.3 -0.1
v -0.1 0.4 -0.1
v -0.1 0.6 -0.1
v -0.1 0.7 -0.1
v -0.1 0.8 -0.1
v -0.1 0.9 -0.1
v -0.1 1.3 -0.1
v -0.1 1.4 -0.1
v 0 0.6 -0.1
v 0 0.8 -0.1
v 0 0.9 -0.1
v 0 1.3 -0.1
v 0.1 1.3 -0.1
v 0.1 1.4 -0.1
v 0.2 0.5 -0.1
v 0.2 0.6 -0.1
v 0.2 0.8 -0.1
v 0.2 0.9 -0.1
v 0.2 1.3 -0.1
v 0.2 1.4 -0.1
v 0.3 0.4 -0.1
v 0.3 0.5 -0.1
v 0.3 0.8 -0.1
v 0.3 0.9 -0.1
v 0.3 1.3 -0.1
v 0.3 1.4 -0.1
v 0.4 0.8 -0.1
v 0.4 0.9 -0.1
v 0.4 1.2 -0.1
v 0.4 1.3 -0.1
v 0.5 1.2 -0.1
v 0.5 1.3 -0.1
v -0.3 0.9 -0.2
v -0.3 1 -0.2
v -0.3 1.2 -0.2
v -0.2 0.3 -0.2
v -0.2 0.4 -0.2
v -0.2 0.7 -0.2
v -0.2 0.8 -0.2
v -0.2 0.9 -0.2
v -0.2 1 -0.2
v -0.2 1.2 -0.2
v -0.2 1.3 -0.2
v -0.1 0.6 -0.2
v -0.1 0.7 -0.2
v -0.1 0.8 -0.2
v -0.1 0.9 -0.2
v -0.1 1.2 -0.2
v -0.1 1.3 -0.2
v 0 0.6 -0.2
v 0 0.7 -0.2
v 0 0.8 -0.2
v 0 0.9 -0.2
v 0 1.2 -0.2
v 0 1.3 -0.2
v 0.1 1.2 -0.2
v 0.1 1.3 -0.2
v 0.2 0.5 -0.2
v 0.2 0.6 -0.2
v 0.2 0.7 -0.2
v 0.2 0.8 -0.2
v 0.2 0.9 -0.2
v 0.2 1.2 -0.2
v 0.3 0.5 -0.2
v 0.3 0.6 -0.2
v 0.3 0.7 -0.2
v 0.3 0.8 -0.2
v 0.3 0.9 -0.2
v 0.3 1 -0.2
v 0.3 1.2 -0.2
v 0.4 0.3 -0.2
v 0.4 0.4 -0.2
v 0.4 0.6 -0.2
v 0.4 0.8 -0.2
v 0.4 0.9 -0.2
v 0.4 1 -0.2
v 0.4 1.2 -0.2
v 0.4 1.3 -0.2
v 0.5 1 -0.2
v 0.5 1.2 -0.2
v -0.2 0.9 -0.3
v -0.2 1.2 -0.3
v -0.1 0.7 -0.3
v -0.1 0.8 -0.3
v -0.1 0.9 -0.3
v -0.1 1 -0.3
v -0.1 1.1 -0.3
v 0 0.6 -0.3
v 0 0.7 -0.3
v 0 0.8 -0.3
v 0 1.1 -0.3
v 0.2 0.6 -0.3
v 0.2 0.7 -0.3
v 0.2 0.8 -0.3
v 0.2 1.1 -0.3
v 0.2 1.2 -0.3
v 0.3 0.7 -0.3
v 0.3 0.8 -0.3
v 0.3 1 -0.3
v 0.3 1.1 -0.3
v 0.3 1.2 -0.3
v 0.4 1 -0.3
v 0.4 1.2 -0.3
v -0.1 0.9 -0.4
v -0.1 1 -0.4
v -0.1 1.1 -0.4
v 0 1 -0.4
v 0 1.1 -0.4
v 0.1 0.9 -0.4
v 0.1 1 -0.4
v 0.2 0.9 -0.4
v 0.2 1 -0.4
v 0.3 0.9 -0.4
v 0.3 1.1 -0.4
v -0.5 0 0.1
v -0.4 0 0.1
v -0.1 0 0.1
v 0 0 0.1
v 0.2 0 0.1
v 0.3 0 0.1
v -0.5 0 0
v -0.4 0 0
v -0.1 0 0
v 0 0 0
v 0.2 0 0
v 0.3 0 0
v -0.2 0.3 0.3
v 0.4 0.3 0.3
v -0.4 0.3 0.1
v -0.3 0.3 0.1
v -0.1 0.3 0.1
v 0 0.3 0.1
v 0.2 0.3 0.1
v 0.3 0.3 0.1
v 0.4 0.3 0.1
v 0.5 0.3 0.1
v -0.4 0.3 0
v -0.3 0.3 0
v -0.1 0.3 0
v 0 0.3 0
v 0.2 0.3 0
v 0.3 0.3 0
v 0.4 0.3 0
v 0.5 0.3 0
v -0.2 0.3 -0.2
v 0.4 0.3 -0.2
v -0.3 0.4 0.1
v -0.2 0.4 0.1
v 0.5 0.4 0.1
v 0.6 0.4 0.1
v -0.3 0.4 0
v -0.2 0.4 0
v 0.5 0.4 0
v 0.6 0.4 0
v -0.2 0.5 0.2
v -0.1 0.5 0.2
v 0.3 0.5 0.2
v 0.4 0.5 0.2
v -0.2 0.5 0.1
v -0.1 0.5 0.1
v 0.3 0.5 0.1
v 0.4 0.5 0.1
v 0.5 0.5 0.1
v -0.2 0.5 0
v -0.1 0.5 0
v 0.4 0.5 0
v 0.5 0.5 0
v 0.2 0.5 -0.1
v 0.3 0.5 -0.1
v 0.2 0.5 -0.2
v 0.3 0.5 -0.2
v -0.1 0.6 0.3
v 0 0.6 0.3
v 0.2 0.6 0.3
v 0.3 0.6 0.3
v -0.1 0.6 0.2
v 0 0.6 0.2
v 0.2 0.6 0.2
v 0.3 0.6 0.2
v 0.3 0.6 0.1
v 0.4 0.6 0.1
v -0.2 0.6 0
v -0.1 0.6 0
v 0.4 0.6 0
v -0.2 0.6 -0.1
v -0.1 0.6 -0.1
v 0 0.6 -0.1
v 0.2 0.6 -0.1
v -0.1 0.6 -0.2
v 0 0.6 -0.2
v 0.2 0.6 -0.2
v 0.3 0.6 -0.2
v 0.4 0.6 -0.2
v 0 0.6 -0.3
v 0.2 0.6 -0.3
v -0.2 0.7 0.3
v -0.1 0.7 0.3
v 0.3 0.7 0.3
v 0.4 0.7 0.3
v -0.2 0.7 0.2
v -0.1 0.7 0.2
v 0.3 0.7 0.2
v 0.4 0.7 0.2
v -0.2 0.7 -0.1
v -0.1 0.7 -0.1
v -0.2 0.7 -0.2
v -0.1 0.7 -0.2
v 0 0.7 -0.2
v 0.2 0.7 -0.2
v 0.3 0.7 -0.2
v -0.1 0.7 -0.3
v 0 0.7 -0.3
v 0.2 0.7 -0.3
v 0.3 0.7 -0.3
v -0.3 0.9 0.3
v -0.2 0.9 0.3
v 0 0.9 0.3
v 0.1 0.9 0.3
v -0.3 0.9 0.2
v -0.2 0.9 0.2
v 0 0.9 0.2
v 0.1 0.9 0.2
v -0.3 0.9 0.1
v -0.2 0.9 0.1
v -0.3 0.9 0
v -0.2 0.9 0
v -0.3 0.9 -0.1
v -0.2 0.9 -0.1
v -0.1 0.9 -0.1
v 0 0.9 -0.1
v 0.2 0.9 -0.1
v 0.3 0.9 -0.1
v 0.4 0.9 -0.1
v -0.3 0.9 -0.2
v -0.2 0.9 -0.2
v -0.1 0.9 -0.2
v 0 0.9 -0.2
v 0.2 0.9 -0.2
v 0.3 0.9 -0.2
v 0.4 0.9 -0.2
v -0.2 0.9 -0.3
v -0.1 0.9 -0.3
v 0 0.9 -0.3
v 0.1 0.9 -0.3
v 0.2 0.9 -0.3
v 0.3 0.9 -0.3
v -0.1 0.9 -0.4
v 0.1 0.9 -0.4
v 0.2 0.9 -0.4
v 0.3 0.9 -0.4
v -0.2 1 0.4
v -0.1 1 0.4
v 0.1 1 0.4
v 0.2 1 0.4
v 0.4 1 0.4
v -0.2 1 0.3
v -0.1 1 0.3
v 0 1 0.3
v 0.1 1 0.3
v 0.2 1 0.3
v 0.3 1 0.3
v 0.4 1 0.3
v 0.5 1 0.3
v -0.3 1 0.2
v -0.2 1 0.2
v -0.1 1 0.2
v 0 1 0.2
v 0.1 1 0.2
v 0.3 1 0.2
v -0.3 1 0.1
v -0.2 1 0.1
v 0.4 1 0.1
v 0.5 1 0.1
v -0.3 1 0
v -0.2 1 0
v 0.4 1 0
v 0.5 1 0
v -0.3 1 -0.1
v -0.2 1 -0.1
v 0.3 1 -0.2
v 0.4 1 -0.2
v 0.5 1 -0.2
v 0.3 1 -0.3
v 0.4 1 -0.3
v -0.5 1.1 0.2
v -0.4 1.1 0.2
v -0.6 1.1 0.1
v -0.5 1.1 0.1
v -0.4 1.1 0.1
v -0.3 1.1 0.1
v -0.2 1.1 0.1
v 0.4 1.1 0.1
v 0.5 1.1 0.1
v -0.6 1.1 0
v -0.5 1.1 0
v -0.4 1.1 0
v -0.3 1.1 0
v -0.2 1.1 0
v 0.4 1.1 0
v 0.5 1.1 0
v -0.5 1.1 -0.1
v -0.4 1.1 -0.1
v -0.6 1.2 0.2
v -0.5 1.2 0.2
v -0.4 1.2 0.2
v -0.3 1.2 0.2
v -0.2 1.2 0.2
v 0.4 1.2 0.2
v 0.5 1.2 0.2
v -0.6 1.2 0.1
v -0.5 1.2 0.1
v -0.4 1.2 0.1
v -0.3 1.2 0.1
v -0.2 1.2 0.1
v 0.4 1.2 0.1
v 0.5 1.2 0.1
v -0.6 1.2 0
v -0.5 1.2 0
v -0.4 1.2 0
v -0.3 1.2 0
v -0.2 1.2 0
v 0.4 1.2 0
v 0.5 1.2 0
v -0.6 1.2 -0.1
v -0.5 1.2 -0.1
v -0.4 1.2 -0.1
v -0.3 1.2 -0.1
v -0.2 1.2 -0.1
v 0.4 1.2 -0.1
v 0.5 1.2 -0.1
v -0.2 0.4 0.3
v 0.4 0.4 0.3
v -0.1 0.4 0.2
v 0.3 0.4 0.2
v -0.4 0.4 0.1
v -0.3 0.4 0.1
v -0.2 0.4 0.1
v 0.4 0.4 0.1
v 0.5 0.4 0.1
v -0.4 0.4 0
v -0.3 0.4 0
v -0.2 0.4 0
v 0.4 0.4 0
v 0.5 0.4 0
v -0.1 0.4 -0.1
v 0.3 0.4 -0.1
v -0.2 0.4 -0.2
v 0.4 0.4 -0.2
v -0.3 0.5 0.1
v -0.2 0.5 0.1
v 0.5 0.5 0.1
v 0.6 0.5 0.1
v -0.3 0.5 0
v -0.2 0.5 0
v 0.5 0.5 0
v 0.6 0.5 0
v 0.4 0.6 0.1
v 0.5 0.6 0.1
v 0.4 0.6 0
v 0.5 0.6 0
v -0.1 0.7 0.3
v 0 0.7 0.3
v 0.2 0.7 0.3
v 0.3 0.7 0.3
v -0.1 0.7 0.2
v 0 0.7 0.2
v 0.2 0.7 0.2
v 0.3 0.7 0.2
v 0 0.7 -0.2
v 0.2 0.7 -0.2
v 0 0.7 -0.3
v 0.2 0.7 -0.3
v -0.2 0.8 -0.1
v -0.1 0.8 -0.1
v 0 0.8 -0.1
v 0.2 0.8 -0.1
v 0.3 0.8 -0.1
v 0.4 0.8 -0.1
v -0.2 0.8 -0.2
v -0.1 0.8 -0.2
v 0 0.8 -0.2
v 0.2 0.8 -0.2
v 0.3 0.8 -0.2
v 0.4 0.8 -0.2
v -0.1 0.8 -0.3
v 0 0.8 -0.3
v 0.2 0.8 -0.3
v 0.3 0.8 -0.3
v -0.3 1 0.1
v -0.2 1 0.1
v -0.3 1 0
v -0.2 1 0
v -0.3 1.1 0.2
v -0.2 1.1 0.2
v 0.4 1.1 0.2
v 0.5 1.1 0.2
v -0.3 1.1 0.1
v -0.2 1.1 0.1
v 0.4 1.1 0.1
v 0.5 1.1 0.1
v -0.3 1.1 0
v -0.2 1.1 0
v 0.4 1.1 0
v 0.5 1.1 0
v -0.3 1.1 -0.1
v -0.2 1.1 -0.1
v 0.4 1.1 -0.1
v 0.5 1.1 -0.1
v -0.1 1.1 -0.3
v 0 1.1 -0.3
v 0.2 1.1 -0.3
v 0.3 1.1 -0.3
v -0.1 1.1 -0.4
v 0 1.1 -0.4
v 0.3 1.1 -0.4
v -0.2 1.2 0.4
v 0.4 1.2 0.4
v -0.3 1.2 0.3
v -0.2 1.2 0.3
v 0.2 1.2 0.3
v 0.3 1.2 0.3
v 0.4 1.2 0.3
v 0.5 1.2 0.3
v -0.3 1.2 0.2
v -0.2 1.2 0.2
v 0.4 1.2 0.2
v 0.5 1.2 0.2
v -0.3 1.2 -0.1
v -0.2 1.2 -0.1
v 0.4 1.2 -0.1
v 0.5 1.2 -0.1
v -0.3 1.2 -0.2
v -0.2 1.2 -0.2
v -0.1 1.2 -0.2
v 0 1.2 -0.2
v 0.1 1.2 -0.2
v 0.2 1.2 -0.2
v 0.3 1.2 -0.2
v 0.4 1.2 -0.2
v 0.5 1.2 -0.2
v -0.2 1.2 -0.3
v 0.2 1.2 -0.3
v 0.3 1.2 -0.3
v 0.4 1.2 -0.3
v -0.2 1.3 0.3
v 0.2 1.3 0.3
v 0.3 1.3 0.3
v 0.4 1.3 0.3
v -0.6 1.3 0.2
v -0.5 1.3 0.2
v -0.4 1.3 0.2
v -0.3 1.3 0.2
v -0.2 1.3 0.2
v -0.1 1.3 0.2
v 0 1.3 0.2
v 0.2 1.3 0.2
v 0.3 1.3 0.2
v 0.4 1.3 0.2
v 0.5 1.3 0.2
v -0.6 1.3 0.1
v -0.5 1.3 0.1
v -0.4 1.3 0.1
v -0.3 1.3 0.1
v -0.2 1.3 0.1
v -0.1 1.3 0.1
v 0.4 1.3 0.1
v 0.5 1.3 0.1
v -0.6 1.3 0
v -0.5 1.3 0
v -0.4 1.3 0
v -0.3 1.3 0
v -0.2 1.3 0
v 0.4 1.3 0
v 0.5 1.3 0
v -0.6 1.3 -0.1
v -0.5 1.3 -0.1
v -0.4 1.3 -0.1
v -0.3 1.3 -0.1
v -0.2 1.3 -0.1
v -0.1 1.3 -0.1
v 0 1.3 -0.1
v 0.1 1.3 -0.1
v 0.2 1.3 -0.1
v 0.3 1.3 -0.1
v 0.4 1.3 -0.1
v 0.5 1.3 -0.1
v -0.2 1.3 -0.2
v -0.1 1.3 -0.2
v 0 1.3 -0.2
v 0.1 1.3 -0.2
v 0.4 1.3 -0.2
v -0.5 1.4 0.2
v -0.4 1.4 0.2
v -0.1 1.4 0.2
v 0 1.4 0.2
v 0.3 1.4 0.2
v -0.6 1.4 0.1
v -0.5 1.4 0.1
v -0.4 1.4 0.1
v -0.3 1.4 0.1
v -0.1 1.4 0.1
v 0 1.4 0.1
v 0.2 1.4 0.1
v -0.6 1.4 0
v -0.5 1.4 0
v -0.4 1.4 0
v -0.3 1.4 0
v 0 1.4 0
v 0.1 1.4 0
v 0.2 1.4 0
v -0.5 1.4 -0.1
v -0.4 1.4 -0.1
v -0.1 1.4 -0.1
v 0.1 1.4 -0.1
v 0.2 1.4 -0.1
v 0.3 1.4 -0.1
v 0 1.5 0.1
v 0.2 1.5 0.1
v 0 1.5 0
v 0.2 1.5 0

# faces
f 4/8/1 2/8/1 1/8/1
f 5/8/1 2/8/1 4/8/1
f 7/8/1 4/8/1 3/8/1
f 7/8/1 6/8/1 5/8/1
f 7/8/1 5/8/1 4/8/1
f 8/8/1 6/8/1 7/8/1
f 9/8/1 6/8/1 8/8/1
f 10/8/1 6/8/1 9/8/1
f 11/8/1 9/8/1 8/8/1
f 12/8/1 9/8/1 11/8/1
f 16/4/1 14/4/1 13/4/1
f 17/4/1 14/4/1 16/4/1
f 19/8/1 16/8/1 15/8/1
f 20/8/1 16/8/1 19/8/1
f 21/8/1 18/8/1 17/8/1
f 22/8/1 18/8/1 21/8/1
f 27/8/1 24/8/1 23/8/1
f 28/8/1 24/8/1 27/8/1
f 29/8/1 26/8/1 25/8/1
f 30/8/1 26/8/1 29/8/1
f 33/9/1 32/9/1 31/9/1
f 34/9/1 32/9/1 33/9/1
f 41/10/1 36/10/1 35/10/1
f 42/10/1 38/10/1 37/10/1
f 43/10/1 38/10/1 42/10/1
f 44/7/1 40/7/1 39/7/1
f 45/7/1 40/7/1 44/7/1
f 46/10/1 41/10/1 35/10/1
f 46/10/1 42/10/1 41/10/1
f 47/10/1 42/10/1 46/10/1
f 48/7/1 44/7/1 43/7/1
f 49/10/1 45/10/1 44/10/1
f 49/7/1 44/7/1 48/7/1
f 50/10/1 46/10/1 35/10/1
f 51/10/1 46/10/1 50/10/1
f 52/10/1 45/10/1 49/10/1
f 53/10/1 45/10/1 52/10/1
f 56/9/1 55/9/1 54/9/1
f 57/9/1 55/9/1 56/9/1
f 58/9/1 55/9/1 57/9/1
f 59/9/1 55/9/1 58/9/1
f 63/11/1 61/11/1 60/11/1
f 63/9/1 62/9/1 61/9/1
f 64/9/1 62/9/1 63/9/1
f 67/11/1 63/11/1 60/11/1
f 67/11/1 65/11/1 64/11/1
f 67/11/1 64/11/1 63/11/1
f 68/11/1 65/11/1 67/11/1
f 70/11/1 67/11/1 66/11/1
f 70/11/1 69/11/1 68/11/1
f 70/11/1 68/11/1 67/11/1
f 71/11/1 69/11/1 70/11/1
f 72/11/1 70/11/1 66/11/1
f 73/11/1 70/11/1 72/11/1
f 74/11/1 70/11/1 73/11/1
f 75/11/1 70/11/1 74/11/1
f 76/11/1 70/11/1 75/11/1
f 81/2/1 74/2/1 73/2/1
f 82/2/1 74/2/1 81/2/1
f 83/1/1 76/1/1 75/1/1
f 84/1/1 76/1/1 83/1/1
f 85/10/1 78/10/1 77/10/1
f 86/7/1 80/7/1 79/7/1
f 87/7/1 80/7/1 86/7/1
f 89/10/1 83/10/1 82/10/1
f 90/10/1 83/10/1 89/10/1
f 92/10/1 87/10/1 86/10/1
f 93/10/1 87/10/1 92/10/1
f 94/10/1 89/10/1 88/10/1
f 95/10/1 89/10/1 94/10/1
f 96/10/1 91/10/1 90/10/1
f 97/10/1 91/10/1 96/10/1
f 98/10/1 78/10/1 85/10/1
f 99/10/1 78/10/1 98/10/1
f 100/10/1 94/10/1 93/10/1
f 101/10/1 94/10/1 100/10/1
f 102/7/1 98/7/1 97/7/1
f 103/7/1 98/7/1 102/7/1
f 106/5/1 105/5/1 104/5/1
f 107/5/1 105/5/1 106/5/1
f 108/10/1 107/10/1 106/10/1
f 109/10/1 107/10/1 108/10/1
f 112/9/1 111/9/1 110/9/1
f 113/9/1 111/9/1 112/9/1
f 114/9/1 111/9/1 113/9/1
f 117/9/1 111/9/1 114/9/1
f 118/9/1 111/9/1 117/9/1
f 120/11/1 116/11/1 115/11/1
f 121/11/1 116/11/1 120/11/1
f 122/11/1 119/11/1 118/11/1
f 123/11/1 119/11/1 122/11/1
f 126/11/1 124/11/1 123/11/1
f 127/11/1 124/11/1 126/11/1
f 128/11/1 126/11/1 125/11/1
f 129/11/1 126/11/1 128/11/1
f 132/10/1 131/10/1 130/10/1
f 133/10/1 131/10/1 132/10/1
f 134/7/1 133/7/1 132/7/1
f 135/7/1 133/7/1 134/7/1
f 139/7/1 137/7/1 136/7/1
f 140/10/1 138/10/1 137/10/1
f 140/7/1 137/7/1 139/7/1
f 141/10/1 138/10/1 140/10/1
f 144/11/1 143/11/1 142/11/1
f 145/11/1 143/11/1 144/11/1
f 148/11/1 147/11/1 146/11/1
f 149/11/1 147/11/1 148/11/1
f 152/10/1 151/10/1 150/10/1
f 153/10/1 151/10/1 152/10/1
f 156/5/1 155/5/1 154/5/1
f 157/5/1 155/5/1 156/5/1
f 158/10/1 157/10/1 156/10/1
f 159/10/1 157/10/1 158/10/1
f 164/9/1 161/9/1 160/9/1
f 165/9/1 161/9/1 164/9/1
f 166/11/1 163/11/1 162/11/1
f 167/11/1 163/11/1 166/11/1
f 171/11/1 169/11/1 168/11/1
f 172/11/1 169/11/1 171/11/1
f 173/11/1 171/11/1 170/11/1
f 174/11/1 171/11/1 173/11/1
f 177/11/1 176/11/1 175/11/1
f 178/11/1 177/11/1 175/11/1
f 179/11/1 178/11/1 175/11/1
f 180/11/1 178/11/1 179/11/1
f 183/3/1 182/3/1 181/3/1
f 184/3/1 182/3/1 183/3/1
f 187/3/1 186/3/1 185/3/1
f 188/3/1 186/3/1 187/3/1
f 189/4/2 190/4/2 191/4/2
f 191/4/2 190/4/2 192/4/2
f 193/4/2 194/4/2 196/4/2
f 196/4/2 194/4/2 197/4/2
f 195/8/2 196/8/2 199/8/2
f 199/8/2 196/8/2 200/8/2
f 197/8/2 198/8/2 201/8/2
f 201/8/2 198/8/2 202/8/2
f 203/8/2 204/8/2 207/8/2
f 207/8/2 204/8/2 208/8/2
f 205/8/2 206/8/2 209/8/2
f 209/8/2 206/8/2 210/8/2
f 211/3/2 212/3/2 213/3/2
f 213/3/2 212/3/2 214/3/2
f 215/8/2 216/8/2 217/8/2
f 217/8/2 216/8/2 218/8/2
f 219/9/2 220/9/2 221/9/2
f 221/9/2 220/9/2 222/9/2
f 223/11/2 224/11/2 225/11/2
f 223/11/2 225/11/2 226/11/2
f 223/11/2 226/11/2 227/11/2
f 227/11/2 226/11/2 228/11/2
f 229/5/2 230/5/2 231/5/2
f 231/5/2 230/5/2 232/5/2
f 231/10/2 232/10/2 233/10/2
f 233/10/2 232/10/2 234/10/2
f 235/11/2 236/11/2 237/11/2
f 237/11/2 236/11/2 238/11/2
f 239/11/2 240/11/2 242/11/2
f 242/11/2 240/11/2 243/11/2
f 241/11/2 242/11/2 244/11/2
f 244/11/2 242/11/2 245/11/2
f 246/11/2 247/11/2 248/11/2
f 248/11/2 247/11/2 249/11/2
f 250/11/2 251/11/2 252/11/2
f 252/11/2 251/11/2 253/11/2
f 254/10/2 255/10/2 256/10/2
f 256/10/2 255/10/2 257/10/2
f 258/5/2 259/5/2 260/5/2
f 260/5/2 259/5/2 261/5/2
f 260/10/2 261/10/2 262/10/2
f 262/10/2 261/10/2 263/10/2
f 264/9/2 265/9/2 266/9/2
f 266/9/2 265/9/2 267/9/2
f 267/9/2 265/9/2 268/9/2
f 268/9/2 269/9/2 272/9/2
f 267/9/2 268/9/2 272/9/2
f 272/9/2 269/9/2 273/9/2
f 270/11/2 271/11/2 274/11/2
f 274/11/2 271/11/2 275/11/2
f 276/11/2 277/11/2 279/11/2
f 279/11/2 277/11/2 280/11/2
f 278/11/2 279/11/2 281/11/2
f 281/11/2 279/11/2 282/11/2
f 282/11/2 283/11/2 285/11/2
f 283/10/2 284/10/2 286/10/2
f 285/11/2 283/11/2 286/11/2
f 286/10/2 284/10/2 287/10/2
f 287/10/2 284/10/2 288/10/2
f 289/10/2 290/10/2 291/10/2
f 291/10/2 290/10/2 292/10/2
f 293/9/2 294/9/2 297/9/2
f 297/9/2 294/9/2 298/9/2
f 295/9/2 296/9/2 299/9/2
f 299/9/2 296/9/2 300/9/2
f 301/11/2 302/11/2 303/11/2
f 301/11/2 303/11/2 307/11/2
f 304/11/2 305/11/2 307/11/2
f 303/11/2 304/11/2 307/11/2
f 307/11/2 305/11/2 308/11/2
f 306/11/2 307/11/2 308/11/2
f 308/11/2 305/11/2 309/11/2
f 306/11/2 308/11/2 310/11/2
f 306/11/2 310/11/2 313/11/2
f 310/11/2 311/11/2 313/11/2
f 313/11/2 311/11/2 314/11/2
f 314/11/2 311/11/2 315/11/2
f 315/11/2 311/11/2 316/11/2
f 312/10/2 313/10/2 318/10/2
f 314/10/2 315/10/2 320/10/2
f 320/10/2 315/10/2 321/10/2
f 312/10/2 318/10/2 323/10/2
f 323/10/2 318/10/2 324/10/2
f 319/10/2 320/10/2 325/10/2
f 325/10/2 320/10/2 326/10/2
f 321/10/2 322/10/2 327/10/2
f 327/10/2 322/10/2 328/10/2
f 316/10/2 317/10/2 329/10/2
f 329/10/2 317/10/2 330/10/2
f 324/10/2 325/10/2 331/10/2
f 331/10/2 325/10/2 332/10/2
f 328/10/2 329/10/2 333/10/2
f 333/10/2 329/10/2 334/10/2
f 335/3/2 336/3/2 337/3/2
f 337/3/2 336/3/2 338/3/2
f 339/3/2 340/3/2 341/3/2
f 341/3/2 340/3/2 342/3/2
f 343/10/2 344/10/2 347/10/2
f 347/10/2 344/10/2 348/10/2
f 348/10/2 344/10/2 349/10/2
f 345/10/2 346/10/2 350/10/2
f 350/10/2 346/10/2 351/10/2
f 347/7/2 348/7/2 352/7/2
f 352/7/2 348/7/2 353/7/2
f 349/10/2 350/10/2 354/10/2
f 354/10/2 350/10/2 355/10/2
f 351/10/2 346/10/2 356/10/2
f 356/10/2 346/10/2 357/10/2
f 353/10/2 354/10/2 358/10/2
f 354/7/2 355/7/2 359/7/2
f 358/10/2 354/10/2 359/10/2
f 355/10/2 356/10/2 360/10/2
f 359/7/2 355/7/2 360/7/2
f 360/10/2 356/10/2 361/10/2
f 362/3/2 363/3/2 364/3/2
f 364/3/2 363/3/2 365/3/2
f 369/7/3 367/7/3 366/7/3
f 370/10/3 368/10/3 367/10/3
f 370/7/3 367/7/3 369/7/3
f 371/10/3 370/10/3 369/10/3
f 372/10/3 368/10/3 370/10/3
f 372/10/3 370/10/3 371/10/3
f 373/7/3 372/7/3 371/7/3
f 374/10/3 368/10/3 372/10/3
f 374/7/3 372/7/3 373/7/3
f 375/10/3 374/10/3 373/10/3
f 376/10/3 368/10/3 374/10/3
f 376/10/3 374/10/3 375/10/3
f 382/10/3 378/10/3 377/10/3
f 383/10/3 378/10/3 382/10/3
f 384/10/3 378/10/3 383/10/3
f 385/10/3 378/10/3 384/10/3
f 388/11/3 382/11/3 381/11/3
f 388/11/3 383/11/3 382/11/3
f 389/11/3 383/11/3 388/11/3
f 390/11/3 388/11/3 387/11/3
f 391/11/3 388/11/3 390/11/3
f 394/11/3 393/11/3 392/11/3
f 395/11/3 393/11/3 394/11/3
f 398/10/3 386/10/3 385/10/3
f 399/10/3 386/10/3 398/10/3
f 400/11/3 397/11/3 396/11/3
f 401/11/3 397/11/3 400/11/3
f 403/7/3 399/7/3 398/7/3
f 404/7/3 399/7/3 403/7/3
f 405/9/3 380/9/3 379/9/3
f 406/9/3 380/9/3 405/9/3
f 407/11/3 402/11/3 401/11/3
f 408/11/3 402/11/3 407/11/3
f 410/10/3 404/10/3 403/10/3
f 411/10/3 404/10/3 410/10/3
f 412/10/3 409/10/3 408/10/3
f 413/7/3 410/7/3 409/7/3
f 413/10/3 409/10/3 412/10/3
f 414/7/3 410/7/3 413/7/3
f 418/8/3 416/8/3 415/8/3
f 419/8/3 416/8/3 418/8/3
f 421/8/3 418/8/3 417/8/3
f 421/8/3 420/8/3 419/8/3
f 421/8/3 419/8/3 418/8/3
f 422/8/3 420/8/3 421/8/3
f 423/8/3 420/8/3 422/8/3
f 424/8/3 420/8/3 423/8/3
f 425/8/3 423/8/3 422/8/3
f 426/8/3 423/8/3 425/8/3
f 429/10/3 426/10/3 425/10/3
f 430/10/3 426/10/3 429/10/3
f 432/11/3 428/11/3 427/11/3
f 433/11/3 428/11/3 432/11/3
f 434/11/3 428/11/3 433/11/3
f 440/9/3 432/9/3 431/9/3
f 440/9/3 433/9/3 432/9/3
f 441/3/3 435/3/3 434/3/3
f 442/12/3 436/12/3 435/12/3
f 442/3/3 435/3/3 441/3/3
f 443/11/3 437/11/3 436/11/3
f 443/12/3 436/12/3 442/12/3
f 444/11/3 437/11/3 443/11/3
f 445/7/3 439/7/3 438/7/3
f 446/7/3 439/7/3 445/7/3
f 447/3/3 442/3/3 441/3/3
f 447/3/3 443/3/3 442/3/3
f 449/9/3 441/9/3 440/9/3
f 449/9/3 440/9/3 431/9/3
f 450/3/3 447/3/3 441/3/3
f 450/9/3 441/9/3 449/9/3
f 451/3/3 447/3/3 450/3/3
f 452/11/3 448/11/3 447/11/3
f 452/3/3 447/3/3 451/3/3
f 453/10/3 446/10/3 445/10/3
f 454/9/3 449/9/3 431/9/3
f 455/9/3 449/9/3 454/9/3
f 456/9/3 449/9/3 455/9/3
f 457/3/3 451/3/3 450/3/3
f 458/12/3 452/12/3 451/12/3
f 458/3/3 451/3/3 457/3/3
f 459/11/3 448/11/3 452/11/3
f 459/12/3 452/12/3 458/12/3
f 460/11/3 448/11/3 459/11/3
f 461/10/3 446/10/3 453/10/3
f 462/10/3 446/10/3 461/10/3
f 463/11/3 456/11/3 455/11/3
f 463/11/3 457/11/3 456/11/3
f 464/11/3 457/11/3 463/11/3
f 467/10/3 466/10/3 465/10/3
f 468/10/3 466/10/3 467/10/3
f 474/8/3 470/8/3 469/8/3
f 475/8/3 470/8/3 474/8/3
f 476/8/3 472/8/3 471/8/3
f 477/8/3 472/8/3 476/8/3
f 478/4/3 474/4/3 473/4/3
f 479/4/3 474/4/3 478/4/3
f 480/4/3 474/4/3 479/4/3
f 481/4/3 474/4/3 480/4/3
f 485/3/3 480/3/3 479/3/3
f 486/3/3 480/3/3 485/3/3
f 490/8/3 482/8/3 481/8/3
f 491/8/3 482/8/3 490/8/3
f 492/8/3 484/8/3 483/8/3
f 493/8/3 484/8/3 492/8/3
f 494/9/3 487/9/3 486/9/3
f 495/9/3 487/9/3 494/9/3
f 496/10/3 489/10/3 488/10/3
f 497/10/3 489/10/3 496/10/3
f 498/10/3 491/10/3 490/10/3
f 499/10/3 491/10/3 498/10/3
f 503/5/3 501/5/3 500/5/3
f 504/10/3 502/10/3 501/10/3
f 504/5/3 501/5/3 503/5/3
f 505/10/3 502/10/3 504/10/3
f 511/10/3 507/10/3 506/10/3
f 512/10/3 507/10/3 511/10/3
f 513/5/3 509/5/3 508/5/3
f 514/10/3 510/10/3 509/10/3
f 514/5/3 509/5/3 513/5/3
f 515/10/3 510/10/3 514/10/3
f 522/3/3 517/3/3 516/3/3
f 523/3/3 517/3/3 522/3/3
f 524/3/3 519/3/3 518/3/3
f 525/3/3 519/3/3 524/3/3
f 526/10/3 521/10/3 520/10/3
f 527/10/3 521/10/3 526/10/3
f 528/3/3 524/3/3 523/3/3
f 529/3/3 524/3/3 528/3/3
f 532/7/3 531/7/3 530/7/3
f 533/7/3 531/7/3 532/7/3
f 536/10/3 535/10/3 534/10/3
f 537/10/3 535/10/3 536/10/3
f 542/7/3 539/7/3 538/7/3
f 543/7/3 539/7/3 542/7/3
f 544/10/3 541/10/3 540/10/3
f 545/10/3 541/10/3 544/10/3
f 548/10/3 547/10/3 546/10/3
f 549/10/3 547/10/3 548/10/3
f 550/10/4 551/10/4 554/10/4
f 554/10/4 551/10/4 555/10/4
f 552/10/4 553/10/4 556/10/4
f 556/10/4 553/10/4 557/10/4
f 558/7/4 559/7/4 560/7/4
f 560/7/4 559/7/4 561/7/4
f 562/10/4 563/10/4 564/10/4
f 564/10/4 563/10/4 565/10/4
f 566/11/4 567/11/4 568/11/4
f 568/11/4 567/11/4 569/11/4
f 570/10/4 571/10/4 572/10/4
f 572/10/4 571/10/4 573/10/4
f 574/8/4 575/8/4 579/8/4
f 579/8/4 575/8/4 580/8/4
f 576/8/4 577/8/4 581/8/4
f 581/8/4 577/8/4 582/8/4
f 578/4/4 579/4/4 583/4/4
f 583/4/4 579/4/4 584/4/4
f 584/4/4 579/4/4 585/4/4
f 585/4/4 579/4/4 586/4/4
f 584/3/4 585/3/4 590/3/4
f 590/3/4 585/3/4 591/3/4
f 586/8/4 587/8/4 595/8/4
f 595/8/4 587/8/4 596/8/4
f 588/8/4 589/8/4 597/8/4
f 597/8/4 589/8/4 598/8/4
f 591/9/4 592/9/4 599/9/4
f 599/9/4 592/9/4 600/9/4
f 593/10/4 594/10/4 602/10/4
f 602/10/4 594/10/4 603/10/4
f 595/10/4 596/10/4 604/10/4
f 604/10/4 596/10/4 605/10/4
f 600/9/4 601/9/4 609/9/4
f 609/9/4 601/9/4 610/9/4
f 606/5/4 607/5/4 611/5/4
f 607/10/4 608/10/4 612/10/4
f 611/5/4 607/5/4 612/5/4
f 612/10/4 608/10/4 613/10/4
f 614/10/4 615/10/4 616/10/4
f 616/10/4 615/10/4 620/10/4
f 620/10/4 615/10/4 621/10/4
f 617/5/4 618/5/4 622/5/4
f 618/10/4 619/10/4 623/10/4
f 622/5/4 618/5/4 623/5/4
f 623/10/4 619/10/4 624/10/4
f 625/3/4 626/3/4 631/3/4
f 631/3/4 626/3/4 632/3/4
f 627/3/4 628/3/4 633/3/4
f 633/3/4 628/3/4 634/3/4
f 629/10/4 630/10/4 635/10/4
f 635/10/4 630/10/4 636/10/4
f 632/3/4 633/3/4 637/3/4
f 637/3/4 633/3/4 638/3/4
f 639/8/4 640/8/4 642/8/4
f 642/8/4 640/8/4 643/8/4
f 641/8/4 642/8/4 645/8/4
f 643/8/4 644/8/4 645/8/4
f 642/8/4 643/8/4 645/8/4
f 645/8/4 644/8/4 646/8/4
f 646/8/4 644/8/4 647/8/4
f 647/8/4 644/8/4 648/8/4
f 646/8/4 647/8/4 649/8/4
f 649/8/4 647/8/4 650/8/4
f 649/10/4 650/10/4 655/10/4
f 655/10/4 650/10/4 656/10/4
f 651/11/4 652/11/4 658/11/4
f 658/11/4 652/11/4 659/11/4
f 653/11/4 654/11/4 660/11/4
f 660/11/4 654/11/4 661/11/4
f 657/9/4 658/9/4 664/9/4
f 662/10/4 663/10/4 667/10/4
f 667/10/4 663/10/4 668/10/4
f 668/10/4 663/10/4 669/10/4
f 657/9/4 664/9/4 670/9/4
f 670/9/4 664/9/4 671/9/4
f 665/11/4 666/11/4 672/11/4
f 672/11/4 666/11/4 673/11/4
f 668/7/4 669/7/4 674/7/4
f 674/7/4 669/7/4 675/7/4
f 657/9/4 670/9/4 676/9/4
f 676/9/4 670/9/4 677/9/4
f 674/10/4 675/10/4 680/10/4
f 680/10/4 675/10/4 681/10/4
f 678/11/4 679/11/4 682/11/4
f 682/11/4 679/11/4 683/11/4
f 684/10/4 685/10/4 686/10/4
f 686/10/4 685/10/4 687/10/4
f 688/7/4 689/7/4 695/7/4
f 689/10/4 690/10/4 696/10/4
f 695/7/4 689/7/4 696/7/4
f 696/10/4 690/10/4 697/10/4
f 693/11/4 694/11/4 700/11/4
f 700/11/4 694/11/4 701/11/4
f 697/7/4 698/7/4 703/7/4
f 703/7/4 698/7/4 704/7/4
f 699/11/4 700/11/4 705/11/4
f 705/11/4 700/11/4 706/11/4
f 701/11/4 702/11/4 707/11/4
f 707/11/4 702/11/4 708/11/4
f 703/10/4 704/10/4 709/10/4
f 709/10/4 704/10/4 710/10/4
f 709/7/4 710/7/4 711/7/4
f 711/7/4 710/7/4 712/7/4
f 706/11/4 707/11/4 715/11/4
f 715/11/4 707/11/4 716/11/4
f 711/10/4 712/10/4 718/10/4
f 713/9/4 714/9/4 719/9/4
f 714/11/4 715/11/4 720/11/4
f 719/9/4 714/9/4 720/9/4
f 720/11/4 715/11/4 721/11/4
f 716/11/4 717/11/4 722/11/4
f 722/11/4 717/11/4 723/11/4
f 718/10/4 712/10/4 725/10/4
f 691/9/4 692/9/4 726/9/4
f 726/9/4 692/9/4 727/9/4
f 720/11/4 721/11/4 728/11/4
f 721/11/4 722/11/4 728/11/4
f 728/11/4 722/11/4 729/11/4
f 723/11/4 724/11/4 730/11/4
f 730/11/4 724/11/4 731/11/4
f 725/10/4 712/10/4 732/10/4
f 732/10/4 712/10/4 733/10/4
f 731/10/4 732/10/4 734/10/4
f 734/10/4 732/10/4 735/10/4
f 736/10/4 737/10/4 740/10/4
f 740/10/4 737/10/4 741/10/4
f 741/10/4 737/10/4 742/10/4
f 738/11/4 739/11/4 744/11/4
f 744/11/4 739/11/4 745/11/4
f 742/10/4 737/10/4 746/10/4
f 743/11/4 744/11/4 747/11/4
f 747/11/4 744/11/4 748/11/4
f 746/10/4 737/10/4 750/10/4
f 750/10/4 737/10/4 751/10/4
f 748/11/4 749/11/4 752/11/4
f 752/11/4 749/11/4 753/11/4
f 750/7/4 751/7/4 755/7/4
f 755/7/4 751/7/4 756/7/4
f 754/10/4 755/10/4 757/10/4
f 755/10/4 756/10/4 757/10/4
f 757/10/4 756/10/4 758/10/4
f 759/10/4 760/10/4 762/10/4
f 760/7/4 761/7/4 762/7/4
f 762/7/4 761/7/4 763/7/4
f 759/10/4 762/10/4 764/10/4
f 762/10/4 763/10/4 764/10/4
f 764/10/4 763/10/4 765/10/4
f 764/7/4 765/7/4 766/7/4
f 765/10/4 763/10/4 767/10/4
f 766/7/4 765/7/4 767/7/4
f 766/10/4 767/10/4 768/10/4
f 767/10/4 763/10/4 769/10/4
f 768/10/4 767/10/4 769/10/4
f 776/4/5 771/4/5 770/4/5
f 777/4/5 771/4/5 776/4/5
f 778/5/5 773/5/5 772/5/5
f 779/5/5 773/5/5 778/5/5
f 780/5/5 775/5/5 774/5/5
f 781/5/5 775/5/5 780/5/5
f 786/9/5 783/9/5 782/9/5
f 787/9/5 783/9/5 786/9/5
f 788/9/5 783/9/5 787/9/5
f 789/9/5 783/9/5 788/9/5
f 790/9/5 783/9/5 789/9/5
f 792/3/5 785/3/5 784/3/5
f 793/3/5 785/3/5 792/3/5
f 794/9/5 786/9/5 782/9/5
f 795/9/5 788/9/5 787/9/5
f 796/9/5 788/9/5 795/9/5
f 797/9/5 790/9/5 789/9/5
f 798/3/5 791/3/5 790/3/5
f 798/9/5 790/9/5 797/9/5
f 799/3/5 791/3/5 798/3/5
f 800/9/5 797/9/5 796/9/5
f 800/9/5 798/9/5 797/9/5
f 800/9/5 796/9/5 795/9/5
f 800/9/5 795/9/5 794/9/5
f 800/9/5 794/9/5 782/9/5
f 801/9/5 798/9/5 800/9/5
f 806/9/5 803/9/5 802/9/5
f 807/9/5 803/9/5 806/9/5
f 808/3/5 805/3/5 804/3/5
f 809/3/5 805/3/5 808/3/5
f 814/11/5 811/11/5 810/11/5
f 815/11/5 811/11/5 814/11/5
f 816/11/5 813/11/5 812/11/5
f 817/11/5 813/11/5 816/11/5
f 819/9/5 815/9/5 814/9/5
f 820/9/5 815/9/5 819/9/5
f 821/3/5 818/3/5 817/3/5
f 822/3/5 818/3/5 821/3/5
f 825/9/5 824/9/5 823/9/5
f 826/9/5 824/9/5 825/9/5
f 831/11/5 828/11/5 827/11/5
f 832/11/5 828/11/5 831/11/5
f 833/11/5 830/11/5 829/11/5
f 834/11/5 830/11/5 833/11/5
f 839/11/5 836/11/5 835/11/5
f 840/11/5 838/11/5 837/11/5
f 841/11/5 838/11/5 840/11/5
f 844/11/5 842/11/5 841/11/5
f 845/1/5 843/1/5 842/1/5
f 845/11/5 842/11/5 844/11/5
f 846/1/5 843/1/5 845/1/5
f 847/11/5 839/11/5 835/11/5
f 848/11/5 839/11/5 847/11/5
f 849/11/5 846/11/5 845/11/5
f 850/11/5 846/11/5 849/11/5
f 855/11/5 852/11/5 851/11/5
f 856/11/5 852/11/5 855/11/5
f 857/11/5 854/11/5 853/11/5
f 858/11/5 854/11/5 857/11/5
f 861/11/5 860/11/5 859/11/5
f 862/11/5 860/11/5 861/11/5
f 866/11/5 863/11/5 862/11/5
f 867/11/5 863/11/5 866/11/5
f 868/11/5 865/11/5 864/11/5
f 869/11/5 865/11/5 868/11/5
f 874/10/5 871/10/5 870/10/5
f 875/10/5 871/10/5 874/10/5
f 876/11/5 873/11/5 872/11/5
f 877/11/5 873/11/5 876/11/5
f 880/10/5 879/10/5 878/10/5
f 881/10/5 879/10/5 880/10/5
f 889/7/5 883/7/5 882/7/5
f 890/1/5 884/1/5 883/1/5
f 890/7/5 883/7/5 889/7/5
f 891/1/5 884/1/5 890/1/5
f 892/1/5 886/1/5 885/1/5
f 893/1/5 886/1/5 892/1/5
f 894/11/5 888/11/5 887/11/5
f 895/11/5 888/11/5 894/11/5
f 896/10/5 891/10/5 890/10/5
f 897/1/5 892/1/5 891/1/5
f 897/10/5 891/10/5 896/10/5
f 898/10/5 893/10/5 892/10/5
f 898/1/5 892/1/5 897/1/5
f 899/10/5 893/10/5 898/10/5
f 900/11/5 894/11/5 893/11/5
f 900/10/5 893/10/5 899/10/5
f 901/11/5 894/11/5 900/11/5
f 902/10/5 899/10/5 898/10/5
f 902/10/5 898/10/5 897/10/5
f 903/7/5 900/7/5 899/7/5
f 903/10/5 899/10/5 902/10/5
f 904/10/5 901/10/5 900/10/5
f 904/7/5 900/7/5 903/7/5
f 905/10/5 901/10/5 904/10/5
f 911/7/5 907/7/5 906/7/5
f 912/10/5 908/10/5 907/10/5
f 912/7/5 907/7/5 911/7/5
f 913/10/5 908/10/5 912/10/5
f 914/7/5 909/7/5 908/7/5
f 914/10/5 908/10/5 913/10/5
f 915/10/5 910/10/5 909/10/5
f 915/7/5 909/7/5 914/7/5
f 916/10/5 910/10/5 915/10/5
f 917/10/5 910/10/5 916/10/5
f 921/10/5 913/10/5 912/10/5
f 922/10/5 913/10/5 921/10/5
f 923/10/5 916/10/5 915/10/5
f 923/10/5 915/10/5 914/10/5
f 924/10/5 916/10/5 923/10/5
f 925/10/5 920/10/5 919/10/5
f 926/10/5 920/10/5 925/10/5
f 927/10/5 918/10/5 917/10/5
f 928/10/5 918/10/5 927/10/5
f 933/7/5 930/7/5 929/7/5
f 934/7/5 930/7/5 933/7/5
f 936/10/5 932/10/5 931/10/5
f 937/10/5 932/10/5 936/10/5
f 938/10/5 936/10/5 935/10/5
f 939/10/5 936/10/5 938/10/5
f 943/8/5 941/8/5 940/8/5
f 944/8/5 941/8/5 943/8/5
f 949/8/5 943/8/5 942/8/5
f 950/8/5 943/8/5 949/8/5
f 951/8/5 945/8/5 944/8/5
f 952/10/5 946/10/5 945/10/5
f 952/8/5 945/8/5 951/8/5
f 953/10/5 946/10/5 952/10/5
f 954/10/5 948/10/5 947/10/5
f 955/10/5 948/10/5 954/10/5
f 956/8/5 951/8/5 950/8/5
f 957/8/5 951/8/5 956/8/5
f 965/8/5 959/8/5 958/8/5
f 966/8/5 959/8/5 965/8/5
f 967/8/5 961/8/5 960/8/5
f 968/10/5 962/10/5 961/10/5
f 968/8/5 961/8/5 967/8/5
f 969/10/5 962/10/5 968/10/5
f 970/10/5 964/10/5 963/10/5
f 971/10/5 964/10/5 970/10/5
f 979/8/5 973/8/5 972/8/5
f 980/8/5 973/8/5 979/8/5
f 981/8/5 975/8/5 974/8/5
f 982/10/5 976/10/5 975/10/5
f 982/8/5 975/8/5 981/8/5
f 983/10/5 976/10/5 982/10/5
f 984/10/5 978/10/5 977/10/5
f 985/10/5 978/10/5 984/10/5
f 986/9/6 987/9/6 988/9/6
f 988/9/6 987/9/6 989/9/6
f 986/9/6 988/9/6 992/9/6
f 989/9/6 987/9/6 993/9/6
f 990/3/6 991/3/6 995/3/6
f 995/3/6 991/3/6 996/3/6
f 992/9/6 988/9/6 997/9/6
f 993/3/6 994/3/6 998/3/6
f 989/9/6 993/9/6 998/9/6
f 998/3/6 994/3/6 999/3/6
f 997/9/6 988/9/6 1000/9/6
f 989/9/6 998/9/6 1001/9/6
f 997/9/6 1000/9/6 1002/9/6
f 1000/9/6 1001/9/6 1002/9/6
f 1001/9/6 998/9/6 1003/9/6
f 1002/9/6 1001/9/6 1003/9/6
f 1004/9/6 1005/9/6 1008/9/6
f 1008/9/6 1005/9/6 1009/9/6
f 1006/3/6 1007/3/6 1010/3/6
f 1010/3/6 1007/3/6 1011/3/6
f 1012/3/6 1013/3/6 1014/3/6
f 1014/3/6 1013/3/6 1015/3/6
f 1016/11/6 1017/11/6 1020/11/6
f 1020/11/6 1017/11/6 1021/11/6
f 1018/11/6 1019/11/6 1022/11/6
f 1022/11/6 1019/11/6 1023/11/6
f 1024/11/6 1025/11/6 1026/11/6
f 1026/11/6 1025/11/6 1027/11/6
f 1028/11/6 1029/11/6 1034/11/6
f 1034/11/6 1029/11/6 1035/11/6
f 1030/11/6 1031/11/6 1036/11/6
f 1036/11/6 1031/11/6 1037/11/6
f 1032/11/6 1033/11/6 1038/11/6
f 1038/11/6 1033/11/6 1039/11/6
f 1035/11/6 1036/11/6 1040/11/6
f 1040/11/6 1036/11/6 1041/11/6
f 1037/11/6 1038/11/6 1042/11/6
f 1042/11/6 1038/11/6 1043/11/6
f 1044/10/6 1045/10/6 1046/10/6
f 1046/10/6 1045/10/6 1047/10/6
f 1048/10/6 1049/10/6 1052/10/6
f 1052/10/6 1049/10/6 1053/10/6
f 1050/10/6 1051/10/6 1054/10/6
f 1054/10/6 1051/10/6 1055/10/6
f 1056/7/6 1057/7/6 1060/7/6
f 1060/7/6 1057/7/6 1061/7/6
f 1058/10/6 1059/10/6 1062/10/6
f 1062/10/6 1059/10/6 1063/10/6
f 1064/7/6 1065/7/6 1068/7/6
f 1066/10/6 1067/10/6 1069/10/6
f 1068/7/6 1065/7/6 1069/7/6
f 1065/10/6 1066/10/6 1069/10/6
f 1069/10/6 1067/10/6 1070/10/6
f 1071/10/6 1072/10/6 1074/10/6
f 1074/10/6 1072/10/6 1075/10/6
f 1075/10/6 1072/10/6 1076/10/6
f 1076/10/6 1072/10/6 1077/10/6
f 1073/10/6 1074/10/6 1079/10/6
f 1079/10/6 1074/10/6 1080/10/6
f 1077/7/6 1078/7/6 1081/7/6
f 1081/7/6 1078/7/6 1082/7/6
f 1083/10/6 1084/10/6 1087/10/6
f 1087/10/6 1084/10/6 1088/10/6
f 1085/10/6 1086/10/6 1094/10/6
f 1094/10/6 1086/10/6 1095/10/6
f 1088/10/6 1089/10/6 1096/10/6
f 1089/10/6 1090/10/6 1096/10/6
f 1090/10/6 1091/10/6 1096/10/6
f 1091/10/6 1092/10/6 1096/10/6
f 1092/7/6 1093/7/6 1097/7/6
f 1096/10/6 1092/10/6 1097/10/6
f 1093/10/6 1094/10/6 1098/10/6
f 1097/7/6 1093/7/6 1098/7/6
f 1098/10/6 1094/10/6 1099/10/6
f 1100/10/6 1101/10/6 1108/10/6
f 1108/10/6 1101/10/6 1109/10/6
f 1109/10/6 1101/10/6 1110/10/6
f 1101/7/6 1102/7/6 1111/7/6
f 1110/10/6 1101/10/6 1111/10/6
f 1102/10/6 1103/10/6 1112/10/6
f 1111/7/6 1102/7/6 1112/7/6
f 1112/10/6 1103/10/6 1113/10/6
f 1104/8/6 1105/8/6 1115/8/6
f 1115/8/6 1105/8/6 1116/8/6
f 1106/8/6 1107/8/6 1117/8/6
f 1108/10/6 1109/10/6 1118/10/6
f 1117/8/6 1107/8/6 1118/8/6
f 1107/10/6 1108/10/6 1118/10/6
f 1118/10/6 1109/10/6 1119/10/6
f 1119/10/6 1109/10/6 1120/10/6
f 1113/10/6 1114/10/6 1121/10/6
f 1112/10/6 1113/10/6 1121/10/6
f 1121/10/6 1114/10/6 1122/10/6
f 1118/7/6 1119/7/6 1126/7/6
f 1119/10/6 1120/10/6 1127/10/6
f 1126/7/6 1119/7/6 1127/7/6
f 1121/7/6 1122/7/6 1128/7/6
f 1112/10/6 1121/10/6 1128/10/6
f 1128/7/6 1122/7/6 1129/7/6
f 1123/8/6 1124/8/6 1130/8/6
f 1130/8/6 1124/8/6 1131/8/6
f 1125/8/6 1126/8/6 1132/8/6
f 1126/10/6 1127/10/6 1133/10/6
f 1132/8/6 1126/8/6 1133/8/6
f 1127/10/6 1120/10/6 1134/10/6
f 1133/10/6 1127/10/6 1134/10/6
f 1134/10/6 1120/10/6 1135/10/6
f 1112/10/6 1128/10/6 1139/10/6
f 1128/10/6 1129/10/6 1139/10/6
f 1139/10/6 1129/10/6 1140/10/6
f 1140/10/6 1129/10/6 1141/10/6
f 1134/7/6 1135/7/6 1142/7/6
f 1135/10/6 1136/10/6 1143/10/6
f 1142/7/6 1135/7/6 1143/7/6
f 1136/7/6 1137/7/6 1144/7/6
f 1143/10/6 1136/10/6 1144/10/6
f 1139/10/6 1140/10/6 1145/10/6
f 1144/7/6 1137/7/6 1145/7/6
f 1137/10/6 1138/10/6 1145/10/6
f 1138/10/6 1139/10/6 1145/10/6
f 1145/10/6 1140/10/6 1146/10/6
f 1147/8/6 1148/8/6 1153/8/6
f 1153/8/6 1148/8/6 1154/8/6
f 1149/7/6 1150/7/6 1156/7/6
f 1150/10/6 1151/10/6 1157/10/6
f 1156/7/6 1150/7/6 1157/7/6
f 1157/10/6 1151/10/6 1158/10/6
f 1154/8/6 1155/8/6 1159/8/6
f 1152/8/6 1153/8/6 1159/8/6
f 1153/8/6 1154/8/6 1159/8/6
f 1159/8/6 1155/8/6 1160/8/6
f 1160/8/6 1155/8/6 1161/8/6
f 1161/8/6 1155/8/6 1162/8/6
f 1156/10/6 1157/10/6 1163/10/6
f 1158/10/6 1151/10/6 1165/10/6
f 1160/8/6 1161/8/6 1166/8/6
f 1166/8/6 1161/8/6 1167/8/6
f 1163/10/6 1164/10/6 1168/10/6
f 1156/10/6 1163/10/6 1168/10/6
f 1164/7/6 1165/7/6 1169/7/6
f 1168/10/6 1164/10/6 1169/10/6
f 1165/10/6 1151/10/6 1170/10/6
f 1169/7/6 1165/7/6 1170/7/6
f 1170/10/6 1151/10/6 1171/10/6
f 1172/10/6 1173/10/6 1174/10/6
f 1174/10/6 1173/10/6 1175/10/6
