# MagicaVoxel @ Ephtracy

# group
o 

# material
mtllib ice-map.mtl
usemtl palette

# normals
vn -1 0 0
vn 1 0 0
vn 0 0 1
vn 0 0 -1
vn 0 -1 0
vn 0 1 0

# texcoords
vt 0.748047 0.5
vt 0.771484 0.5
vt 0.912109 0.5

# verts
v -2 0 2
v -2 0 -2
v -2 0.3 0.7
v -2 0.3 0.4
v -2 0.4 1.6
v -2 0.4 1.4
v -2 0.4 0.8
v -2 0.4 0.7
v -2 0.4 -0.5
v -2 0.4 -1
v -2 0.5 1.4
v -2 0.5 1
v -2 0.5 0.4
v -2 0.5 0.3
v -2 0.5 -0.3
v -2 0.5 -0.5
v -2 0.5 -1
v -2 0.5 -1.2
v -2 0.6 0.9
v -2 0.6 0.8
v -2 0.6 0.3
v -2 0.6 0.2
v -2 0.6 -0.2
v -2 0.6 -0.3
v -2 0.6 -0.9
v -2 0.6 -1.2
v -2 0.6 -1.4
v -2 0.7 1
v -2 0.7 0.9
v -2 0.7 0.2
v -2 0.7 0.0999999
v -2 0.7 -2.38419e-07
v -2 0.7 -0.2
v -2 0.7 -1.4
v -2 0.7 -1.6
v -2 0.8 2
v -2 0.8 1.6
v -2 0.8 0.0999999
v -2 0.8 -2.38419e-07
v -2 0.8 -0.5
v -2 0.8 -0.8
v -2 0.8 -1.6
v -2 0.8 -2
v -2 0.9 -0.2
v -2 0.9 -0.5
v -2 0.9 -0.8
v -2 0.9 -0.9
v -2 1.2 2
v -2 1.2 -0.2
v -2 1.2 -0.9
v -2 1.2 -2
v 0.2 0.9 2
v 0.2 0.9 -0.2
v 0.2 1.2 2
v 0.2 1.2 -0.2
v -0.6 0.9 2
v -0.6 0.9 -0.2
v -0.6 1.2 2
v -0.6 1.2 -0.2
v 2 0 2
v 2 0 -2
v 2 0.5 1.5
v 2 0.5 1
v 2 0.5 -0.7
v 2 0.5 -1.7
v 2 0.6 1.8
v 2 0.6 1.5
v 2 0.6 1
v 2 0.6 0.6
v 2 0.6 -0.2
v 2 0.6 -0.7
v 2 0.6 -0.9
v 2 0.6 -1.7
v 2 0.6 -1.8
v 2 0.7 2
v 2 0.7 1.8
v 2 0.7 0.6
v 2 0.7 -0.2
v 2 0.7 -1.8
v 2 0.7 -1.9
v 2 0.8 -0.4
v 2 0.8 -0.8
v 2 0.8 -1.9
v 2 0.8 -2
v 2 0.9 -0.2
v 2 0.9 -0.4
v 2 0.9 -0.8
v 2 0.9 -0.9
v 2 1.2 2
v 2 1.2 -0.2
v 2 1.2 -0.9
v 2 1.2 -2
v -2 0 2
v -2 0.8 2
v -2 1.2 2
v -1.7 0.7 2
v -1.7 0.8 2
v -1.6 0.6 2
v -1.6 0.7 2
v -1.5 0.5 2
v -1.5 0.6 2
v -1.4 0.4 2
v -1.4 0.5 2
v -1.2 0.4 2
v -1.2 0.5 2
v -1.1 0.5 2
v -1.1 0.6 2
v -0.6 0.5 2
v -0.6 0.6 2
v -0.6 0.9 2
v -0.6 1.2 2
v -0.4 0.8 2
v -0.4 0.9 2
v -0.2 0.5 2
v -0.2 0.6 2
v 2.38419e-07 0.8 2
v 2.38419e-07 0.9 2
v 0.2 0.6 2
v 0.2 0.7 2
v 0.2 0.9 2
v 0.2 1.2 2
v 0.6 0.6 2
v 0.6 0.7 2
v 0.9 0.5 2
v 0.9 0.6 2
v 1.3 0.4 2
v 1.3 0.5 2
v 1.5 0.4 2
v 1.5 0.5 2
v 1.8 0.5 2
v 1.8 0.8 2
v 1.9 0.7 2
v 1.9 0.8 2
v 2 0 2
v 2 0.7 2
v 2 1.2 2
v -2 0.9 -0.9
v -2 1.2 -0.9
v 2 0.9 -0.9
v 2 1.2 -0.9
v -2 0.9 -0.2
v -2 1.2 -0.2
v -0.6 0.9 -0.2
v -0.6 1.2 -0.2
v 0.2 0.9 -0.2
v 0.2 1.2 -0.2
v 2 0.9 -0.2
v 2 1.2 -0.2
v -2 0 -2
v -2 0.8 -2
v -2 1.2 -2
v -1.8 0.6 -2
v -1.8 0.8 -2
v -1.7 0.5 -2
v -1.7 0.6 -2
v -1.6 0.4 -2
v -1.6 0.5 -2
v -0.7 0.4 -2
v -0.7 0.5 -2
v -0.5 0.5 -2
v -0.5 0.6 -2
v -0.3 0.6 -2
v -0.3 0.7 -2
v -0.2 0.7 -2
v -0.2 0.8 -2
v 0.1 0.7 -2
v 0.1 0.8 -2
v 0.3 0.6 -2
v 0.3 0.7 -2
v 0.6 0.5 -2
v 0.6 0.6 -2
v 0.7 0.4 -2
v 0.7 0.5 -2
v 1 0.4 -2
v 1 0.5 -2
v 1.3 0.5 -2
v 1.3 0.6 -2
v 1.5 0.6 -2
v 1.5 0.7 -2
v 1.9 0.7 -2
v 1.9 0.8 -2
v 2 0 -2
v 2 0.8 -2
v 2 1.2 -2
v -2 0 2
v 2 0 2
v -2 0 -2
v 2 0 -2
v -0.6 0.9 2
v -0.4 0.9 2
v 2.38419e-07 0.9 2
v 0.2 0.9 2
v -0.0999999 0.9 1.4
v 2.38419e-07 0.9 1.4
v -0.5 0.9 1.3
v -0.4 0.9 1.3
v -0.0999999 0.9 1.1
v 2.38419e-07 0.9 1.1
v -0.5 0.9 0.8
v -0.4 0.9 0.8
v 2.38419e-07 0.9 0.5
v 0.1 0.9 0.5
v -0.5 0.9 0.2
v -0.4 0.9 0.2
v -0.5 0.9 0.0999999
v -0.4 0.9 0.0999999
v 2.38419e-07 0.9 -0.1
v 0.1 0.9 -0.1
v -2 0.9 -0.2
v -0.6 0.9 -0.2
v 0.2 0.9 -0.2
v 2 0.9 -0.2
v -1.8 0.9 -0.3
v -0.4 0.9 -0.3
v 0.2 0.9 -0.3
v 1.4 0.9 -0.3
v -1.9 0.9 -0.4
v -1.8 0.9 -0.4
v 2.38419e-07 0.9 -0.4
v 0.2 0.9 -0.4
v 1.4 0.9 -0.4
v 2 0.9 -0.4
v -2 0.9 -0.5
v -1.9 0.9 -0.5
v 0.7 0.9 -0.6
v 1.3 0.9 -0.6
v -1.4 0.9 -0.7
v -0.5 0.9 -0.7
v 0.3 0.9 -0.7
v 0.7 0.9 -0.7
v 1.3 0.9 -0.7
v 1.6 0.9 -0.7
v -2 0.9 -0.8
v -1.4 0.9 -0.8
v -0.5 0.9 -0.8
v 0.3 0.9 -0.8
v 1.6 0.9 -0.8
v 2 0.9 -0.8
v -2 0.9 -0.9
v 2 0.9 -0.9
v -2 1.2 2
v -0.6 1.2 2
v 0.2 1.2 2
v 2 1.2 2
v -2 1.2 -0.2
v -0.6 1.2 -0.2
v 0.2 1.2 -0.2
v 2 1.2 -0.2
v -2 1.2 -0.9
v 2 1.2 -0.9
v -2 1.2 -2
v 2 1.2 -2

# faces
f 3/1/1 2/1/1 1/1/1
f 4/1/1 2/1/1 3/1/1
f 5/1/1 3/1/1 1/1/1
f 6/1/1 3/1/1 5/1/1
f 7/1/1 3/1/1 6/1/1
f 8/3/1 4/3/1 3/3/1
f 8/1/1 3/1/1 7/1/1
f 9/1/1 2/1/1 4/1/1
f 10/1/1 2/1/1 9/1/1
f 11/1/1 7/1/1 6/1/1
f 11/3/1 6/3/1 5/3/1
f 12/1/1 7/1/1 11/1/1
f 13/3/1 4/3/1 8/3/1
f 13/3/1 8/3/1 7/3/1
f 13/1/1 9/1/1 4/1/1
f 14/1/1 9/1/1 13/1/1
f 15/1/1 9/1/1 14/1/1
f 16/3/1 10/3/1 9/3/1
f 16/1/1 9/1/1 15/1/1
f 17/1/1 2/1/1 10/1/1
f 17/3/1 10/3/1 16/3/1
f 18/1/1 2/1/1 17/1/1
f 19/1/1 7/1/1 12/1/1
f 20/3/1 13/3/1 7/3/1
f 20/1/1 7/1/1 19/1/1
f 20/3/1 14/3/1 13/3/1
f 21/1/1 15/1/1 14/1/1
f 21/3/1 14/3/1 20/3/1
f 22/1/1 15/1/1 21/1/1
f 23/1/1 15/1/1 22/1/1
f 24/3/1 16/3/1 15/3/1
f 24/1/1 15/1/1 23/1/1
f 24/3/1 18/3/1 17/3/1
f 24/3/1 17/3/1 16/3/1
f 25/3/1 18/3/1 24/3/1
f 26/1/1 2/1/1 18/1/1
f 26/3/1 18/3/1 25/3/1
f 27/1/1 2/1/1 26/1/1
f 28/3/1 12/3/1 11/3/1
f 28/1/1 19/1/1 12/1/1
f 29/3/1 20/3/1 19/3/1
f 29/1/1 19/1/1 28/1/1
f 29/3/1 22/3/1 21/3/1
f 29/3/1 21/3/1 20/3/1
f 30/1/1 23/1/1 22/1/1
f 30/3/1 22/3/1 29/3/1
f 31/1/1 23/1/1 30/1/1
f 32/1/1 23/1/1 31/1/1
f 33/2/1 25/2/1 24/2/1
f 33/1/1 23/1/1 32/1/1
f 33/2/1 24/2/1 23/2/1
f 34/1/1 2/1/1 27/1/1
f 34/3/1 27/3/1 26/3/1
f 34/3/1 26/3/1 25/3/1
f 35/1/1 2/1/1 34/1/1
f 36/1/1 5/1/1 1/1/1
f 37/3/1 29/3/1 28/3/1
f 37/1/1 5/1/1 36/1/1
f 37/3/1 28/3/1 11/3/1
f 37/3/1 11/3/1 5/3/1
f 37/3/1 30/3/1 29/3/1
f 37/3/1 31/3/1 30/3/1
f 38/1/1 32/1/1 31/1/1
f 38/3/1 31/3/1 37/3/1
f 39/3/1 33/3/1 32/3/1
f 39/1/1 32/1/1 38/1/1
f 40/2/1 25/2/1 33/2/1
f 41/2/1 25/2/1 40/2/1
f 42/1/1 2/1/1 35/1/1
f 42/3/1 35/3/1 34/3/1
f 43/1/1 2/1/1 42/1/1
f 44/3/1 37/3/1 36/3/1
f 44/3/1 33/3/1 39/3/1
f 44/3/1 38/3/1 37/3/1
f 44/3/1 39/3/1 38/3/1
f 44/2/1 40/2/1 33/2/1
f 45/1/1 41/1/1 40/1/1
f 45/2/1 40/2/1 44/2/1
f 46/2/1 25/2/1 41/2/1
f 46/1/1 41/1/1 45/1/1
f 47/3/1 43/3/1 42/3/1
f 47/2/1 25/2/1 46/2/1
f 47/3/1 34/3/1 25/3/1
f 47/3/1 42/3/1 34/3/1
f 48/3/1 44/3/1 36/3/1
f 49/3/1 44/3/1 48/3/1
f 50/3/1 43/3/1 47/3/1
f 51/3/1 43/3/1 50/3/1
f 54/3/1 53/3/1 52/3/1
f 55/3/1 53/3/1 54/3/1
f 56/3/2 57/3/2 58/3/2
f 58/3/2 57/3/2 59/3/2
f 60/1/2 61/1/2 62/1/2
f 62/1/2 61/1/2 63/1/2
f 63/1/2 61/1/2 64/1/2
f 64/1/2 61/1/2 65/1/2
f 60/1/2 62/1/2 66/1/2
f 62/3/2 63/3/2 67/3/2
f 66/1/2 62/1/2 67/1/2
f 63/1/2 64/1/2 68/1/2
f 67/3/2 63/3/2 68/3/2
f 68/1/2 64/1/2 69/1/2
f 69/1/2 64/1/2 70/1/2
f 64/3/2 65/3/2 71/3/2
f 70/1/2 64/1/2 71/1/2
f 71/3/2 65/3/2 72/3/2
f 65/1/2 61/1/2 73/1/2
f 72/3/2 65/3/2 73/3/2
f 73/1/2 61/1/2 74/1/2
f 60/1/2 66/1/2 75/1/2
f 66/3/2 67/3/2 76/3/2
f 75/1/2 66/1/2 76/1/2
f 67/3/2 68/3/2 76/3/2
f 68/3/2 69/3/2 76/3/2
f 69/1/2 70/1/2 77/1/2
f 76/3/2 69/3/2 77/3/2
f 71/2/2 72/2/2 78/2/2
f 77/1/2 70/1/2 78/1/2
f 70/2/2 71/2/2 78/2/2
f 74/1/2 61/1/2 79/1/2
f 73/3/2 74/3/2 79/3/2
f 72/3/2 73/3/2 79/3/2
f 79/1/2 61/1/2 80/1/2
f 78/2/2 72/2/2 81/2/2
f 81/2/2 72/2/2 82/2/2
f 80/1/2 61/1/2 83/1/2
f 79/3/2 80/3/2 83/3/2
f 83/1/2 61/1/2 84/1/2
f 76/3/2 77/3/2 85/3/2
f 75/3/2 76/3/2 85/3/2
f 77/3/2 78/3/2 85/3/2
f 78/2/2 81/2/2 85/2/2
f 81/1/2 82/1/2 86/1/2
f 85/2/2 81/2/2 86/2/2
f 82/2/2 72/2/2 87/2/2
f 86/1/2 82/1/2 87/1/2
f 83/3/2 84/3/2 88/3/2
f 87/2/2 72/2/2 88/2/2
f 79/3/2 83/3/2 88/3/2
f 72/3/2 79/3/2 88/3/2
f 75/3/2 85/3/2 89/3/2
f 89/3/2 85/3/2 90/3/2
f 88/3/2 84/3/2 91/3/2
f 91/3/2 84/3/2 92/3/2
f 96/1/3 94/1/3 93/1/3
f 97/3/3 95/3/3 94/3/3
f 97/1/3 94/1/3 96/1/3
f 98/1/3 96/1/3 93/1/3
f 99/3/3 97/3/3 96/3/3
f 99/1/3 96/1/3 98/1/3
f 100/1/3 98/1/3 93/1/3
f 101/3/3 99/3/3 98/3/3
f 101/1/3 98/1/3 100/1/3
f 102/1/3 100/1/3 93/1/3
f 103/3/3 101/3/3 100/3/3
f 103/1/3 100/1/3 102/1/3
f 104/1/3 102/1/3 93/1/3
f 104/3/3 103/3/3 102/3/3
f 105/3/3 101/3/3 103/3/3
f 105/3/3 103/3/3 104/3/3
f 106/1/3 105/1/3 104/1/3
f 106/3/3 101/3/3 105/3/3
f 107/3/3 99/3/3 101/3/3
f 107/3/3 101/3/3 106/3/3
f 108/1/3 106/1/3 104/1/3
f 108/1/3 107/1/3 106/1/3
f 109/3/3 99/3/3 107/3/3
f 109/1/3 107/1/3 108/1/3
f 110/3/3 95/3/3 97/3/3
f 110/3/3 99/3/3 109/3/3
f 110/3/3 97/3/3 99/3/3
f 111/3/3 95/3/3 110/3/3
f 112/2/3 110/2/3 109/2/3
f 113/2/3 110/2/3 112/2/3
f 114/3/3 109/3/3 108/3/3
f 114/1/3 108/1/3 104/1/3
f 115/2/3 112/2/3 109/2/3
f 115/3/3 109/3/3 114/3/3
f 116/1/3 113/1/3 112/1/3
f 116/2/3 112/2/3 115/2/3
f 117/1/3 113/1/3 116/1/3
f 118/1/3 115/1/3 114/1/3
f 118/2/3 116/2/3 115/2/3
f 118/2/3 117/2/3 116/2/3
f 119/2/3 117/2/3 118/2/3
f 120/2/3 117/2/3 119/2/3
f 122/1/3 119/1/3 118/1/3
f 122/1/3 118/1/3 114/1/3
f 123/3/3 120/3/3 119/3/3
f 123/1/3 119/1/3 122/1/3
f 123/3/3 121/3/3 120/3/3
f 124/1/3 122/1/3 114/1/3
f 124/1/3 114/1/3 104/1/3
f 125/3/3 123/3/3 122/3/3
f 125/1/3 122/1/3 124/1/3
f 126/1/3 104/1/3 93/1/3
f 126/1/3 124/1/3 104/1/3
f 127/3/3 125/3/3 124/3/3
f 127/1/3 124/1/3 126/1/3
f 128/1/3 126/1/3 93/1/3
f 128/3/3 127/3/3 126/3/3
f 129/3/3 125/3/3 127/3/3
f 129/3/3 127/3/3 128/3/3
f 130/1/3 129/1/3 128/1/3
f 130/3/3 125/3/3 129/3/3
f 131/3/3 121/3/3 123/3/3
f 131/3/3 125/3/3 130/3/3
f 131/3/3 123/3/3 125/3/3
f 132/1/3 131/1/3 130/1/3
f 133/3/3 121/3/3 131/3/3
f 133/1/3 131/1/3 132/1/3
f 134/1/3 130/1/3 128/1/3
f 134/1/3 128/1/3 93/1/3
f 134/1/3 132/1/3 130/1/3
f 135/3/3 133/3/3 132/3/3
f 135/1/3 132/1/3 134/1/3
f 136/3/3 121/3/3 133/3/3
f 136/3/3 133/3/3 135/3/3
f 139/3/3 138/3/3 137/3/3
f 140/3/3 138/3/3 139/3/3
f 141/3/4 142/3/4 143/3/4
f 143/3/4 142/3/4 144/3/4
f 145/3/4 146/3/4 147/3/4
f 147/3/4 146/3/4 148/3/4
f 149/1/4 150/1/4 152/1/4
f 150/3/4 151/3/4 153/3/4
f 152/1/4 150/1/4 153/1/4
f 149/1/4 152/1/4 154/1/4
f 152/3/4 153/3/4 155/3/4
f 154/1/4 152/1/4 155/1/4
f 149/1/4 154/1/4 156/1/4
f 154/3/4 155/3/4 157/3/4
f 156/1/4 154/1/4 157/1/4
f 149/1/4 156/1/4 158/1/4
f 156/3/4 157/3/4 158/3/4
f 157/3/4 155/3/4 159/3/4
f 158/3/4 157/3/4 159/3/4
f 158/1/4 159/1/4 160/1/4
f 159/3/4 155/3/4 160/3/4
f 155/3/4 153/3/4 161/3/4
f 160/3/4 155/3/4 161/3/4
f 160/1/4 161/1/4 162/1/4
f 161/3/4 153/3/4 162/3/4
f 162/3/4 153/3/4 163/3/4
f 162/1/4 163/1/4 164/1/4
f 163/3/4 153/3/4 164/3/4
f 153/3/4 151/3/4 165/3/4
f 164/3/4 153/3/4 165/3/4
f 162/1/4 164/1/4 166/1/4
f 164/1/4 165/1/4 166/1/4
f 165/3/4 151/3/4 167/3/4
f 166/1/4 165/1/4 167/1/4
f 162/1/4 166/1/4 168/1/4
f 160/1/4 162/1/4 168/1/4
f 166/3/4 167/3/4 169/3/4
f 168/1/4 166/1/4 169/1/4
f 158/1/4 160/1/4 170/1/4
f 160/1/4 168/1/4 170/1/4
f 168/3/4 169/3/4 171/3/4
f 170/1/4 168/1/4 171/1/4
f 149/1/4 158/1/4 172/1/4
f 158/1/4 170/1/4 172/1/4
f 170/3/4 171/3/4 173/3/4
f 172/1/4 170/1/4 173/1/4
f 149/1/4 172/1/4 174/1/4
f 172/3/4 173/3/4 174/3/4
f 173/3/4 171/3/4 175/3/4
f 174/3/4 173/3/4 175/3/4
f 174/1/4 175/1/4 176/1/4
f 175/3/4 171/3/4 176/3/4
f 171/3/4 169/3/4 177/3/4
f 176/3/4 171/3/4 177/3/4
f 176/1/4 177/1/4 178/1/4
f 177/3/4 169/3/4 178/3/4
f 169/3/4 167/3/4 179/3/4
f 178/3/4 169/3/4 179/3/4
f 178/1/4 179/1/4 180/1/4
f 179/3/4 167/3/4 180/3/4
f 167/3/4 151/3/4 181/3/4
f 180/3/4 167/3/4 181/3/4
f 178/1/4 180/1/4 182/1/4
f 176/1/4 178/1/4 182/1/4
f 180/1/4 181/1/4 182/1/4
f 149/1/4 174/1/4 182/1/4
f 174/1/4 176/1/4 182/1/4
f 181/3/4 151/3/4 183/3/4
f 182/1/4 181/1/4 183/1/4
f 183/3/4 151/3/4 184/3/4
f 187/1/5 186/1/5 185/1/5
f 188/1/5 186/1/5 187/1/5
f 190/1/6 191/1/6 193/1/6
f 191/2/6 192/2/6 194/2/6
f 193/1/6 191/1/6 194/1/6
f 189/2/6 190/2/6 195/2/6
f 190/1/6 193/1/6 196/1/6
f 195/2/6 190/2/6 196/2/6
f 193/2/6 194/2/6 197/2/6
f 196/1/6 193/1/6 197/1/6
f 195/1/6 196/1/6 197/1/6
f 194/2/6 192/2/6 198/2/6
f 197/2/6 194/2/6 198/2/6
f 195/1/6 197/1/6 199/1/6
f 189/2/6 195/2/6 199/2/6
f 197/1/6 198/1/6 199/1/6
f 199/1/6 198/1/6 200/1/6
f 198/2/6 192/2/6 201/2/6
f 200/1/6 198/1/6 201/1/6
f 201/2/6 192/2/6 202/2/6
f 199/2/6 200/2/6 203/2/6
f 189/2/6 199/2/6 203/2/6
f 201/1/6 202/1/6 204/1/6
f 203/2/6 200/2/6 204/2/6
f 200/1/6 201/1/6 204/1/6
f 189/2/6 203/2/6 205/2/6
f 203/1/6 204/1/6 205/1/6
f 204/1/6 202/1/6 206/1/6
f 205/1/6 204/1/6 206/1/6
f 206/1/6 202/1/6 207/1/6
f 202/2/6 192/2/6 208/2/6
f 207/1/6 202/1/6 208/1/6
f 189/2/6 205/2/6 210/2/6
f 205/2/6 206/2/6 210/2/6
f 208/2/6 192/2/6 211/2/6
f 207/2/6 208/2/6 211/2/6
f 209/2/6 210/2/6 213/2/6
f 206/1/6 207/1/6 214/1/6
f 213/2/6 210/2/6 214/2/6
f 210/2/6 206/2/6 214/2/6
f 211/2/6 212/2/6 215/2/6
f 207/2/6 211/2/6 215/2/6
f 215/2/6 212/2/6 216/2/6
f 209/2/6 213/2/6 217/2/6
f 213/1/6 214/1/6 218/1/6
f 217/2/6 213/2/6 218/2/6
f 214/1/6 207/1/6 219/1/6
f 218/1/6 214/1/6 219/1/6
f 207/2/6 215/2/6 219/2/6
f 215/1/6 216/1/6 220/1/6
f 219/2/6 215/2/6 220/2/6
f 216/2/6 212/2/6 221/2/6
f 220/1/6 216/1/6 221/1/6
f 221/2/6 212/2/6 222/2/6
f 209/2/6 217/2/6 223/2/6
f 219/1/6 220/1/6 224/1/6
f 223/2/6 217/2/6 224/2/6
f 217/1/6 218/1/6 224/1/6
f 221/1/6 222/1/6 224/1/6
f 220/1/6 221/1/6 224/1/6
f 218/1/6 219/1/6 224/1/6
f 223/1/6 224/1/6 225/1/6
f 224/1/6 222/1/6 225/1/6
f 225/1/6 222/1/6 226/1/6
f 223/1/6 225/1/6 227/1/6
f 227/1/6 225/1/6 228/1/6
f 228/1/6 225/1/6 229/1/6
f 225/2/6 226/2/6 230/2/6
f 229/1/6 225/1/6 230/1/6
f 226/1/6 222/1/6 231/1/6
f 230/2/6 226/2/6 231/2/6
f 231/1/6 222/1/6 232/1/6
f 223/1/6 227/1/6 233/1/6
f 227/2/6 228/2/6 234/2/6
f 233/1/6 227/1/6 234/1/6
f 228/1/6 229/1/6 235/1/6
f 234/2/6 228/2/6 235/2/6
f 229/2/6 230/2/6 236/2/6
f 235/1/6 229/1/6 236/1/6
f 230/2/6 231/2/6 236/2/6
f 231/2/6 232/2/6 236/2/6
f 232/1/6 222/1/6 237/1/6
f 236/2/6 232/2/6 237/2/6
f 237/1/6 222/1/6 238/1/6
f 234/2/6 235/2/6 239/2/6
f 233/2/6 234/2/6 239/2/6
f 237/2/6 238/2/6 239/2/6
f 236/2/6 237/2/6 239/2/6
f 235/2/6 236/2/6 239/2/6
f 239/2/6 238/2/6 240/2/6
f 241/3/6 242/3/6 245/3/6
f 245/3/6 242/3/6 246/3/6
f 243/3/6 244/3/6 247/3/6
f 247/3/6 244/3/6 248/3/6
f 249/3/6 250/3/6 251/3/6
f 251/3/6 250/3/6 252/3/6
