# MagicaVoxel @ Ephtracy

# group
o 

# material
mtllib portal.mtl
usemtl palette

# normals
vn -1 0 0
vn 1 0 0
vn 0 0 1
vn 0 0 -1
vn 0 -1 0
vn 0 1 0

# texcoords
vt 0.587891 0.5
vt 0.748047 0.5
vt 0.822266 0.5
vt 0.857422 0.5
vt 0.935547 0.5

# verts
v -1.2 0.6 2
v -1.2 0.6 1.8
v -1.2 2.7 2
v -1.2 2.7 1.8
v -1.1 0.8 1.8
v -1.1 0.8 1.5
v -1.1 1.1 1.8
v -1.1 1.1 1.5
v -1.1 1.4 1.8
v -1.1 1.4 1.5
v -1.1 1.7 1.8
v -1.1 1.7 1.5
v -1.1 1.8 1.5
v -1.1 1.8 1.2
v -1.1 1.9 1.8
v -1.1 1.9 1.5
v -1.1 2.1 1.5
v -1.1 2.1 1.2
v -1.1 2.2 1.8
v -1.1 2.2 1.5
v -1 1.2 1.5
v -1 1.2 1.2
v -1 1.4 1.5
v -1 1.5 1.5
v -1 1.5 1.2
v -1 2.2 1.8
v -1 2.2 1.5
v -1 2.3 1.5
v -1 2.3 1.2
v -1 2.5 1.8
v -1 2.5 1.5
v -1 2.6 1.5
v -1 2.6 1.2
v -0.9 1.7 1.8
v -0.9 1.7 1.5
v -0.9 1.8 1.5
v -0.9 1.9 1.8
v -0.9 1.9 1.5
v -0.8 0.9 1.5
v -0.8 0.9 1.2
v -0.8 1.1 1.5
v -0.8 1.2 1.5
v -0.8 1.2 1.2
v -0.8 1.5 1.5
v -0.8 1.5 1.4
v -0.8 1.6 1.5
v -0.8 1.6 1.4
v -0.7 0.6 1.8
v -0.7 0.6 1.5
v -0.7 0.9 1.8
v -0.7 0.9 1.5
v -0.7 1 1.8
v -0.7 1 1.5
v -0.7 1.3 1.8
v -0.7 1.3 1.7
v -0.7 1.3 1.5
v -0.7 1.4 1.8
v -0.7 1.4 1.7
v -0.7 1.5 1.4
v -0.7 1.5 1.2
v -0.7 1.6 1.7
v -0.7 1.6 1.5
v -0.7 1.6 1.4
v -0.7 1.7 1.8
v -0.7 1.7 1.5
v -0.7 1.8 1.5
v -0.7 1.8 1.2
v -0.7 2.1 1.5
v -0.7 2.1 1.2
v -0.7 2.3 1.5
v -0.7 2.3 1.2
v -0.6 1.2 1.5
v -0.6 1.2 1.2
v -0.6 1.3 1.8
v -0.6 1.3 1.7
v -0.6 1.3 1.5
v -0.6 1.3 1.4
v -0.6 1.3 1.2
v -0.6 1.4 1.8
v -0.6 1.4 1.7
v -0.6 2.4 1.8
v -0.6 2.4 1.5
v -0.6 2.5 1.8
v -0.6 2.5 1.5
v -0.5 1.7 1.8
v -0.5 1.7 1.5
v -0.5 1.8 1.5
v -0.5 1.9 1.8
v -0.5 1.9 1.5
v -0.5 2 1.5
v -0.5 2 1.2
v -0.5 2.1 1.8
v -0.5 2.1 1.5
v -0.5 2.1 1.2
v -0.3 0.9 1.8
v -0.3 0.9 1.5
v -0.3 1 1.7
v -0.3 1 1.5
v -0.3 1.2 1.8
v -0.3 1.2 1.7
v -0.3 1.3 1.5
v -0.3 1.3 1.2
v -0.3 1.4 1.6
v -0.3 1.4 1.5
v -0.3 1.4 1.2
v -0.3 1.6 1.6
v -0.3 1.6 1.5
v -0.2 0.8 1.5
v -0.2 0.8 1.2
v -0.2 0.9 1.5
v -0.2 1 1.5
v -0.2 1 1.4
v -0.2 1.1 1.4
v -0.2 1.1 1.2
v -0.2 1.4 1.5
v -0.2 1.4 1.2
v -0.2 1.6 1.5
v -0.2 1.6 1.2
v -0.2 1.7 1.5
v -0.2 1.9 1.5
v -0.2 1.9 1.2
v -0.2 2 1.5
v -0.2 2 1.2
v -0.0999999 2 1.8
v -0.0999999 2 1.5
v -0.0999999 2.2 1.8
v -0.0999999 2.2 1.5
v 1.19209e-07 2.2 1.5
v 1.19209e-07 2.2 1.2
v 1.19209e-07 2.3 1.5
v 1.19209e-07 2.3 1.2
v 1.19209e-07 2.5 1.8
v 1.19209e-07 2.5 1.5
v 1.19209e-07 2.6 1.8
v 1.19209e-07 2.6 1.5
v 0.1 0.6 1.8
v 0.1 0.6 1.5
v 0.1 0.8 1.5
v 0.1 0.9 1.8
v 0.1 0.9 1.5
v 0.1 1.1 1.5
v 0.1 1.2 1.8
v 0.1 1.2 1.5
v 0.1 1.4 1.8
v 0.1 1.4 1.5
v 0.1 1.6 1.5
v 0.1 1.7 1.8
v 0.1 1.7 1.5
v 0.2 1 1.5
v 0.2 1 1.2
v 0.2 1.2 1.5
v 0.2 1.3 1.5
v 0.2 1.3 1.2
v 0.3 1.2 1.8
v 0.3 1.2 1.5
v 0.3 1.3 1.5
v 0.3 1.4 1.8
v 0.3 1.4 1.5
v 0.3 2.1 1.5
v 0.3 2.1 1.2
v 0.3 2.2 1.5
v 0.3 2.2 1.2
v 0.4 1.3 1.5
v 0.4 1.3 1.2
v 0.4 1.5 1.5
v 0.4 1.5 1.2
v 0.5 0.7 1.5
v 0.5 0.7 1.2
v 0.5 1 1.5
v 0.5 1 1.2
v 0.5 1.5 1.8
v 0.5 1.5 1.5
v 0.5 1.7 1.5
v 0.5 1.7 1.2
v 0.5 1.8 1.8
v 0.5 1.8 1.5
v 0.5 2 1.5
v 0.5 2 1.2
v 0.5 2.1 1.8
v 0.5 2.1 1.5
v 0.5 2.2 1.8
v 0.5 2.2 1.5
v 0.5 2.5 1.8
v 0.5 2.5 1.6
v 0.5 2.7 1.8
v 0.5 2.7 1.6
v 0.6 0.6 1.8
v 0.6 0.6 1.5
v 0.6 0.7 1.8
v 0.6 0.7 1.5
v 0.6 1 1.8
v 0.6 1 1.5
v 0.6 1.2 1.8
v 0.6 1.2 1.5
v 0.6 2.4 1.5
v 0.6 2.4 1.3
v 0.6 2.5 1.6
v 0.6 2.5 1.5
v 0.6 2.6 1.6
v 0.6 2.6 1.3
v 0.8 0.9 1.8
v 0.8 0.9 1.7
v 0.8 1 1.8
v 0.8 1 1.7
v 0.8 1.3 1.8
v 0.8 1.3 1.7
v 0.8 1.5 1.8
v 0.8 1.5 1.7
v 0.8 2 1.8
v 0.8 2 1.7
v 0.8 2.1 1.8
v 0.8 2.1 1.7
v -0.8 0.8 1.8
v -0.8 0.8 1.5
v -0.8 0.9 1.5
v -0.8 1.1 1.8
v -0.8 1.1 1.5
v -0.8 1.3 1.7
v -0.8 1.3 1.5
v -0.8 1.4 1.8
v -0.8 1.4 1.7
v -0.8 1.6 1.7
v -0.8 1.6 1.5
v -0.8 1.7 1.8
v -0.8 1.7 1.5
v -0.8 1.8 1.5
v -0.8 1.8 1.2
v -0.8 2 1.8
v -0.8 2 1.5
v -0.8 2.1 1.8
v -0.8 2.1 1.5
v -0.8 2.1 1.2
v -0.7 1.2 1.5
v -0.7 1.2 1.2
v -0.7 1.3 1.5
v -0.7 1.3 1.4
v -0.7 1.5 1.4
v -0.7 1.5 1.2
v -0.7 2.4 1.8
v -0.7 2.4 1.5
v -0.7 2.5 1.8
v -0.7 2.5 1.5
v -0.6 1.7 1.8
v -0.6 1.7 1.5
v -0.6 1.8 1.5
v -0.6 2 1.8
v -0.6 2 1.5
v -0.5 0.9 1.5
v -0.5 0.9 1.2
v -0.5 1 1.5
v -0.5 1 1.2
v -0.5 1.3 1.6
v -0.5 1.3 1.5
v -0.5 1.3 1.4
v -0.5 1.4 1.6
v -0.5 1.4 1.5
v -0.5 1.5 1.5
v -0.5 1.5 1.4
v -0.4 0.6 1.8
v -0.4 0.6 1.5
v -0.4 0.9 1.8
v -0.4 0.9 1.5
v -0.4 1 1.8
v -0.4 1 1.7
v -0.4 1.3 1.8
v -0.4 1.3 1.7
v -0.4 1.4 1.6
v -0.4 1.4 1.5
v -0.4 1.5 1.5
v -0.4 1.5 1.2
v -0.4 1.6 1.6
v -0.4 1.6 1.5
v -0.4 1.8 1.5
v -0.4 1.8 1.2
v -0.3 1 1.4
v -0.3 1 1.2
v -0.3 1.1 1.4
v -0.3 1.1 1.2
v -0.3 1.3 1.8
v -0.3 1.3 1.7
v -0.3 1.3 1.6
v -0.3 1.4 1.8
v -0.3 1.4 1.6
v -0.2 2 1.8
v -0.2 2 1.5
v -0.2 2.2 1.8
v -0.2 2.2 1.5
v -0.2 2.2 1.2
v -0.2 2.3 1.5
v -0.2 2.3 1.2
v -0.0999999 1.2 1.7
v -0.0999999 1.2 1.5
v -0.0999999 1.3 1.7
v -0.0999999 1.3 1.5
v 1.19209e-07 0.9 1.8
v 1.19209e-07 0.9 1.5
v 1.19209e-07 1.1 1.5
v 1.19209e-07 1.1 1.2
v 1.19209e-07 1.2 1.8
v 1.19209e-07 1.2 1.5
v 1.19209e-07 1.3 1.5
v 1.19209e-07 1.3 1.2
v 1.19209e-07 1.4 1.8
v 1.19209e-07 1.4 1.5
v 1.19209e-07 1.6 1.5
v 1.19209e-07 1.7 1.8
v 1.19209e-07 1.7 1.5
v 1.19209e-07 2.5 1.5
v 1.19209e-07 2.5 1.2
v 1.19209e-07 2.6 1.5
v 1.19209e-07 2.6 1.2
v 0.1 0.8 1.5
v 0.1 0.8 1.2
v 0.1 0.9 1.5
v 0.1 1.1 1.5
v 0.1 1.1 1.2
v 0.1 1.3 1.5
v 0.1 1.3 1.2
v 0.1 1.4 1.5
v 0.1 1.5 1.5
v 0.1 1.5 1.2
v 0.1 2.1 1.5
v 0.1 2.1 1.2
v 0.1 2.2 1.5
v 0.1 2.2 1.2
v 0.3 1.8 1.5
v 0.3 1.8 1.2
v 0.3 2.1 1.5
v 0.3 2.1 1.2
v 0.3 2.4 1.5
v 0.3 2.4 1.2
v 0.3 2.5 1.8
v 0.3 2.5 1.5
v 0.3 2.5 1.2
v 0.3 2.6 1.8
v 0.3 2.6 1.5
v 0.4 0.6 1.8
v 0.4 0.6 1.5
v 0.4 0.7 1.8
v 0.4 0.7 1.5
v 0.4 1 1.8
v 0.4 1 1.5
v 0.4 1.2 1.8
v 0.4 1.2 1.5
v 0.4 1.5 1.8
v 0.4 1.5 1.5
v 0.4 1.5 1.2
v 0.4 1.8 1.8
v 0.4 1.8 1.5
v 0.4 1.8 1.2
v 0.4 2.1 1.8
v 0.4 2.1 1.5
v 0.4 2.2 1.8
v 0.4 2.2 1.5
v 0.5 1 1.5
v 0.5 1 1.2
v 0.5 1.2 1.5
v 0.5 1.2 1.2
v 0.6 1.3 1.8
v 0.6 1.3 1.5
v 0.6 1.5 1.8
v 0.6 1.5 1.5
v 0.6 2 1.8
v 0.6 2 1.5
v 0.6 2.1 1.8
v 0.6 2.1 1.5
v 0.6 2.1 1.2
v 0.6 2.3 1.5
v 0.6 2.3 1.3
v 0.6 2.4 1.3
v 0.6 2.4 1.2
v 0.7 0.9 1.8
v 0.7 0.9 1.5
v 0.7 1 1.8
v 0.7 1 1.5
v 0.7 1.2 1.5
v 0.7 1.2 1.2
v 0.7 1.3 1.5
v 0.7 1.5 1.5
v 0.7 1.5 1.2
v 0.8 0.7 1.5
v 0.8 0.7 1.2
v 0.8 0.9 1.5
v 0.8 1 1.5
v 0.8 1 1.2
v 0.8 1.5 1.7
v 0.8 1.5 1.5
v 0.8 1.7 1.7
v 0.8 1.7 1.5
v 0.8 1.7 1.2
v 0.8 2 1.5
v 0.8 2 1.2
v 0.8 2.1 1.7
v 0.8 2.1 1.5
v 0.8 2.3 1.6
v 0.8 2.3 1.5
v 0.8 2.4 1.7
v 0.8 2.4 1.6
v 0.8 2.6 1.6
v 0.8 2.7 1.7
v 0.8 2.7 1.6
v 0.9 0.6 1.7
v 0.9 0.6 1.5
v 0.9 0.9 1.7
v 0.9 0.9 1.5
v 0.9 1 1.7
v 0.9 1 1.5
v 0.9 1.3 1.7
v 0.9 1.3 1.5
v 0.9 1.7 1.7
v 0.9 1.7 1.5
v 0.9 2 1.7
v 0.9 2 1.5
v 0.9 2.3 1.6
v 0.9 2.3 1.3
v 0.9 2.6 1.6
v 0.9 2.6 1.3
v 1 0.6 2
v 1 0.6 1.7
v 1 2.7 2
v 1 2.7 1.7
v -1.2 0.6 2
v -1.2 2.7 2
v 1 0.6 2
v 1 2.7 2
v -0.8 1.3 1.7
v -0.8 1.4 1.7
v -0.8 1.6 1.7
v -0.7 1.3 1.7
v -0.7 1.4 1.7
v -0.7 1.6 1.7
v -0.6 1.3 1.7
v -0.6 1.4 1.7
v -0.4 1 1.7
v -0.4 1.3 1.7
v -0.3 1 1.7
v -0.3 1.2 1.7
v -0.3 1.3 1.7
v -0.0999999 1.2 1.7
v -0.0999999 1.3 1.7
v 0.8 2.3 1.6
v 0.8 2.4 1.6
v 0.8 2.6 1.6
v 0.9 2.3 1.6
v 0.9 2.6 1.6
v -1.1 1.8 1.5
v -1.1 1.9 1.5
v -1 2.5 1.5
v -1 2.6 1.5
v -0.9 1.8 1.5
v -0.9 1.9 1.5
v -0.8 0.9 1.5
v -0.8 1.1 1.5
v -0.8 1.3 1.5
v -0.7 0.9 1.5
v -0.7 1 1.5
v -0.7 1.3 1.5
v -0.7 2.4 1.5
v -0.7 2.5 1.5
v -0.6 1.7 1.5
v -0.6 1.8 1.5
v -0.6 2.4 1.5
v -0.6 2.5 1.5
v -0.5 0.9 1.5
v -0.5 1 1.5
v -0.5 1.7 1.5
v -0.5 1.8 1.5
v -0.5 2.5 1.5
v -0.5 2.6 1.5
v -0.3 1.3 1.5
v -0.3 1.4 1.5
v -0.3 2.5 1.5
v -0.2 0.8 1.5
v -0.2 0.9 1.5
v -0.2 1.3 1.5
v -0.2 1.4 1.5
v -0.2 2 1.5
v -0.2 2.2 1.5
v -0.2 2.5 1.5
v -0.2 2.6 1.5
v -0.0999999 1.2 1.5
v -0.0999999 1.3 1.5
v -0.0999999 2 1.5
v -0.0999999 2.2 1.5
v 1.19209e-07 0.9 1.5
v 1.19209e-07 1.1 1.5
v 1.19209e-07 1.2 1.5
v 1.19209e-07 1.3 1.5
v 1.19209e-07 1.4 1.5
v 1.19209e-07 1.6 1.5
v 1.19209e-07 1.7 1.5
v 1.19209e-07 2.5 1.5
v 1.19209e-07 2.6 1.5
v 0.1 0.8 1.5
v 0.1 0.9 1.5
v 0.1 1.1 1.5
v 0.1 1.3 1.5
v 0.1 1.4 1.5
v 0.1 1.6 1.5
v 0.1 1.7 1.5
v 0.2 1.2 1.5
v 0.2 1.3 1.5
v 0.3 1.2 1.5
v 0.3 1.3 1.5
v 0.4 1 1.5
v 0.4 1.2 1.5
v 0.4 2.1 1.5
v 0.4 2.2 1.5
v 0.5 1 1.5
v 0.5 1.2 1.5
v 0.5 2.1 1.5
v 0.5 2.2 1.5
v 0.6 1.3 1.5
v 0.6 1.5 1.5
v 0.7 0.9 1.5
v 0.7 1 1.5
v 0.7 1.3 1.5
v 0.7 1.5 1.5
v 0.8 0.9 1.5
v 0.8 1 1.5
v -1.2 0.6 1.8
v -1.2 2.7 1.8
v -1.1 0.8 1.8
v -1.1 1.1 1.8
v -1.1 1.4 1.8
v -1.1 1.7 1.8
v -1.1 1.9 1.8
v -1.1 2.2 1.8
v -1 2.2 1.8
v -1 2.5 1.8
v -0.9 1.7 1.8
v -0.9 1.9 1.8
v -0.8 0.8 1.8
v -0.8 1.1 1.8
v -0.8 1.4 1.8
v -0.8 1.7 1.8
v -0.8 2 1.8
v -0.8 2.1 1.8
v -0.7 0.6 1.8
v -0.7 0.9 1.8
v -0.7 1 1.8
v -0.7 1.3 1.8
v -0.7 1.4 1.8
v -0.7 1.7 1.8
v -0.7 2.4 1.8
v -0.7 2.5 1.8
v -0.6 1.3 1.8
v -0.6 1.4 1.8
v -0.6 1.7 1.8
v -0.6 2 1.8
v -0.6 2.4 1.8
v -0.6 2.5 1.8
v -0.5 1.7 1.8
v -0.5 1.9 1.8
v -0.5 2.1 1.8
v -0.4 0.6 1.8
v -0.4 0.9 1.8
v -0.4 1 1.8
v -0.4 1.3 1.8
v -0.3 0.9 1.8
v -0.3 1.2 1.8
v -0.3 1.3 1.8
v -0.3 1.4 1.8
v -0.3 2.5 1.8
v -0.2 2 1.8
v -0.2 2.2 1.8
v -0.0999999 2 1.8
v -0.0999999 2.2 1.8
v 1.19209e-07 0.9 1.8
v 1.19209e-07 1.2 1.8
v 1.19209e-07 1.4 1.8
v 1.19209e-07 1.7 1.8
v 1.19209e-07 2.5 1.8
v 1.19209e-07 2.6 1.8
v 0.1 0.6 1.8
v 0.1 0.9 1.8
v 0.1 1.2 1.8
v 0.1 1.4 1.8
v 0.1 1.7 1.8
v 0.3 1.2 1.8
v 0.3 1.4 1.8
v 0.3 2.5 1.8
v 0.3 2.6 1.8
v 0.4 0.6 1.8
v 0.4 0.7 1.8
v 0.4 1 1.8
v 0.4 1.2 1.8
v 0.4 1.5 1.8
v 0.4 1.8 1.8
v 0.4 2.1 1.8
v 0.4 2.2 1.8
v 0.5 1.5 1.8
v 0.5 1.8 1.8
v 0.5 2.1 1.8
v 0.5 2.2 1.8
v 0.5 2.5 1.8
v 0.5 2.7 1.8
v 0.6 0.6 1.8
v 0.6 0.7 1.8
v 0.6 1 1.8
v 0.6 1.2 1.8
v 0.6 1.3 1.8
v 0.6 1.5 1.8
v 0.6 2 1.8
v 0.6 2.1 1.8
v 0.7 0.9 1.8
v 0.7 1 1.8
v 0.8 0.9 1.8
v 0.8 1 1.8
v 0.8 1.3 1.8
v 0.8 1.5 1.8
v 0.8 2 1.8
v 0.8 2.1 1.8
v 0.8 0.9 1.7
v 0.8 1 1.7
v 0.8 1.3 1.7
v 0.8 1.5 1.7
v 0.8 1.7 1.7
v 0.8 2 1.7
v 0.8 2.1 1.7
v 0.8 2.4 1.7
v 0.8 2.7 1.7
v 0.9 0.6 1.7
v 0.9 0.9 1.7
v 0.9 1 1.7
v 0.9 1.3 1.7
v 0.9 1.7 1.7
v 0.9 2 1.7
v 1 0.6 1.7
v 1 2.7 1.7
v -0.5 1.3 1.6
v -0.5 1.4 1.6
v -0.4 1.3 1.6
v -0.4 1.4 1.6
v -0.4 1.6 1.6
v -0.3 1.3 1.6
v -0.3 1.4 1.6
v -0.3 1.6 1.6
v 0.5 2.5 1.6
v 0.5 2.7 1.6
v 0.6 2.5 1.6
v 0.6 2.6 1.6
v 0.8 2.6 1.6
v 0.8 2.7 1.6
v -1.1 0.8 1.5
v -1.1 1.1 1.5
v -1.1 1.4 1.5
v -1.1 1.7 1.5
v -1.1 2.1 1.5
v -1.1 2.2 1.5
v -1 1.2 1.5
v -1 1.4 1.5
v -1 1.5 1.5
v -1 2.2 1.5
v -1 2.3 1.5
v -0.9 1.7 1.5
v -0.9 1.8 1.5
v -0.8 0.8 1.5
v -0.8 0.9 1.5
v -0.8 1.1 1.5
v -0.8 1.2 1.5
v -0.8 1.5 1.5
v -0.8 1.6 1.5
v -0.8 1.7 1.5
v -0.8 1.8 1.5
v -0.8 2 1.5
v -0.8 2.1 1.5
v -0.8 2.2 1.5
v -0.8 2.3 1.5
v -0.7 0.6 1.5
v -0.7 0.9 1.5
v -0.7 1.2 1.5
v -0.7 1.3 1.5
v -0.7 1.7 1.5
v -0.7 1.8 1.5
v -0.7 2.1 1.5
v -0.7 2.3 1.5
v -0.6 1.2 1.5
v -0.6 1.3 1.5
v -0.6 1.8 1.5
v -0.6 2 1.5
v -0.5 0.9 1.5
v -0.5 1.4 1.5
v -0.5 1.5 1.5
v -0.5 1.8 1.5
v -0.5 1.9 1.5
v -0.5 2 1.5
v -0.4 0.6 1.5
v -0.4 0.9 1.5
v -0.4 1.4 1.5
v -0.4 1.5 1.5
v -0.4 1.6 1.5
v -0.4 1.8 1.5
v -0.3 0.9 1.5
v -0.3 1 1.5
v -0.3 1.4 1.5
v -0.3 1.6 1.5
v -0.3 1.7 1.5
v -0.2 0.9 1.5
v -0.2 1 1.5
v -0.2 1.4 1.5
v -0.2 1.6 1.5
v -0.2 1.7 1.5
v -0.2 1.9 1.5
v -0.2 2 1.5
v -0.2 2.2 1.5
v -0.2 2.3 1.5
v 1.19209e-07 2.2 1.5
v 1.19209e-07 2.3 1.5
v 1.19209e-07 2.5 1.5
v 1.19209e-07 2.6 1.5
v 0.1 0.6 1.5
v 0.1 0.8 1.5
v 0.1 0.9 1.5
v 0.1 1.1 1.5
v 0.1 1.2 1.5
v 0.1 1.4 1.5
v 0.1 1.5 1.5
v 0.1 2.1 1.5
v 0.1 2.2 1.5
v 0.2 1 1.5
v 0.2 1.2 1.5
v 0.3 1.3 1.5
v 0.3 1.4 1.5
v 0.3 1.5 1.5
v 0.3 1.8 1.5
v 0.3 2.1 1.5
v 0.3 2.2 1.5
v 0.3 2.4 1.5
v 0.3 2.5 1.5
v 0.3 2.6 1.5
v 0.4 0.6 1.5
v 0.4 0.7 1.5
v 0.4 0.9 1.5
v 0.4 1 1.5
v 0.4 1.3 1.5
v 0.4 1.5 1.5
v 0.4 1.8 1.5
v 0.5 0.7 1.5
v 0.5 1 1.5
v 0.5 1.5 1.5
v 0.5 1.7 1.5
v 0.5 1.8 1.5
v 0.5 2 1.5
v 0.6 0.6 1.5
v 0.6 0.7 1.5
v 0.6 1 1.5
v 0.6 1.2 1.5
v 0.6 2 1.5
v 0.6 2.1 1.5
v 0.6 2.3 1.5
v 0.6 2.4 1.5
v 0.6 2.5 1.5
v 0.7 1.2 1.5
v 0.7 1.3 1.5
v 0.7 1.5 1.5
v 0.8 0.7 1.5
v 0.8 0.9 1.5
v 0.8 1 1.5
v 0.8 1.5 1.5
v 0.8 1.7 1.5
v 0.8 2 1.5
v 0.8 2.1 1.5
v 0.8 2.3 1.5
v 0.9 0.6 1.5
v 0.9 0.9 1.5
v 0.9 1 1.5
v 0.9 1.3 1.5
v 0.9 1.7 1.5
v 0.9 2 1.5
v -0.8 1.5 1.4
v -0.8 1.6 1.4
v -0.7 1.3 1.4
v -0.7 1.5 1.4
v -0.7 1.6 1.4
v -0.6 1.3 1.4
v -0.5 1.3 1.4
v -0.5 1.5 1.4
v -0.3 1 1.4
v -0.3 1.1 1.4
v -0.2 1 1.4
v -0.2 1.1 1.4
v 0.6 2.3 1.3
v 0.6 2.4 1.3
v 0.6 2.6 1.3
v 0.9 2.3 1.3
v 0.9 2.6 1.3
v -1.1 1.8 1.2
v -1.1 2.1 1.2
v -1 1.2 1.2
v -1 1.5 1.2
v -1 2.3 1.2
v -1 2.6 1.2
v -0.8 0.9 1.2
v -0.8 1.2 1.2
v -0.8 1.8 1.2
v -0.8 2.1 1.2
v -0.7 1.2 1.2
v -0.7 1.5 1.2
v -0.7 1.8 1.2
v -0.7 2.1 1.2
v -0.7 2.3 1.2
v -0.6 1.2 1.2
v -0.6 1.3 1.2
v -0.5 0.9 1.2
v -0.5 1 1.2
v -0.5 2 1.2
v -0.5 2.1 1.2
v -0.5 2.6 1.2
v -0.4 1.5 1.2
v -0.4 1.8 1.2
v -0.3 1 1.2
v -0.3 1.1 1.2
v -0.3 1.3 1.2
v -0.3 1.4 1.2
v -0.2 0.8 1.2
v -0.2 1.1 1.2
v -0.2 1.3 1.2
v -0.2 1.4 1.2
v -0.2 1.6 1.2
v -0.2 1.9 1.2
v -0.2 2 1.2
v -0.2 2.2 1.2
v -0.2 2.3 1.2
v -0.2 2.6 1.2
v 1.19209e-07 1.1 1.2
v 1.19209e-07 1.3 1.2
v 1.19209e-07 2.2 1.2
v 1.19209e-07 2.3 1.2
v 1.19209e-07 2.5 1.2
v 1.19209e-07 2.6 1.2
v 0.1 0.8 1.2
v 0.1 1.1 1.2
v 0.1 1.3 1.2
v 0.1 1.5 1.2
v 0.1 1.6 1.2
v 0.1 1.9 1.2
v 0.1 2.1 1.2
v 0.1 2.2 1.2
v 0.2 1 1.2
v 0.2 1.3 1.2
v 0.3 1.8 1.2
v 0.3 2.1 1.2
v 0.3 2.2 1.2
v 0.3 2.4 1.2
v 0.3 2.5 1.2
v 0.4 1.3 1.2
v 0.4 1.5 1.2
v 0.4 1.8 1.2
v 0.5 0.7 1.2
v 0.5 1 1.2
v 0.5 1.2 1.2
v 0.5 1.3 1.2
v 0.5 1.7 1.2
v 0.5 2 1.2
v 0.6 2.1 1.2
v 0.6 2.4 1.2
v 0.7 1.2 1.2
v 0.7 1.5 1.2
v 0.8 0.7 1.2
v 0.8 1 1.2
v 0.8 1.7 1.2
v 0.8 2 1.2
v -1.2 0.6 2
v 1 0.6 2
v -1.2 0.6 1.8
v -0.7 0.6 1.8
v -0.4 0.6 1.8
v 0.1 0.6 1.8
v 0.4 0.6 1.8
v 0.6 0.6 1.8
v 0.9 0.6 1.8
v 0.9 0.6 1.7
v 1 0.6 1.7
v -0.7 0.6 1.5
v -0.4 0.6 1.5
v 0.1 0.6 1.5
v 0.4 0.6 1.5
v 0.6 0.6 1.5
v 0.9 0.6 1.5
v 0.4 0.7 1.8
v 0.6 0.7 1.8
v 0.4 0.7 1.5
v 0.5 0.7 1.5
v 0.6 0.7 1.5
v 0.8 0.7 1.5
v 0.5 0.7 1.2
v 0.8 0.7 1.2
v -1.1 0.8 1.8
v -0.8 0.8 1.8
v -1.1 0.8 1.5
v -0.8 0.8 1.5
v -0.2 0.8 1.5
v 0.1 0.8 1.5
v -0.2 0.8 1.2
v 0.1 0.8 1.2
v -0.3 0.9 1.8
v 1.19209e-07 0.9 1.8
v -0.8 0.9 1.5
v -0.7 0.9 1.5
v -0.5 0.9 1.5
v -0.3 0.9 1.5
v -0.2 0.9 1.5
v 1.19209e-07 0.9 1.5
v -0.8 0.9 1.2
v -0.5 0.9 1.2
v -0.7 1 1.8
v -0.4 1 1.8
v 0.7 1 1.8
v 0.8 1 1.8
v -0.4 1 1.7
v -0.3 1 1.7
v 0.8 1 1.7
v 0.9 1 1.7
v -0.7 1 1.5
v -0.5 1 1.5
v -0.4 1 1.5
v -0.3 1 1.5
v -0.2 1 1.5
v 0.2 1 1.5
v 0.4 1 1.5
v 0.5 1 1.5
v 0.7 1 1.5
v 0.8 1 1.5
v 0.9 1 1.5
v -0.3 1 1.4
v -0.2 1 1.4
v -0.5 1 1.2
v -0.3 1 1.2
v 0.2 1 1.2
v 0.5 1 1.2
v -0.3 1.1 1.4
v -0.2 1.1 1.4
v -0.3 1.1 1.2
v -0.2 1.1 1.2
v 0.4 1.2 1.8
v 0.6 1.2 1.8
v -1 1.2 1.5
v -0.8 1.2 1.5
v 0.4 1.2 1.5
v 0.5 1.2 1.5
v 0.6 1.2 1.5
v 0.7 1.2 1.5
v -1 1.2 1.2
v -0.8 1.2 1.2
v 0.5 1.2 1.2
v 0.7 1.2 1.2
v -0.4 1.3 1.8
v -0.3 1.3 1.8
v -0.8 1.3 1.7
v -0.7 1.3 1.7
v -0.4 1.3 1.7
v -0.3 1.3 1.7
v -0.8 1.3 1.5
v -0.7 1.3 1.5
v -0.6 1.3 1.5
v 1.19209e-07 1.3 1.5
v 0.1 1.3 1.5
v -0.7 1.3 1.4
v -0.6 1.3 1.4
v 1.19209e-07 1.3 1.2
v 0.1 1.3 1.2
v -0.7 1.4 1.8
v -0.6 1.4 1.8
v -0.3 1.4 1.8
v 1.19209e-07 1.4 1.8
v 0.1 1.4 1.8
v 0.3 1.4 1.8
v -0.7 1.4 1.7
v -0.6 1.4 1.7
v -0.5 1.4 1.6
v -0.4 1.4 1.6
v -0.3 1.4 1.6
v -0.5 1.4 1.5
v -0.4 1.4 1.5
v -0.3 1.4 1.5
v -0.2 1.4 1.5
v 1.19209e-07 1.4 1.5
v 0.1 1.4 1.5
v 0.3 1.4 1.5
v 0.6 1.5 1.8
v 0.8 1.5 1.8
v 0.8 1.5 1.7
v -0.5 1.5 1.5
v -0.4 1.5 1.5
v 0.1 1.5 1.5
v 0.3 1.5 1.5
v 0.4 1.5 1.5
v 0.6 1.5 1.5
v 0.7 1.5 1.5
v 0.8 1.5 1.5
v -0.7 1.5 1.4
v -0.5 1.5 1.4
v -0.7 1.5 1.2
v -0.4 1.5 1.2
v 0.1 1.5 1.2
v 0.4 1.5 1.2
v -0.4 1.6 1.6
v -0.3 1.6 1.6
v -0.4 1.6 1.5
v -0.3 1.6 1.5
v -0.8 1.7 1.8
v -0.7 1.7 1.8
v 1.19209e-07 1.7 1.8
v 0.1 1.7 1.8
v 0.8 1.7 1.7
v 0.9 1.7 1.7
v -0.8 1.7 1.5
v -0.7 1.7 1.5
v 1.19209e-07 1.7 1.5
v 0.1 1.7 1.5
v 0.5 1.7 1.5
v 0.8 1.7 1.5
v 0.9 1.7 1.5
v 0.5 1.7 1.2
v 0.8 1.7 1.2
v 0.4 1.8 1.8
v 0.5 1.8 1.8
v -1.1 1.8 1.5
v -0.9 1.8 1.5
v -0.8 1.8 1.5
v 0.4 1.8 1.5
v 0.5 1.8 1.5
v -1.1 1.8 1.2
v -0.8 1.8 1.2
v -1.1 1.9 1.8
v -0.9 1.9 1.8
v -1.1 1.9 1.5
v -0.9 1.9 1.5
v -0.5 2 1.5
v -0.2 2 1.5
v -0.5 2 1.2
v -0.2 2 1.2
v -0.8 2.1 1.8
v -0.5 2.1 1.8
v 0.6 2.1 1.8
v 0.8 2.1 1.8
v 0.8 2.1 1.7
v -0.8 2.1 1.5
v -0.7 2.1 1.5
v -0.5 2.1 1.5
v 0.3 2.1 1.5
v 0.6 2.1 1.5
v 0.8 2.1 1.5
v -0.7 2.1 1.2
v -0.5 2.1 1.2
v 0.3 2.1 1.2
v 0.6 2.1 1.2
v -0.2 2.2 1.8
v -0.0999999 2.2 1.8
v 0.4 2.2 1.8
v 0.5 2.2 1.8
v -0.2 2.2 1.5
v -0.0999999 2.2 1.5
v 0.1 2.2 1.5
v 0.3 2.2 1.5
v 0.4 2.2 1.5
v 0.5 2.2 1.5
v 0.1 2.2 1.2
v 0.3 2.2 1.2
v 0.8 2.3 1.6
v 0.9 2.3 1.6
v -1 2.3 1.5
v -0.8 2.3 1.5
v -0.7 2.3 1.5
v -0.2 2.3 1.5
v 1.19209e-07 2.3 1.5
v 0.6 2.3 1.5
v 0.8 2.3 1.5
v 0.6 2.3 1.3
v 0.9 2.3 1.3
v -1 2.3 1.2
v -0.7 2.3 1.2
v -0.2 2.3 1.2
v 1.19209e-07 2.3 1.2
v -0.7 0.9 1.8
v -0.4 0.9 1.8
v 0.7 0.9 1.8
v 0.8 0.9 1.8
v 0.8 0.9 1.7
v 0.9 0.9 1.7
v -0.7 0.9 1.5
v -0.5 0.9 1.5
v -0.4 0.9 1.5
v 0.7 0.9 1.5
v 0.8 0.9 1.5
v 0.9 0.9 1.5
v 0.4 1 1.8
v 0.6 1 1.8
v 0.4 1 1.5
v 0.5 1 1.5
v 0.6 1 1.5
v 0.8 1 1.5
v 0.5 1 1.2
v 0.8 1 1.2
v 1.19209e-07 1.1 1.5
v 0.1 1.1 1.5
v 1.19209e-07 1.1 1.2
v 0.1 1.1 1.2
v -0.3 1.2 1.8
v 1.19209e-07 1.2 1.8
v 0.1 1.2 1.8
v 0.3 1.2 1.8
v -0.3 1.2 1.7
v -0.0999999 1.2 1.7
v -0.7 1.2 1.5
v -0.6 1.2 1.5
v -0.0999999 1.2 1.5
v 1.19209e-07 1.2 1.5
v 0.1 1.2 1.5
v 0.2 1.2 1.5
v 0.3 1.2 1.5
v -0.7 1.2 1.2
v -0.6 1.2 1.2
v -0.7 1.3 1.8
v -0.6 1.3 1.8
v 0.6 1.3 1.8
v 0.8 1.3 1.8
v -0.7 1.3 1.7
v -0.6 1.3 1.7
v -0.3 1.3 1.7
v -0.0999999 1.3 1.7
v 0.8 1.3 1.7
v 0.9 1.3 1.7
v -0.5 1.3 1.6
v -0.4 1.3 1.6
v -0.3 1.3 1.6
v -0.5 1.3 1.5
v -0.4 1.3 1.5
v -0.3 1.3 1.5
v -0.2 1.3 1.5
v -0.0999999 1.3 1.5
v 0.2 1.3 1.5
v 0.3 1.3 1.5
v 0.4 1.3 1.5
v 0.6 1.3 1.5
v 0.7 1.3 1.5
v 0.9 1.3 1.5
v -0.6 1.3 1.4
v -0.5 1.3 1.4
v -0.6 1.3 1.2
v -0.3 1.3 1.2
v 0.2 1.3 1.2
v 0.4 1.3 1.2
v -0.3 1.4 1.5
v -0.2 1.4 1.5
v -0.3 1.4 1.2
v -0.2 1.4 1.2
v 0.4 1.5 1.8
v 0.5 1.5 1.8
v -1 1.5 1.5
v -0.8 1.5 1.5
v 0.4 1.5 1.5
v 0.5 1.5 1.5
v 0.7 1.5 1.5
v -0.8 1.5 1.4
v -0.7 1.5 1.4
v -1 1.5 1.2
v -0.7 1.5 1.2
v 0.4 1.5 1.2
v 0.7 1.5 1.2
v -0.8 1.6 1.7
v -0.7 1.6 1.7
v -0.8 1.6 1.5
v -0.7 1.6 1.5
v -0.8 1.6 1.4
v -0.7 1.6 1.4
v -1.1 1.7 1.8
v -0.9 1.7 1.8
v -0.6 1.7 1.8
v -0.5 1.7 1.8
v -1.1 1.7 1.5
v -0.9 1.7 1.5
v -0.6 1.7 1.5
v -0.5 1.7 1.5
v -0.7 1.8 1.5
v -0.6 1.8 1.5
v -0.5 1.8 1.5
v -0.4 1.8 1.5
v 0.3 1.8 1.5
v 0.4 1.8 1.5
v -0.7 1.8 1.2
v -0.4 1.8 1.2
v 0.3 1.8 1.2
v 0.4 1.8 1.2
v -0.8 2 1.8
v -0.6 2 1.8
v -0.2 2 1.8
v -0.0999999 2 1.8
v 0.6 2 1.8
v 0.8 2 1.8
v 0.8 2 1.7
v 0.9 2 1.7
v -0.8 2 1.5
v -0.6 2 1.5
v -0.2 2 1.5
v -0.0999999 2 1.5
v 0.5 2 1.5
v 0.6 2 1.5
v 0.8 2 1.5
v 0.9 2 1.5
v 0.5 2 1.2
v 0.8 2 1.2
v 0.4 2.1 1.8
v 0.5 2.1 1.8
v -1.1 2.1 1.5
v -0.8 2.1 1.5
v 0.1 2.1 1.5
v 0.3 2.1 1.5
v 0.4 2.1 1.5
v 0.5 2.1 1.5
v -1.1 2.1 1.2
v -0.8 2.1 1.2
v 0.1 2.1 1.2
v 0.3 2.1 1.2
v -1.1 2.2 1.8
v -1 2.2 1.8
v -1.1 2.2 1.5
v -1 2.2 1.5
v -0.2 2.2 1.5
v 1.19209e-07 2.2 1.5
v -0.2 2.2 1.2
v 1.19209e-07 2.2 1.2
v -0.7 2.4 1.8
v -0.6 2.4 1.8
v -0.7 2.4 1.5
v -0.6 2.4 1.5
v 0.3 2.4 1.5
v 0.6 2.4 1.5
v 0.6 2.4 1.3
v 0.3 2.4 1.2
v 0.6 2.4 1.2
v -1 2.5 1.8
v -0.7 2.5 1.8
v -0.6 2.5 1.8
v -0.3 2.5 1.8
v 1.19209e-07 2.5 1.8
v 0.3 2.5 1.8
v 0.5 2.5 1.8
v 0.5 2.5 1.6
v 0.6 2.5 1.6
v -1 2.5 1.5
v -0.7 2.5 1.5
v -0.6 2.5 1.5
v -0.5 2.5 1.5
v -0.3 2.5 1.5
v -0.2 2.5 1.5
v 1.19209e-07 2.5 1.5
v 0.3 2.5 1.5
v 0.6 2.5 1.5
v 1.19209e-07 2.5 1.2
v 0.3 2.5 1.2
v 1.19209e-07 2.6 1.8
v 0.3 2.6 1.8
v 0.6 2.6 1.6
v 0.8 2.6 1.6
v 0.9 2.6 1.6
v -1 2.6 1.5
v -0.5 2.6 1.5
v -0.2 2.6 1.5
v 1.19209e-07 2.6 1.5
v 0.3 2.6 1.5
v 0.6 2.6 1.3
v 0.9 2.6 1.3
v -1 2.6 1.2
v -0.5 2.6 1.2
v -0.2 2.6 1.2
v 1.19209e-07 2.6 1.2
v -1.2 2.7 2
v 1 2.7 2
v 0.5 2.7 1.9
v 0.8 2.7 1.9
v -1.2 2.7 1.8
v 0.5 2.7 1.8
v 0.8 2.7 1.7
v 1 2.7 1.7
v 0.5 2.7 1.6
v 0.8 2.7 1.6

# faces
f 3/5/1 2/5/1 1/5/1
f 4/5/1 2/5/1 3/5/1
f 7/2/1 6/2/1 5/2/1
f 8/2/1 6/2/1 7/2/1
f 9/1/1 8/1/1 7/1/1
f 10/1/1 8/1/1 9/1/1
f 11/3/1 10/3/1 9/3/1
f 12/3/1 10/3/1 11/3/1
f 16/4/1 14/4/1 13/4/1
f 17/4/1 14/4/1 16/4/1
f 17/1/1 16/1/1 15/1/1
f 18/4/1 14/4/1 17/4/1
f 19/1/1 17/1/1 15/1/1
f 20/1/1 17/1/1 19/1/1
f 23/4/1 22/4/1 21/4/1
f 24/4/1 22/4/1 23/4/1
f 25/4/1 22/4/1 24/4/1
f 28/3/1 27/3/1 26/3/1
f 30/3/1 28/3/1 26/3/1
f 31/4/1 29/4/1 28/4/1
f 31/3/1 28/3/1 30/3/1
f 32/4/1 29/4/1 31/4/1
f 33/4/1 29/4/1 32/4/1
f 36/3/1 35/3/1 34/3/1
f 37/3/1 36/3/1 34/3/1
f 38/3/1 36/3/1 37/3/1
f 41/4/1 40/4/1 39/4/1
f 42/4/1 40/4/1 41/4/1
f 43/4/1 40/4/1 42/4/1
f 46/4/1 45/4/1 44/4/1
f 47/4/1 45/4/1 46/4/1
f 50/2/1 49/2/1 48/2/1
f 51/2/1 49/2/1 50/2/1
f 54/3/1 53/3/1 52/3/1
f 55/3/1 53/3/1 54/3/1
f 56/3/1 53/3/1 55/3/1
f 61/2/1 58/2/1 57/2/1
f 63/4/1 60/4/1 59/4/1
f 64/2/1 62/2/1 61/2/1
f 64/2/1 61/2/1 57/2/1
f 65/4/1 63/4/1 62/4/1
f 65/2/1 62/2/1 64/2/1
f 66/4/1 63/4/1 65/4/1
f 67/4/1 60/4/1 63/4/1
f 67/4/1 63/4/1 66/4/1
f 70/4/1 69/4/1 68/4/1
f 71/4/1 69/4/1 70/4/1
f 76/4/1 73/4/1 72/4/1
f 77/4/1 73/4/1 76/4/1
f 78/4/1 73/4/1 77/4/1
f 79/1/1 75/1/1 74/1/1
f 80/1/1 75/1/1 79/1/1
f 83/1/1 82/1/1 81/1/1
f 84/1/1 82/1/1 83/1/1
f 87/1/1 86/1/1 85/1/1
f 88/1/1 87/1/1 85/1/1
f 89/1/1 87/1/1 88/1/1
f 90/3/1 89/3/1 88/3/1
f 92/3/1 90/3/1 88/3/1
f 93/1/1 91/1/1 90/1/1
f 93/3/1 90/3/1 92/3/1
f 94/1/1 91/1/1 93/1/1
f 97/2/1 96/2/1 95/2/1
f 98/2/1 96/2/1 97/2/1
f 99/2/1 97/2/1 95/2/1
f 100/2/1 97/2/1 99/2/1
f 104/4/1 102/4/1 101/4/1
f 105/4/1 102/4/1 104/4/1
f 106/2/1 104/2/1 103/2/1
f 107/2/1 104/2/1 106/2/1
f 110/1/1 109/1/1 108/1/1
f 111/1/1 109/1/1 110/1/1
f 112/1/1 109/1/1 111/1/1
f 113/1/1 109/1/1 112/1/1
f 114/1/1 109/1/1 113/1/1
f 117/1/1 116/1/1 115/1/1
f 118/1/1 116/1/1 117/1/1
f 119/4/1 118/4/1 117/4/1
f 120/4/1 118/4/1 119/4/1
f 121/4/1 118/4/1 120/4/1
f 122/1/1 121/1/1 120/1/1
f 123/1/1 121/1/1 122/1/1
f 126/1/1 125/1/1 124/1/1
f 127/1/1 125/1/1 126/1/1
f 130/1/1 129/1/1 128/1/1
f 131/1/1 129/1/1 130/1/1
f 134/3/1 133/3/1 132/3/1
f 135/3/1 133/3/1 134/3/1
f 138/4/1 137/4/1 136/4/1
f 139/4/1 138/4/1 136/4/1
f 140/4/1 138/4/1 139/4/1
f 141/3/1 140/3/1 139/3/1
f 142/3/1 141/3/1 139/3/1
f 143/3/1 141/3/1 142/3/1
f 146/1/1 145/1/1 144/1/1
f 147/1/1 146/1/1 144/1/1
f 148/1/1 146/1/1 147/1/1
f 151/1/1 150/1/1 149/1/1
f 152/1/1 150/1/1 151/1/1
f 153/1/1 150/1/1 152/1/1
f 156/2/1 155/2/1 154/2/1
f 157/2/1 156/2/1 154/2/1
f 158/2/1 156/2/1 157/2/1
f 161/4/1 160/4/1 159/4/1
f 162/4/1 160/4/1 161/4/1
f 165/4/1 164/4/1 163/4/1
f 166/4/1 164/4/1 165/4/1
f 169/4/1 168/4/1 167/4/1
f 170/4/1 168/4/1 169/4/1
f 173/3/1 172/3/1 171/3/1
f 175/3/1 173/3/1 171/3/1
f 176/4/1 174/4/1 173/4/1
f 176/3/1 173/3/1 175/3/1
f 177/4/1 174/4/1 176/4/1
f 178/4/1 174/4/1 177/4/1
f 181/3/1 180/3/1 179/3/1
f 182/3/1 180/3/1 181/3/1
f 185/1/1 184/1/1 183/1/1
f 186/1/1 184/1/1 185/1/1
f 189/1/1 188/1/1 187/1/1
f 190/1/1 188/1/1 189/1/1
f 193/1/1 192/1/1 191/1/1
f 194/1/1 192/1/1 193/1/1
f 198/4/1 196/4/1 195/4/1
f 199/4/1 198/4/1 197/4/1
f 200/4/1 196/4/1 198/4/1
f 200/4/1 198/4/1 199/4/1
f 203/5/1 202/5/1 201/5/1
f 204/5/1 202/5/1 203/5/1
f 207/5/1 206/5/1 205/5/1
f 208/5/1 206/5/1 207/5/1
f 211/5/1 210/5/1 209/5/1
f 212/5/1 210/5/1 211/5/1
f 213/2/2 214/2/2 215/2/2
f 213/2/2 215/2/2 216/2/2
f 216/2/2 215/2/2 217/2/2
f 216/1/2 217/1/2 218/1/2
f 218/1/2 217/1/2 219/1/2
f 216/1/2 218/1/2 220/1/2
f 220/1/2 218/1/2 221/1/2
f 220/3/2 221/3/2 222/3/2
f 220/3/2 222/3/2 224/3/2
f 222/3/2 223/3/2 224/3/2
f 224/3/2 223/3/2 225/3/2
f 226/4/2 227/4/2 229/4/2
f 228/1/2 229/1/2 230/1/2
f 229/4/2 227/4/2 231/4/2
f 230/1/2 229/1/2 231/1/2
f 231/4/2 227/4/2 232/4/2
f 233/4/2 234/4/2 235/4/2
f 235/4/2 234/4/2 236/4/2
f 236/4/2 234/4/2 237/4/2
f 237/4/2 234/4/2 238/4/2
f 239/3/2 240/3/2 241/3/2
f 241/3/2 240/3/2 242/3/2
f 243/3/2 244/3/2 245/3/2
f 243/3/2 245/3/2 246/3/2
f 246/3/2 245/3/2 247/3/2
f 248/4/2 249/4/2 250/4/2
f 250/4/2 249/4/2 251/4/2
f 252/4/2 253/4/2 255/4/2
f 253/4/2 254/4/2 255/4/2
f 255/4/2 254/4/2 256/4/2
f 256/4/2 254/4/2 257/4/2
f 257/4/2 254/4/2 258/4/2
f 259/2/2 260/2/2 261/2/2
f 261/2/2 260/2/2 262/2/2
f 263/3/2 264/3/2 265/3/2
f 265/3/2 264/3/2 266/3/2
f 267/2/2 268/2/2 269/2/2
f 267/2/2 269/2/2 271/2/2
f 269/4/2 270/4/2 272/4/2
f 271/2/2 269/2/2 272/2/2
f 272/4/2 270/4/2 273/4/2
f 273/4/2 270/4/2 274/4/2
f 275/4/2 276/4/2 277/4/2
f 277/4/2 276/4/2 278/4/2
f 279/1/2 280/1/2 282/1/2
f 280/1/2 281/1/2 282/1/2
f 282/1/2 281/1/2 283/1/2
f 284/3/2 285/3/2 286/3/2
f 286/3/2 285/3/2 287/3/2
f 287/1/2 288/1/2 289/1/2
f 289/1/2 288/1/2 290/1/2
f 291/4/2 292/4/2 293/4/2
f 293/4/2 292/4/2 294/4/2
f 295/2/2 296/2/2 297/2/2
f 295/2/2 297/2/2 299/2/2
f 297/4/2 298/4/2 300/4/2
f 299/2/2 297/2/2 300/2/2
f 300/4/2 298/4/2 301/4/2
f 301/4/2 298/4/2 302/4/2
f 303/2/2 304/2/2 305/2/2
f 303/2/2 305/2/2 306/2/2
f 306/2/2 305/2/2 307/2/2
f 308/4/2 309/4/2 310/4/2
f 310/4/2 309/4/2 311/4/2
f 312/1/2 313/1/2 314/1/2
f 314/1/2 313/1/2 315/1/2
f 315/1/2 313/1/2 316/1/2
f 317/1/2 318/1/2 319/1/2
f 319/1/2 318/1/2 320/1/2
f 320/1/2 318/1/2 321/1/2
f 322/1/2 323/1/2 324/1/2
f 324/1/2 323/1/2 325/1/2
f 326/4/2 327/4/2 328/4/2
f 328/4/2 327/4/2 329/4/2
f 330/1/2 331/1/2 333/1/2
f 333/1/2 331/1/2 334/1/2
f 332/3/2 333/3/2 335/3/2
f 335/3/2 333/3/2 336/3/2
f 337/4/2 338/4/2 339/4/2
f 339/4/2 338/4/2 340/4/2
f 341/3/2 342/3/2 343/3/2
f 343/3/2 342/3/2 344/3/2
f 345/1/2 346/1/2 348/1/2
f 346/4/2 347/4/2 349/4/2
f 348/1/2 346/1/2 349/1/2
f 349/4/2 347/4/2 350/4/2
f 351/3/2 352/3/2 353/3/2
f 353/3/2 352/3/2 354/3/2
f 355/1/2 356/1/2 357/1/2
f 357/1/2 356/1/2 358/1/2
f 359/2/2 360/2/2 361/2/2
f 361/2/2 360/2/2 362/2/2
f 363/2/2 364/2/2 365/2/2
f 365/2/2 364/2/2 366/2/2
f 366/4/2 367/4/2 368/4/2
f 368/4/2 367/4/2 369/4/2
f 369/4/2 367/4/2 370/4/2
f 370/4/2 367/4/2 371/4/2
f 372/2/2 373/2/2 374/2/2
f 374/2/2 373/2/2 375/2/2
f 376/4/2 377/4/2 378/4/2
f 378/4/2 377/4/2 379/4/2
f 379/4/2 377/4/2 380/4/2
f 381/4/2 382/4/2 383/4/2
f 383/4/2 382/4/2 384/4/2
f 384/4/2 382/4/2 385/4/2
f 386/3/2 387/3/2 388/3/2
f 388/3/2 387/3/2 389/3/2
f 389/4/2 390/4/2 391/4/2
f 391/4/2 390/4/2 392/4/2
f 393/3/2 394/3/2 395/3/2
f 395/3/2 394/3/2 396/3/2
f 393/3/2 395/3/2 397/3/2
f 397/3/2 395/3/2 398/3/2
f 397/1/2 398/1/2 399/1/2
f 397/1/2 399/1/2 400/1/2
f 400/1/2 399/1/2 401/1/2
f 402/1/2 403/1/2 404/1/2
f 404/1/2 403/1/2 405/1/2
f 406/1/2 407/1/2 408/1/2
f 408/1/2 407/1/2 409/1/2
f 410/1/2 411/1/2 412/1/2
f 412/1/2 411/1/2 413/1/2
f 414/4/2 415/4/2 416/4/2
f 416/4/2 415/4/2 417/4/2
f 418/5/2 419/5/2 420/5/2
f 420/5/2 419/5/2 421/5/2
f 424/5/3 423/5/3 422/5/3
f 425/5/3 423/5/3 424/5/3
f 429/4/3 427/4/3 426/4/3
f 429/4/3 428/4/3 427/4/3
f 430/4/3 428/4/3 429/4/3
f 431/4/3 428/4/3 430/4/3
f 432/4/3 430/4/3 429/4/3
f 433/4/3 430/4/3 432/4/3
f 436/4/3 435/4/3 434/4/3
f 437/4/3 435/4/3 436/4/3
f 438/4/3 435/4/3 437/4/3
f 439/4/3 438/4/3 437/4/3
f 440/4/3 438/4/3 439/4/3
f 444/4/3 442/4/3 441/4/3
f 444/4/3 443/4/3 442/4/3
f 445/4/3 443/4/3 444/4/3
f 450/4/3 447/4/3 446/4/3
f 451/4/3 447/4/3 450/4/3
f 455/4/3 453/4/3 452/4/3
f 455/4/3 454/4/3 453/4/3
f 456/4/3 454/4/3 455/4/3
f 457/4/3 454/4/3 456/4/3
f 459/4/3 449/4/3 448/4/3
f 462/4/3 459/4/3 458/4/3
f 463/4/3 449/4/3 459/4/3
f 463/4/3 459/4/3 462/4/3
f 464/4/3 456/4/3 455/4/3
f 465/4/3 456/4/3 464/4/3
f 466/4/3 461/4/3 460/4/3
f 467/4/3 461/4/3 466/4/3
f 468/4/3 449/4/3 463/4/3
f 469/4/3 449/4/3 468/4/3
f 472/1/3 469/1/3 468/1/3
f 475/4/3 471/4/3 470/4/3
f 476/4/3 471/4/3 475/4/3
f 479/1/3 469/1/3 472/1/3
f 480/1/3 469/1/3 479/1/3
f 482/1/3 476/1/3 475/1/3
f 483/1/3 478/1/3 477/1/3
f 484/1/3 478/1/3 483/1/3
f 485/1/3 474/1/3 473/1/3
f 487/4/3 482/4/3 481/4/3
f 488/1/3 476/1/3 482/1/3
f 488/4/3 482/4/3 487/4/3
f 489/1/3 476/1/3 488/1/3
f 492/4/3 480/4/3 479/4/3
f 493/4/3 480/4/3 492/4/3
f 494/1/3 486/1/3 485/1/3
f 494/1/3 485/1/3 473/1/3
f 495/1/3 486/1/3 494/1/3
f 496/1/3 486/1/3 495/1/3
f 497/1/3 490/1/3 489/1/3
f 497/1/3 489/1/3 488/1/3
f 498/1/3 490/1/3 497/1/3
f 499/4/3 491/4/3 490/4/3
f 499/1/3 490/1/3 498/1/3
f 500/4/3 491/4/3 499/4/3
f 503/1/3 502/1/3 501/1/3
f 504/1/3 502/1/3 503/1/3
f 509/1/3 506/1/3 505/1/3
f 510/1/3 506/1/3 509/1/3
f 511/4/3 508/4/3 507/4/3
f 512/4/3 508/4/3 511/4/3
f 517/4/3 514/4/3 513/4/3
f 518/4/3 514/4/3 517/4/3
f 519/4/3 516/4/3 515/4/3
f 520/4/3 516/4/3 519/4/3
f 521/5/4 522/5/4 523/5/4
f 523/5/4 522/5/4 524/5/4
f 524/5/4 522/5/4 525/5/4
f 525/5/4 522/5/4 526/5/4
f 526/5/4 522/5/4 527/5/4
f 527/5/4 522/5/4 528/5/4
f 528/5/4 522/5/4 529/5/4
f 529/5/4 522/5/4 530/5/4
f 526/5/4 527/5/4 531/5/4
f 531/5/4 527/5/4 532/5/4
f 521/5/4 523/5/4 533/5/4
f 535/5/4 536/5/4 539/5/4
f 521/5/4 533/5/4 539/5/4
f 534/5/4 535/5/4 539/5/4
f 533/5/4 534/5/4 539/5/4
f 539/5/4 536/5/4 540/5/4
f 540/5/4 536/5/4 541/5/4
f 541/5/4 536/5/4 542/5/4
f 542/5/4 536/5/4 543/5/4
f 543/5/4 536/5/4 544/5/4
f 530/5/4 522/5/4 546/5/4
f 542/5/4 543/5/4 547/5/4
f 547/5/4 543/5/4 548/5/4
f 537/5/4 538/5/4 550/5/4
f 545/5/4 546/5/4 551/5/4
f 546/5/4 522/5/4 552/5/4
f 551/5/4 546/5/4 552/5/4
f 549/5/4 550/5/4 553/5/4
f 553/5/4 550/5/4 554/5/4
f 550/5/4 538/5/4 555/5/4
f 554/5/4 550/5/4 555/5/4
f 540/5/4 541/5/4 557/5/4
f 557/5/4 541/5/4 558/5/4
f 556/5/4 557/5/4 560/5/4
f 558/5/4 559/5/4 560/5/4
f 557/5/4 558/5/4 560/5/4
f 560/5/4 559/5/4 561/5/4
f 561/5/4 559/5/4 562/5/4
f 552/5/4 522/5/4 564/5/4
f 565/5/4 566/5/4 567/5/4
f 567/5/4 566/5/4 568/5/4
f 556/5/4 560/5/4 569/5/4
f 562/5/4 563/5/4 570/5/4
f 561/5/4 562/5/4 570/5/4
f 570/5/4 563/5/4 571/5/4
f 564/5/4 522/5/4 573/5/4
f 573/5/4 522/5/4 574/5/4
f 556/5/4 569/5/4 575/5/4
f 571/5/4 572/5/4 575/5/4
f 570/5/4 571/5/4 575/5/4
f 569/5/4 570/5/4 575/5/4
f 575/5/4 572/5/4 576/5/4
f 576/5/4 572/5/4 577/5/4
f 577/5/4 572/5/4 578/5/4
f 578/5/4 572/5/4 579/5/4
f 577/5/4 578/5/4 580/5/4
f 580/5/4 578/5/4 581/5/4
f 574/5/4 522/5/4 583/5/4
f 588/5/4 589/5/4 592/5/4
f 592/5/4 589/5/4 593/5/4
f 590/5/4 591/5/4 594/5/4
f 594/5/4 591/5/4 595/5/4
f 582/5/4 583/5/4 596/5/4
f 583/5/4 522/5/4 597/5/4
f 596/5/4 583/5/4 597/5/4
f 584/5/4 585/5/4 598/5/4
f 598/5/4 585/5/4 599/5/4
f 586/5/4 587/5/4 600/5/4
f 600/5/4 587/5/4 601/5/4
f 606/5/4 607/5/4 608/5/4
f 608/5/4 607/5/4 609/5/4
f 602/5/4 603/5/4 610/5/4
f 610/5/4 603/5/4 611/5/4
f 604/5/4 605/5/4 612/5/4
f 612/5/4 605/5/4 613/5/4
f 614/5/4 615/5/4 624/5/4
f 624/5/4 615/5/4 625/5/4
f 616/5/4 617/5/4 626/5/4
f 617/5/4 618/5/4 626/5/4
f 626/5/4 618/5/4 627/5/4
f 621/5/4 622/5/4 628/5/4
f 619/5/4 620/5/4 628/5/4
f 620/5/4 621/5/4 628/5/4
f 626/5/4 627/5/4 629/5/4
f 627/5/4 628/5/4 629/5/4
f 624/5/4 625/5/4 629/5/4
f 623/5/4 624/5/4 629/5/4
f 625/5/4 626/5/4 629/5/4
f 628/5/4 622/5/4 630/5/4
f 629/5/4 628/5/4 630/5/4
f 631/1/4 632/1/4 633/1/4
f 633/1/4 632/1/4 634/1/4
f 633/1/4 634/1/4 636/1/4
f 634/1/4 635/1/4 636/1/4
f 636/1/4 635/1/4 637/1/4
f 637/1/4 635/1/4 638/1/4
f 639/1/4 640/1/4 641/1/4
f 641/1/4 640/1/4 642/1/4
f 642/1/4 640/1/4 643/1/4
f 643/1/4 640/1/4 644/1/4
f 646/1/4 647/1/4 651/1/4
f 647/3/4 648/3/4 652/3/4
f 651/1/4 647/1/4 652/1/4
f 652/3/4 648/3/4 653/3/4
f 649/1/4 650/1/4 654/1/4
f 653/3/4 648/3/4 656/3/4
f 645/2/4 646/2/4 658/2/4
f 658/2/4 646/2/4 659/2/4
f 646/1/4 651/1/4 660/1/4
f 659/2/4 646/2/4 660/2/4
f 660/1/4 651/1/4 661/1/4
f 656/3/4 657/3/4 662/3/4
f 653/3/4 656/3/4 662/3/4
f 662/3/4 657/3/4 663/3/4
f 663/3/4 657/3/4 664/3/4
f 664/3/4 657/3/4 665/3/4
f 649/1/4 654/1/4 667/1/4
f 654/3/4 655/3/4 668/3/4
f 667/1/4 654/1/4 668/1/4
f 668/3/4 655/3/4 669/3/4
f 665/3/4 666/3/4 674/3/4
f 664/3/4 665/3/4 674/3/4
f 674/3/4 666/3/4 675/3/4
f 668/2/4 669/2/4 676/2/4
f 667/2/4 668/2/4 676/2/4
f 676/2/4 669/2/4 677/2/4
f 672/3/4 673/3/4 678/3/4
f 678/3/4 673/3/4 679/3/4
f 675/3/4 666/3/4 680/3/4
f 680/3/4 666/3/4 681/3/4
f 670/2/4 671/2/4 682/2/4
f 670/2/4 682/2/4 688/2/4
f 688/2/4 682/2/4 689/2/4
f 683/2/4 684/2/4 690/2/4
f 690/2/4 684/2/4 691/2/4
f 685/1/4 686/1/4 693/1/4
f 692/1/4 693/1/4 697/1/4
f 697/1/4 693/1/4 698/1/4
f 694/2/4 695/2/4 699/2/4
f 699/2/4 695/2/4 700/2/4
f 696/2/4 697/2/4 701/2/4
f 697/2/4 698/2/4 701/2/4
f 701/2/4 698/2/4 702/2/4
f 698/1/4 693/1/4 703/1/4
f 702/2/4 698/2/4 703/2/4
f 686/3/4 687/3/4 704/3/4
f 703/1/4 693/1/4 704/1/4
f 693/1/4 686/1/4 704/1/4
f 704/3/4 687/3/4 705/3/4
f 706/2/4 707/2/4 708/2/4
f 708/2/4 707/2/4 709/2/4
f 714/3/4 715/3/4 721/3/4
f 715/3/4 716/3/4 721/3/4
f 721/3/4 716/3/4 722/3/4
f 717/1/4 718/1/4 724/1/4
f 724/1/4 718/1/4 725/1/4
f 719/3/4 720/3/4 727/3/4
f 727/3/4 720/3/4 728/3/4
f 710/3/4 711/3/4 730/3/4
f 730/3/4 711/3/4 731/3/4
f 712/4/4 713/4/4 732/4/4
f 713/4/4 714/4/4 732/4/4
f 732/4/4 714/4/4 733/4/4
f 714/3/4 721/3/4 734/3/4
f 733/4/4 714/4/4 734/4/4
f 734/3/4 721/3/4 735/3/4
f 724/2/4 725/2/4 736/2/4
f 723/2/4 724/2/4 736/2/4
f 736/2/4 725/2/4 737/2/4
f 726/2/4 727/2/4 738/2/4
f 734/2/4 735/2/4 739/2/4
f 733/2/4 734/2/4 739/2/4
f 739/2/4 735/2/4 740/2/4
f 738/2/4 727/2/4 743/2/4
f 743/2/4 727/2/4 744/2/4
f 744/2/4 727/2/4 749/2/4
f 749/2/4 727/2/4 750/2/4
f 729/3/4 730/3/4 752/3/4
f 752/3/4 730/3/4 753/3/4
f 747/1/4 748/1/4 754/1/4
f 741/3/4 742/3/4 756/3/4
f 745/1/4 746/1/4 757/1/4
f 754/1/4 755/1/4 759/1/4
f 747/1/4 754/1/4 759/1/4
f 756/3/4 742/3/4 760/3/4
f 760/3/4 742/3/4 761/3/4
f 750/3/4 751/3/4 763/3/4
f 763/3/4 751/3/4 764/3/4
f 757/1/4 758/1/4 765/1/4
f 745/1/4 757/1/4 765/1/4
f 765/1/4 758/1/4 766/1/4
f 759/1/4 755/1/4 767/1/4
f 767/1/4 755/1/4 768/1/4
f 761/1/4 762/1/4 769/1/4
f 769/1/4 762/1/4 770/1/4
f 771/4/4 772/4/4 774/4/4
f 774/4/4 772/4/4 775/4/4
f 773/4/4 774/4/4 776/4/4
f 776/4/4 774/4/4 777/4/4
f 777/4/4 774/4/4 778/4/4
f 779/4/4 780/4/4 781/4/4
f 781/4/4 780/4/4 782/4/4
f 783/4/4 784/4/4 786/4/4
f 784/4/4 785/4/4 786/4/4
f 786/4/4 785/4/4 787/4/4
f 790/4/4 791/4/4 795/4/4
f 788/4/4 789/4/4 796/4/4
f 796/4/4 789/4/4 797/4/4
f 794/4/4 795/4/4 798/4/4
f 795/4/4 791/4/4 798/4/4
f 798/4/4 791/4/4 799/4/4
f 792/4/4 793/4/4 802/4/4
f 794/4/4 798/4/4 803/4/4
f 794/4/4 803/4/4 805/4/4
f 803/4/4 804/4/4 805/4/4
f 805/4/4 804/4/4 806/4/4
f 801/4/4 802/4/4 808/4/4
f 802/4/4 793/4/4 809/4/4
f 808/4/4 802/4/4 809/4/4
f 799/4/4 800/4/4 810/4/4
f 810/4/4 800/4/4 811/4/4
f 806/4/4 804/4/4 812/4/4
f 812/4/4 804/4/4 813/4/4
f 813/4/4 804/4/4 814/4/4
f 814/4/4 815/4/4 817/4/4
f 813/4/4 814/4/4 817/4/4
f 817/4/4 815/4/4 818/4/4
f 818/4/4 815/4/4 819/4/4
f 807/1/4 808/1/4 822/1/4
f 808/1/4 809/1/4 822/1/4
f 822/1/4 809/1/4 823/1/4
f 823/1/4 809/1/4 824/1/4
f 824/1/4 809/1/4 825/1/4
f 816/1/4 817/1/4 826/1/4
f 817/4/4 818/4/4 826/4/4
f 819/1/4 820/1/4 827/1/4
f 826/4/4 818/4/4 827/4/4
f 818/1/4 819/1/4 827/1/4
f 822/1/4 823/1/4 828/1/4
f 821/1/4 822/1/4 828/1/4
f 824/4/4 825/4/4 829/4/4
f 829/4/4 825/4/4 830/4/4
f 830/4/4 825/4/4 831/4/4
f 816/1/4 826/1/4 832/1/4
f 832/1/4 826/1/4 833/1/4
f 827/1/4 820/1/4 834/1/4
f 834/1/4 820/1/4 835/1/4
f 820/4/4 821/4/4 836/4/4
f 835/1/4 820/1/4 836/1/4
f 821/1/4 828/1/4 837/1/4
f 836/4/4 821/4/4 837/4/4
f 829/1/4 830/1/4 837/1/4
f 828/1/4 829/1/4 837/1/4
f 837/1/4 830/1/4 838/1/4
f 838/1/4 830/1/4 839/1/4
f 837/4/4 838/4/4 842/4/4
f 835/4/4 836/4/4 842/4/4
f 836/4/4 837/4/4 842/4/4
f 842/4/4 838/4/4 843/4/4
f 839/1/4 830/1/4 844/1/4
f 844/1/4 830/1/4 845/1/4
f 845/1/4 830/1/4 846/1/4
f 840/1/4 841/1/4 847/1/4
f 835/4/4 842/4/4 848/4/4
f 848/4/4 842/4/4 849/4/4
f 840/1/4 847/1/4 851/1/4
f 851/1/4 847/1/4 852/1/4
f 847/4/4 848/4/4 853/4/4
f 852/1/4 847/1/4 853/1/4
f 844/4/4 845/4/4 856/4/4
f 843/4/4 844/4/4 856/4/4
f 856/4/4 845/4/4 857/4/4
f 852/4/4 853/4/4 858/4/4
f 853/4/4 848/4/4 859/4/4
f 858/4/4 853/4/4 859/4/4
f 850/4/4 851/4/4 860/4/4
f 860/4/4 851/4/4 861/4/4
f 854/4/4 855/4/4 862/4/4
f 862/4/4 855/4/4 863/4/4
f 866/5/5 865/5/5 864/5/5
f 867/5/5 865/5/5 866/5/5
f 868/5/5 865/5/5 867/5/5
f 869/5/5 865/5/5 868/5/5
f 870/5/5 865/5/5 869/5/5
f 871/5/5 865/5/5 870/5/5
f 872/5/5 865/5/5 871/5/5
f 873/5/5 865/5/5 872/5/5
f 873/1/5 872/1/5 871/1/5
f 874/5/5 865/5/5 873/5/5
f 875/2/5 868/2/5 867/2/5
f 876/2/5 868/2/5 875/2/5
f 877/4/5 870/4/5 869/4/5
f 878/4/5 870/4/5 877/4/5
f 879/1/5 873/1/5 871/1/5
f 880/1/5 873/1/5 879/1/5
f 883/2/5 882/2/5 881/2/5
f 884/2/5 882/2/5 883/2/5
f 885/2/5 882/2/5 884/2/5
f 887/4/5 886/4/5 885/4/5
f 887/4/5 885/4/5 884/4/5
f 888/4/5 886/4/5 887/4/5
f 891/2/5 890/2/5 889/2/5
f 892/2/5 890/2/5 891/2/5
f 895/1/5 894/1/5 893/1/5
f 896/1/5 894/1/5 895/1/5
f 902/2/5 898/2/5 897/2/5
f 903/2/5 898/2/5 902/2/5
f 904/2/5 898/2/5 903/2/5
f 905/4/5 901/4/5 900/4/5
f 905/4/5 900/4/5 899/4/5
f 906/4/5 901/4/5 905/4/5
f 911/3/5 908/3/5 907/3/5
f 913/1/5 910/1/5 909/1/5
f 915/3/5 911/3/5 907/3/5
f 916/3/5 911/3/5 915/3/5
f 917/4/5 912/4/5 911/4/5
f 917/3/5 911/3/5 916/3/5
f 918/4/5 912/4/5 917/4/5
f 923/1/5 914/1/5 913/1/5
f 923/1/5 913/1/5 909/1/5
f 924/1/5 914/1/5 923/1/5
f 925/1/5 914/1/5 924/1/5
f 926/4/5 917/4/5 916/4/5
f 926/4/5 918/4/5 917/4/5
f 926/4/5 919/4/5 918/4/5
f 927/4/5 919/4/5 926/4/5
f 928/4/5 926/4/5 916/4/5
f 929/4/5 926/4/5 928/4/5
f 930/1/5 922/1/5 921/1/5
f 930/1/5 921/1/5 920/1/5
f 931/1/5 922/1/5 930/1/5
f 934/4/5 933/4/5 932/4/5
f 935/4/5 933/4/5 934/4/5
f 940/2/5 937/2/5 936/2/5
f 941/2/5 937/2/5 940/2/5
f 942/2/5 937/2/5 941/2/5
f 944/4/5 939/4/5 938/4/5
f 945/4/5 939/4/5 944/4/5
f 946/4/5 943/4/5 942/4/5
f 946/4/5 942/4/5 941/4/5
f 947/4/5 943/4/5 946/4/5
f 952/1/5 949/1/5 948/1/5
f 953/1/5 949/1/5 952/1/5
f 954/4/5 951/4/5 950/4/5
f 955/4/5 951/4/5 954/4/5
f 959/4/5 956/4/5 955/4/5
f 960/4/5 956/4/5 959/4/5
f 961/1/5 958/1/5 957/1/5
f 962/1/5 958/1/5 961/1/5
f 969/2/5 964/2/5 963/2/5
f 970/2/5 964/2/5 969/2/5
f 973/2/5 966/2/5 965/2/5
f 974/2/5 972/2/5 971/2/5
f 975/2/5 972/2/5 974/2/5
f 976/2/5 966/2/5 973/2/5
f 977/2/5 966/2/5 976/2/5
f 978/2/5 966/2/5 977/2/5
f 979/1/5 968/1/5 967/1/5
f 980/1/5 968/1/5 979/1/5
f 983/3/5 982/3/5 981/3/5
f 989/3/5 983/3/5 981/3/5
f 990/3/5 983/3/5 989/3/5
f 991/3/5 983/3/5 990/3/5
f 993/4/5 985/4/5 984/4/5
f 994/4/5 993/4/5 992/4/5
f 995/4/5 985/4/5 993/4/5
f 995/4/5 993/4/5 994/4/5
f 996/4/5 988/4/5 987/4/5
f 996/4/5 987/4/5 986/4/5
f 997/4/5 988/4/5 996/4/5
f 1000/1/5 999/1/5 998/1/5
f 1001/1/5 999/1/5 1000/1/5
f 1008/3/5 1003/3/5 1002/3/5
f 1009/3/5 1003/3/5 1008/3/5
f 1010/3/5 1005/3/5 1004/3/5
f 1011/3/5 1005/3/5 1010/3/5
f 1013/1/5 1007/1/5 1006/1/5
f 1014/1/5 1007/1/5 1013/1/5
f 1015/4/5 1013/4/5 1012/4/5
f 1016/4/5 1013/4/5 1015/4/5
f 1022/2/5 1018/2/5 1017/2/5
f 1023/2/5 1018/2/5 1022/2/5
f 1024/4/5 1021/4/5 1020/4/5
f 1024/4/5 1020/4/5 1019/4/5
f 1025/4/5 1021/4/5 1024/4/5
f 1028/1/5 1027/1/5 1026/1/5
f 1029/1/5 1027/1/5 1028/1/5
f 1032/1/5 1031/1/5 1030/1/5
f 1033/1/5 1031/1/5 1032/1/5
f 1038/3/5 1037/3/5 1036/3/5
f 1039/2/5 1035/2/5 1034/2/5
f 1040/2/5 1035/2/5 1039/2/5
f 1041/2/5 1035/2/5 1040/2/5
f 1043/3/5 1038/3/5 1036/3/5
f 1044/3/5 1038/3/5 1043/3/5
f 1045/4/5 1041/4/5 1040/4/5
f 1046/4/5 1041/4/5 1045/4/5
f 1047/4/5 1043/4/5 1042/4/5
f 1048/4/5 1043/4/5 1047/4/5
f 1053/2/5 1050/2/5 1049/2/5
f 1054/2/5 1050/2/5 1053/2/5
f 1057/3/5 1052/3/5 1051/3/5
f 1058/3/5 1052/3/5 1057/3/5
f 1059/1/5 1056/1/5 1055/1/5
f 1060/1/5 1056/1/5 1059/1/5
f 1069/4/5 1062/4/5 1061/4/5
f 1070/4/5 1069/4/5 1068/4/5
f 1071/4/5 1062/4/5 1069/4/5
f 1071/4/5 1069/4/5 1070/4/5
f 1072/4/5 1064/4/5 1063/4/5
f 1072/4/5 1065/4/5 1064/4/5
f 1073/4/5 1065/4/5 1072/4/5
f 1074/4/5 1067/4/5 1066/4/5
f 1075/4/5 1067/4/5 1074/4/5
f 1078/1/6 1079/1/6 1080/1/6
f 1076/2/6 1077/2/6 1082/2/6
f 1082/2/6 1077/2/6 1083/2/6
f 1083/2/6 1077/2/6 1084/2/6
f 1080/1/6 1081/1/6 1085/1/6
f 1078/1/6 1080/1/6 1085/1/6
f 1085/1/6 1081/1/6 1086/1/6
f 1086/1/6 1081/1/6 1087/1/6
f 1088/2/6 1089/2/6 1090/2/6
f 1090/2/6 1089/2/6 1091/2/6
f 1091/2/6 1089/2/6 1092/2/6
f 1092/4/6 1093/4/6 1094/4/6
f 1091/4/6 1092/4/6 1094/4/6
f 1094/4/6 1093/4/6 1095/4/6
f 1096/1/6 1097/1/6 1098/1/6
f 1098/1/6 1097/1/6 1099/1/6
f 1100/2/6 1101/2/6 1104/2/6
f 1104/2/6 1101/2/6 1105/2/6
f 1105/2/6 1101/2/6 1108/2/6
f 1108/2/6 1101/2/6 1109/2/6
f 1102/3/6 1103/3/6 1110/3/6
f 1110/3/6 1103/3/6 1111/3/6
f 1111/3/6 1103/3/6 1112/3/6
f 1106/4/6 1107/4/6 1113/4/6
f 1113/4/6 1107/4/6 1114/4/6
f 1115/3/6 1116/3/6 1119/3/6
f 1119/3/6 1116/3/6 1120/3/6
f 1117/1/6 1118/1/6 1123/1/6
f 1121/4/6 1122/4/6 1127/4/6
f 1125/3/6 1126/3/6 1128/3/6
f 1126/4/6 1127/4/6 1129/4/6
f 1128/3/6 1126/3/6 1129/3/6
f 1127/4/6 1122/4/6 1130/4/6
f 1129/4/6 1127/4/6 1130/4/6
f 1130/4/6 1122/4/6 1131/4/6
f 1131/4/6 1122/4/6 1132/4/6
f 1123/1/6 1124/1/6 1136/1/6
f 1117/1/6 1123/1/6 1136/1/6
f 1136/1/6 1124/1/6 1137/1/6
f 1137/1/6 1124/1/6 1138/1/6
f 1128/4/6 1129/4/6 1140/4/6
f 1129/4/6 1130/4/6 1140/4/6
f 1139/4/6 1140/4/6 1141/4/6
f 1140/4/6 1130/4/6 1142/4/6
f 1141/4/6 1140/4/6 1142/4/6
f 1134/1/6 1135/1/6 1143/1/6
f 1133/1/6 1134/1/6 1143/1/6
f 1143/1/6 1135/1/6 1144/1/6
f 1145/4/6 1146/4/6 1147/4/6
f 1147/4/6 1146/4/6 1148/4/6
f 1149/2/6 1150/2/6 1153/2/6
f 1153/2/6 1150/2/6 1154/2/6
f 1151/4/6 1152/4/6 1156/4/6
f 1151/4/6 1156/4/6 1158/4/6
f 1156/4/6 1157/4/6 1158/4/6
f 1158/4/6 1157/4/6 1159/4/6
f 1154/4/6 1155/4/6 1160/4/6
f 1153/4/6 1154/4/6 1160/4/6
f 1160/4/6 1155/4/6 1161/4/6
f 1162/4/6 1163/4/6 1164/4/6
f 1164/4/6 1163/4/6 1165/4/6
f 1164/4/6 1165/4/6 1166/4/6
f 1166/4/6 1165/4/6 1167/4/6
f 1168/3/6 1169/3/6 1172/3/6
f 1172/3/6 1169/3/6 1173/3/6
f 1170/2/6 1171/2/6 1174/2/6
f 1174/2/6 1171/2/6 1175/2/6
f 1176/4/6 1177/4/6 1182/4/6
f 1177/4/6 1178/4/6 1182/4/6
f 1178/4/6 1179/4/6 1182/4/6
f 1182/4/6 1179/4/6 1183/4/6
f 1180/4/6 1181/4/6 1184/4/6
f 1184/4/6 1181/4/6 1185/4/6
f 1190/1/6 1191/1/6 1192/1/6
f 1186/3/6 1187/3/6 1194/3/6
f 1194/3/6 1187/3/6 1195/3/6
f 1188/3/6 1189/3/6 1196/3/6
f 1196/3/6 1189/3/6 1197/3/6
f 1192/1/6 1193/1/6 1199/1/6
f 1190/1/6 1192/1/6 1199/1/6
f 1199/1/6 1193/1/6 1200/1/6
f 1200/1/6 1193/1/6 1201/1/6
f 1199/4/6 1200/4/6 1202/4/6
f 1198/4/6 1199/4/6 1202/4/6
f 1202/4/6 1200/4/6 1203/4/6
f 1204/2/6 1205/2/6 1210/2/6
f 1210/2/6 1205/2/6 1211/2/6
f 1206/4/6 1207/4/6 1212/4/6
f 1212/4/6 1207/4/6 1213/4/6
f 1208/4/6 1209/4/6 1214/4/6
f 1214/4/6 1209/4/6 1215/4/6
f 1216/1/6 1217/1/6 1218/1/6
f 1218/1/6 1217/1/6 1219/1/6
f 1220/1/6 1221/1/6 1222/1/6
f 1222/1/6 1221/1/6 1223/1/6
f 1224/2/6 1225/2/6 1226/2/6
f 1226/2/6 1225/2/6 1227/2/6
f 1228/4/6 1229/4/6 1230/4/6
f 1228/4/6 1230/4/6 1231/4/6
f 1231/4/6 1230/4/6 1232/4/6
f 1238/3/6 1239/3/6 1240/3/6
f 1233/3/6 1234/3/6 1242/3/6
f 1242/3/6 1234/3/6 1243/3/6
f 1235/1/6 1236/1/6 1244/1/6
f 1244/1/6 1236/1/6 1245/1/6
f 1236/2/6 1237/2/6 1246/2/6
f 1245/1/6 1236/1/6 1246/1/6
f 1246/2/6 1237/2/6 1247/2/6
f 1247/2/6 1237/2/6 1248/2/6
f 1240/3/6 1241/3/6 1249/3/6
f 1238/3/6 1240/3/6 1249/3/6
f 1249/3/6 1241/3/6 1250/3/6
f 1248/1/6 1249/1/6 1251/1/6
f 1251/1/6 1249/1/6 1252/1/6
f 1253/3/6 1254/3/6 1261/3/6
f 1261/3/6 1254/3/6 1262/3/6
f 1255/4/6 1256/4/6 1263/4/6
f 1256/4/6 1257/4/6 1263/4/6
f 1263/4/6 1257/4/6 1264/4/6
f 1258/4/6 1259/4/6 1265/4/6
f 1259/1/6 1260/1/6 1266/1/6
f 1265/4/6 1259/4/6 1266/4/6
f 1260/4/6 1261/4/6 1267/4/6
f 1266/1/6 1260/1/6 1267/1/6
f 1267/4/6 1261/4/6 1268/4/6
f 1269/5/6 1270/5/6 1271/5/6
f 1271/5/6 1270/5/6 1272/5/6
f 1269/5/6 1271/5/6 1273/5/6
f 1271/1/6 1272/1/6 1274/1/6
f 1273/5/6 1271/5/6 1274/5/6
f 1272/5/6 1270/5/6 1275/5/6
f 1274/1/6 1272/1/6 1275/1/6
f 1275/5/6 1270/5/6 1276/5/6
f 1274/1/6 1275/1/6 1277/1/6
f 1277/1/6 1275/1/6 1278/1/6
