# MagicaVoxel @ Ephtracy

# group
o 

# material
mtllib untitled.mtl
usemtl palette

# normals
vn -1 0 0
vn 1 0 0
vn 0 0 1
vn 0 0 -1
vn 0 -1 0
vn 0 1 0

# texcoords
vt 0.748047 0.5
vt 0.958984 0.5

# verts
v -10 0 10
v -10 0 -10
v -10 2.9 1.7
v -10 2.9 -3.6
v -10 3.3 10
v -10 3.3 1.7
v -10 3.3 -3.3
v -10 3.3 -3.6
v -10 3.3 -10
v -10 4.7 10
v -10 4.7 1.7
v -10 4.7 -3.3
v -10 4.7 -10
v 4 2.9 10
v 4 2.9 1.7
v 4 3.3 10
v 4 3.3 1.7
v 4 4.7 10
v 4 4.7 1.7
v -9.9 4.6 -3.3
v -9.9 4.6 -3.4
v -9.9 4.7 -3.3
v -9.9 4.7 -3.4
v -0.5 2.9 10
v -0.5 2.9 1.7
v -0.5 3.3 10
v -0.5 3.3 1.7
v -0.5 4.7 10
v -0.5 4.7 1.7
v 9.9 0 10
v 9.9 0 -10
v 9.9 2.9 1.7
v 9.9 2.9 -3.6
v 9.9 3.3 10
v 9.9 3.3 1.7
v 9.9 3.3 -3.6
v 9.9 3.3 -10
v 10 3.3 10
v 10 3.3 1.7
v 10 3.3 -3.3
v 10 3.3 -10
v 10 4.6 -3.3
v 10 4.6 -3.4
v 10 4.7 10
v 10 4.7 1.7
v 10 4.7 -3.4
v 10 4.7 -10
v -10 0 10
v -10 3.3 10
v -10 4.7 10
v -0.5 2.9 10
v -0.5 3.3 10
v -0.5 4.7 10
v 4 2.9 10
v 4 3.3 10
v 4 4.7 10
v 9.9 0 10
v 9.9 3.3 10
v 10 3.3 10
v 10 4.7 10
v -10 3.3 -3.3
v -10 4.7 -3.3
v -9.9 4.6 -3.3
v -9.9 4.7 -3.3
v 10 3.3 -3.3
v 10 4.6 -3.3
v -9.9 4.6 -3.4
v -9.9 4.7 -3.4
v 10 4.6 -3.4
v 10 4.7 -3.4
v -10 2.9 -3.6
v -10 3.3 -3.6
v 9.9 2.9 -3.6
v 9.9 3.3 -3.6
v -10 2.9 1.7
v -10 3.3 1.7
v -10 4.7 1.7
v -0.5 2.9 1.7
v -0.5 3.3 1.7
v -0.5 4.7 1.7
v 4 2.9 1.7
v 4 3.3 1.7
v 4 4.7 1.7
v 9.9 2.9 1.7
v 9.9 3.3 1.7
v 10 3.3 1.7
v 10 4.7 1.7
v -10 0 -10
v -10 3.3 -10
v -10 4.7 -10
v 9.9 0 -10
v 9.9 3.3 -10
v 10 3.3 -10
v 10 4.7 -10
v -10 0 10
v 9.9 0 10
v -10 0 -10
v 9.9 0 -10
v 9.9 3.3 10
v 10 3.3 10
v 9.9 3.3 1.7
v 10 3.3 1.7
v -10 3.3 -3.3
v 10 3.3 -3.3
v -10 3.3 -3.6
v 9.9 3.3 -3.6
v 9.9 3.3 -10
v 10 3.3 -10
v -0.5 2.9 10
v 4 2.9 10
v -10 2.9 1.7
v -0.5 2.9 1.7
v 4 2.9 1.7
v 9.9 2.9 1.7
v -10 2.9 -3.6
v 9.9 2.9 -3.6
v -9.9 4.6 -3.3
v 10 4.6 -3.3
v -9.9 4.6 -3.4
v 10 4.6 -3.4
v -10 4.7 10
v -0.5 4.7 10
v 4 4.7 10
v 10 4.7 10
v -10 4.7 1.7
v -0.5 4.7 1.7
v 4 4.7 1.7
v 10 4.7 1.7
v -10 4.7 -3.3
v -9.9 4.7 -3.3
v -9.9 4.7 -3.4
v 10 4.7 -3.4
v -10 4.7 -10
v 10 4.7 -10

# faces
f 3/1/1 2/1/1 1/1/1
f 4/1/1 2/1/1 3/1/1
f 5/1/1 3/1/1 1/1/1
f 6/1/1 3/1/1 5/1/1
f 8/1/1 2/1/1 4/1/1
f 9/1/1 2/1/1 8/1/1
f 10/2/1 6/2/1 5/2/1
f 11/2/1 6/2/1 10/2/1
f 12/2/1 8/2/1 7/2/1
f 12/2/1 9/2/1 8/2/1
f 13/2/1 9/2/1 12/2/1
f 16/1/1 15/1/1 14/1/1
f 17/1/1 15/1/1 16/1/1
f 18/2/1 17/2/1 16/2/1
f 19/2/1 17/2/1 18/2/1
f 20/2/2 21/2/2 22/2/2
f 22/2/2 21/2/2 23/2/2
f 24/1/2 25/1/2 26/1/2
f 26/1/2 25/1/2 27/1/2
f 26/2/2 27/2/2 28/2/2
f 28/2/2 27/2/2 29/2/2
f 30/1/2 31/1/2 32/1/2
f 32/1/2 31/1/2 33/1/2
f 30/1/2 32/1/2 34/1/2
f 34/1/2 32/1/2 35/1/2
f 33/1/2 31/1/2 36/1/2
f 36/1/2 31/1/2 37/1/2
f 40/2/2 41/2/2 42/2/2
f 42/2/2 41/2/2 43/2/2
f 38/2/2 39/2/2 44/2/2
f 44/2/2 39/2/2 45/2/2
f 43/2/2 41/2/2 46/2/2
f 46/2/2 41/2/2 47/2/2
f 51/1/3 49/1/3 48/1/3
f 52/2/3 50/2/3 49/2/3
f 52/1/3 49/1/3 51/1/3
f 53/2/3 50/2/3 52/2/3
f 54/1/3 51/1/3 48/1/3
f 57/1/3 54/1/3 48/1/3
f 57/1/3 55/1/3 54/1/3
f 58/2/3 56/2/3 55/2/3
f 58/1/3 55/1/3 57/1/3
f 59/2/3 56/2/3 58/2/3
f 60/2/3 56/2/3 59/2/3
f 63/2/3 62/2/3 61/2/3
f 64/2/3 62/2/3 63/2/3
f 65/2/3 63/2/3 61/2/3
f 66/2/3 63/2/3 65/2/3
f 69/2/3 68/2/3 67/2/3
f 70/2/3 68/2/3 69/2/3
f 73/1/3 72/1/3 71/1/3
f 74/1/3 72/1/3 73/1/3
f 75/1/4 76/1/4 78/1/4
f 76/2/4 77/2/4 79/2/4
f 78/1/4 76/1/4 79/1/4
f 79/2/4 77/2/4 80/2/4
f 81/1/4 82/1/4 84/1/4
f 82/2/4 83/2/4 85/2/4
f 84/1/4 82/1/4 85/1/4
f 85/2/4 83/2/4 86/2/4
f 86/2/4 83/2/4 87/2/4
f 88/1/4 89/1/4 91/1/4
f 89/2/4 90/2/4 92/2/4
f 91/1/4 89/1/4 92/1/4
f 92/2/4 90/2/4 93/2/4
f 93/2/4 90/2/4 94/2/4
f 97/1/5 96/1/5 95/1/5
f 98/1/5 96/1/5 97/1/5
f 101/2/5 100/2/5 99/2/5
f 102/2/5 100/2/5 101/2/5
f 105/2/5 104/2/5 103/2/5
f 106/2/5 104/2/5 105/2/5
f 107/2/5 104/2/5 106/2/5
f 108/2/5 104/2/5 107/2/5
f 109/1/6 110/1/6 112/1/6
f 112/1/6 110/1/6 113/1/6
f 111/1/6 112/1/6 115/1/6
f 113/1/6 114/1/6 115/1/6
f 112/1/6 113/1/6 115/1/6
f 115/1/6 114/1/6 116/1/6
f 117/2/6 118/2/6 119/2/6
f 119/2/6 118/2/6 120/2/6
f 121/2/6 122/2/6 125/2/6
f 125/2/6 122/2/6 126/2/6
f 123/2/6 124/2/6 127/2/6
f 127/2/6 124/2/6 128/2/6
f 129/2/6 130/2/6 131/2/6
f 129/2/6 131/2/6 133/2/6
f 131/2/6 132/2/6 133/2/6
f 133/2/6 132/2/6 134/2/6
