# MagicaVoxel @ Ephtracy

# group
o 

# material
mtllib wizard.mtl
usemtl palette

# normals
vn -1 0 0
vn 1 0 0
vn 0 0 1
vn 0 0 -1
vn 0 -1 0
vn 0 1 0

# texcoords
vt 0.0332031 0.5
vt 0.0410156 0.5
vt 0.0644531 0.5
vt 0.0683594 0.5
vt 0.205078 0.5
vt 0.248047 0.5
vt 0.333984 0.5
vt 0.369141 0.5
vt 0.482422 0.5
vt 0.486328 0.5
vt 0.603516 0.5
vt 0.607422 0.5
vt 0.623047 0.5
vt 0.642578 0.5
vt 0.767578 0.5
vt 0.771484 0.5
vt 0.994141 0.5

# verts
v -0.6 1.1 0.1
v -0.6 1.1 0
v -0.6 1.2 0.2
v -0.6 1.2 0.1
v -0.6 1.2 0
v -0.6 1.2 -0.1
v -0.6 1.3 0.2
v -0.6 1.3 0.1
v -0.6 1.3 0
v -0.6 1.3 -0.1
v -0.6 1.4 0.1
v -0.6 1.4 0
v -0.5 0 0.1
v -0.5 0 0
v -0.5 1.1 0.2
v -0.5 1.1 0.1
v -0.5 1.1 0
v -0.5 1.1 -0.1
v -0.5 1.2 0.2
v -0.5 1.2 0.1
v -0.5 1.2 0
v -0.5 1.2 -0.1
v -0.5 1.3 0.2
v -0.5 1.3 0.1
v -0.5 1.3 0
v -0.5 1.3 -0.1
v -0.5 1.4 0.2
v -0.5 1.4 0.1
v -0.5 1.4 0
v -0.5 1.4 -0.1
v -0.3 0.4 0.1
v -0.3 0.4 0
v -0.3 0.5 0.1
v -0.3 0.5 0
v -0.3 0.9 0.3
v -0.3 0.9 0.2
v -0.3 0.9 0.1
v -0.3 0.9 0
v -0.3 0.9 -0.1
v -0.3 0.9 -0.2
v -0.3 1 0.2
v -0.3 1 0.1
v -0.3 1 0
v -0.3 1 -0.1
v -0.3 1 -0.2
v -0.3 1.1 0.2
v -0.3 1.1 0.1
v -0.3 1.1 0
v -0.3 1.1 -0.1
v -0.3 1.2 0.3
v -0.3 1.2 0.2
v -0.3 1.2 -0.1
v -0.3 1.2 -0.2
v -0.2 0.3 0.3
v -0.2 0.3 0.2
v -0.2 0.3 0.1
v -0.2 0.3 0
v -0.2 0.3 -0.1
v -0.2 0.3 -0.2
v -0.2 0.4 0.3
v -0.2 0.4 0.2
v -0.2 0.4 0.1
v -0.2 0.4 0
v -0.2 0.4 -0.1
v -0.2 0.4 -0.2
v -0.2 0.5 0.2
v -0.2 0.5 0.1
v -0.2 0.5 0
v -0.2 0.6 0.1
v -0.2 0.6 0
v -0.2 0.6 -0.1
v -0.2 0.7 0.3
v -0.2 0.7 0.2
v -0.2 0.7 0.1
v -0.2 0.7 0
v -0.2 0.7 -0.1
v -0.2 0.7 -0.2
v -0.2 0.8 0.2
v -0.2 0.8 0.1
v -0.2 0.8 -0.1
v -0.2 0.8 -0.2
v -0.2 0.9 0.3
v -0.2 0.9 0.2
v -0.2 0.9 0.1
v -0.2 0.9 0
v -0.2 0.9 -0.1
v -0.2 0.9 -0.2
v -0.2 0.9 -0.3
v -0.2 1 0.4
v -0.2 1 0.3
v -0.2 1 0.2
v -0.2 1 0.1
v -0.2 1 0
v -0.2 1 -0.1
v -0.2 1 -0.2
v -0.2 1.1 0.4
v -0.2 1.1 0.3
v -0.2 1.1 0.2
v -0.2 1.1 0.1
v -0.2 1.1 0
v -0.2 1.1 -0.1
v -0.2 1.2 0.4
v -0.2 1.2 0.3
v -0.2 1.2 0.2
v -0.2 1.2 0.1
v -0.2 1.2 0
v -0.2 1.2 -0.1
v -0.2 1.2 -0.2
v -0.2 1.2 -0.3
v -0.2 1.3 0.3
v -0.2 1.3 0.2
v -0.2 1.3 -0.1
v -0.2 1.3 -0.2
v -0.1 0 0.1
v -0.1 0 0
v -0.1 0.2 0.1
v -0.1 0.2 0
v -0.1 0.3 0.1
v -0.1 0.3 0
v -0.1 0.4 0.2
v -0.1 0.4 0.1
v -0.1 0.4 0
v -0.1 0.4 -0.1
v -0.1 0.5 0.2
v -0.1 0.5 0.1
v -0.1 0.5 0
v -0.1 0.6 0.3
v -0.1 0.6 0.2
v -0.1 0.6 0
v -0.1 0.6 -0.1
v -0.1 0.6 -0.2
v -0.1 0.7 0.3
v -0.1 0.7 0.2
v -0.1 0.7 0.1
v -0.1 0.7 -0.1
v -0.1 0.7 -0.2
v -0.1 0.7 -0.3
v -0.1 0.8 0.2
v -0.1 0.8 0.1
v -0.1 0.8 -0.1
v -0.1 0.8 -0.2
v -0.1 0.8 -0.3
v -0.1 0.9 -0.1
v -0.1 0.9 -0.2
v -0.1 0.9 -0.3
v -0.1 0.9 -0.4
v -0.1 1 -0.3
v -0.1 1 -0.4
v -0.1 1.1 -0.3
v -0.1 1.1 -0.4
v -0.1 1.3 0.2
v -0.1 1.3 0.1
v -0.1 1.3 -0.1
v -0.1 1.4 0.2
v -0.1 1.4 0.1
v -0.1 1.4 -0.1
v 0 0.6 -0.2
v 0 0.6 -0.3
v 0 0.7 -0.2
v 0 0.7 -0.3
v 0 0.9 0.3
v 0 0.9 0.2
v 0 1 0.3
v 0 1 0.2
v 0 1.4 0.1
v 0 1.4 0
v 0 1.5 0.1
v 0 1.5 0
v 0.2 0 0.1
v 0.2 0 0
v 0.2 0.2 0.1
v 0.2 0.2 0
v 0.2 0.3 0.1
v 0.2 0.3 0
v 0.2 0.5 -0.1
v 0.2 0.5 -0.2
v 0.2 0.6 0.3
v 0.2 0.6 0.2
v 0.2 0.6 -0.1
v 0.2 0.6 -0.2
v 0.2 0.7 0.3
v 0.2 0.7 0.2
v 0.2 0.7 -0.2
v 0.2 0.7 -0.3
v 0.2 0.8 -0.1
v 0.2 0.8 -0.2
v 0.2 0.8 -0.3
v 0.2 0.9 -0.1
v 0.2 0.9 -0.2
v 0.3 0.7 0.3
v 0.3 0.7 0.2
v 0.3 0.8 0.2
v 0.3 0.9 0.2
v 0.3 1 0.3
v 0.3 1 0.2
v 0.4 0.5 0.1
v 0.4 0.5 0
v 0.4 0.6 0.1
v 0.4 0.6 0
v 0.5 0.4 0.1
v 0.5 0.4 0
v 0.5 0.5 0.1
v 0.5 0.5 0
v -0.4 0 0.1
v -0.4 0 0
v -0.4 0.3 0.1
v -0.4 0.3 0
v -0.4 0.4 0.1
v -0.4 0.4 0
v -0.4 1.1 0.2
v -0.4 1.1 0.1
v -0.4 1.1 0
v -0.4 1.1 -0.1
v -0.4 1.2 0.2
v -0.4 1.2 0.1
v -0.4 1.2 0
v -0.4 1.2 -0.1
v -0.4 1.3 0.2
v -0.4 1.3 0.1
v -0.4 1.3 0
v -0.4 1.3 -0.1
v -0.4 1.4 0.2
v -0.4 1.4 0.1
v -0.4 1.4 0
v -0.4 1.4 -0.1
v -0.3 0.3 0.1
v -0.3 0.3 0
v -0.3 0.4 0.1
v -0.3 0.4 0
v -0.3 1.3 0.1
v -0.3 1.3 0
v -0.3 1.4 0.1
v -0.3 1.4 0
v -0.2 0.4 0.1
v -0.2 0.4 0
v -0.2 0.5 0.1
v -0.2 0.5 0
v -0.1 0.7 0.3
v -0.1 0.7 0.2
v -0.1 0.8 0.2
v -0.1 0.9 0.2
v -0.1 1 0.3
v -0.1 1 0.2
v 0 0 0.1
v 0 0 0
v 0 0.2 0.1
v 0 0.2 0
v 0 0.3 0.1
v 0 0.3 0
v 0 0.6 0.3
v 0 0.6 0.2
v 0 0.7 0.3
v 0 0.7 0.2
v 0 0.7 -0.2
v 0 0.7 -0.3
v 0 0.8 -0.1
v 0 0.8 -0.2
v 0 0.8 -0.3
v 0 0.9 -0.1
v 0 0.9 -0.2
v 0.1 0.9 0.3
v 0.1 0.9 0.2
v 0.1 1 0.3
v 0.1 1 0.2
v 0.2 0.6 -0.2
v 0.2 0.6 -0.3
v 0.2 0.7 -0.2
v 0.2 0.7 -0.3
v 0.2 1.4 0.1
v 0.2 1.4 0
v 0.2 1.5 0.1
v 0.2 1.5 0
v 0.3 0 0.1
v 0.3 0 0
v 0.3 0.2 0.1
v 0.3 0.2 0
v 0.3 0.3 0.1
v 0.3 0.3 0
v 0.3 0.4 0.2
v 0.3 0.4 0.1
v 0.3 0.4 0
v 0.3 0.4 -0.1
v 0.3 0.5 0.2
v 0.3 0.5 0.1
v 0.3 0.5 0
v 0.3 0.5 -0.1
v 0.3 0.5 -0.2
v 0.3 0.6 0.3
v 0.3 0.6 0.2
v 0.3 0.6 0.1
v 0.3 0.6 0
v 0.3 0.6 -0.1
v 0.3 0.6 -0.2
v 0.3 0.7 0.3
v 0.3 0.7 0.2
v 0.3 0.7 0.1
v 0.3 0.7 -0.2
v 0.3 0.7 -0.3
v 0.3 0.8 0.2
v 0.3 0.8 0.1
v 0.3 0.8 -0.1
v 0.3 0.8 -0.2
v 0.3 0.8 -0.3
v 0.3 0.9 -0.1
v 0.3 0.9 -0.2
v 0.3 0.9 -0.3
v 0.3 0.9 -0.4
v 0.3 1 -0.2
v 0.3 1 -0.3
v 0.3 1.1 -0.3
v 0.3 1.1 -0.4
v 0.3 1.3 0.2
v 0.3 1.3 -0.1
v 0.3 1.4 0.2
v 0.3 1.4 -0.1
v 0.4 0.3 0.3
v 0.4 0.3 0.2
v 0.4 0.3 0.1
v 0.4 0.3 0
v 0.4 0.3 -0.1
v 0.4 0.3 -0.2
v 0.4 0.4 0.3
v 0.4 0.4 0.2
v 0.4 0.4 0.1
v 0.4 0.4 0
v 0.4 0.4 -0.1
v 0.4 0.4 -0.2
v 0.4 0.5 0.2
v 0.4 0.5 0.1
v 0.4 0.6 0.1
v 0.4 0.6 0
v 0.4 0.6 -0.2
v 0.4 0.7 0.3
v 0.4 0.7 0.2
v 0.4 0.7 0.1
v 0.4 0.7 0
v 0.4 0.8 0.2
v 0.4 0.8 0.1
v 0.4 0.8 0
v 0.4 0.8 -0.1
v 0.4 0.8 -0.2
v 0.4 0.9 0.2
v 0.4 0.9 0.1
v 0.4 0.9 -0.1
v 0.4 0.9 -0.2
v 0.4 1 0.4
v 0.4 1 0.3
v 0.4 1 0.2
v 0.4 1 0.1
v 0.4 1 0
v 0.4 1 -0.2
v 0.4 1 -0.3
v 0.4 1.1 0.3
v 0.4 1.1 0.2
v 0.4 1.1 0.1
v 0.4 1.1 0
v 0.4 1.1 -0.1
v 0.4 1.2 0.4
v 0.4 1.2 0.3
v 0.4 1.2 0.2
v 0.4 1.2 0.1
v 0.4 1.2 0
v 0.4 1.2 -0.1
v 0.4 1.2 -0.2
v 0.4 1.2 -0.3
v 0.4 1.3 0.3
v 0.4 1.3 0.2
v 0.4 1.3 -0.1
v 0.4 1.3 -0.2
v 0.5 0.3 0.1
v 0.5 0.3 0
v 0.5 0.4 0.1
v 0.5 0.4 0
v 0.5 0.5 0.1
v 0.5 0.5 0
v 0.5 0.6 0.1
v 0.5 0.6 0
v 0.5 1 0.3
v 0.5 1 0.1
v 0.5 1 0
v 0.5 1 -0.2
v 0.5 1.1 0.3
v 0.5 1.1 0.2
v 0.5 1.1 0.1
v 0.5 1.1 0
v 0.5 1.1 -0.1
v 0.5 1.2 0.3
v 0.5 1.2 0.2
v 0.5 1.2 0.1
v 0.5 1.2 0
v 0.5 1.2 -0.1
v 0.5 1.2 -0.2
v 0.5 1.3 0.2
v 0.5 1.3 0.1
v 0.5 1.3 0
v 0.5 1.3 -0.1
v 0.6 0.4 0.1
v 0.6 0.4 0
v 0.6 0.5 0.1
v 0.6 0.5 0
v -0.2 1 0.4
v -0.2 1.1 0.4
v -0.2 1.2 0.4
v -0.1 1 0.4
v -0.1 1.1 0.4
v 0.1 1 0.4
v 0.1 1.1 0.4
v 0.2 1 0.4
v 0.2 1.1 0.4
v 0.4 1 0.4
v 0.4 1.2 0.4
v -0.3 0.9 0.3
v -0.3 1.2 0.3
v -0.2 0.3 0.3
v -0.2 0.4 0.3
v -0.2 0.7 0.3
v -0.2 0.9 0.3
v -0.2 1 0.3
v -0.2 1.1 0.3
v -0.2 1.2 0.3
v -0.2 1.3 0.3
v -0.1 0.3 0.3
v -0.1 0.4 0.3
v -0.1 0.6 0.3
v -0.1 0.7 0.3
v -0.1 1 0.3
v 0 0.3 0.3
v 0 0.4 0.3
v 0 0.6 0.3
v 0 0.7 0.3
v 0 0.9 0.3
v 0 1 0.3
v 0.1 0.3 0.3
v 0.1 0.4 0.3
v 0.1 0.9 0.3
v 0.1 1 0.3
v 0.2 0.3 0.3
v 0.2 0.4 0.3
v 0.2 0.6 0.3
v 0.2 0.7 0.3
v 0.2 1.2 0.3
v 0.2 1.3 0.3
v 0.3 0.3 0.3
v 0.3 0.4 0.3
v 0.3 0.6 0.3
v 0.3 0.7 0.3
v 0.3 1 0.3
v 0.3 1.2 0.3
v 0.3 1.3 0.3
v 0.4 0.3 0.3
v 0.4 0.4 0.3
v 0.4 0.7 0.3
v 0.4 1 0.3
v 0.4 1.1 0.3
v 0.4 1.2 0.3
v 0.4 1.3 0.3
v 0.5 1 0.3
v 0.5 1.1 0.3
v 0.5 1.2 0.3
v -0.6 1.2 0.2
v -0.6 1.3 0.2
v -0.5 1.1 0.2
v -0.5 1.2 0.2
v -0.5 1.3 0.2
v -0.5 1.4 0.2
v -0.4 1.1 0.2
v -0.4 1.2 0.2
v -0.4 1.3 0.2
v -0.4 1.4 0.2
v -0.3 1.2 0.2
v -0.3 1.3 0.2
v -0.2 0.5 0.2
v -0.2 0.7 0.2
v -0.2 1.2 0.2
v -0.2 1.3 0.2
v -0.1 0.4 0.2
v -0.1 0.5 0.2
v -0.1 0.6 0.2
v -0.1 0.7 0.2
v -0.1 0.8 0.2
v -0.1 0.9 0.2
v -0.1 1 0.2
v -0.1 1.3 0.2
v -0.1 1.4 0.2
v 0 0.4 0.2
v 0 0.6 0.2
v 0 0.7 0.2
v 0 0.8 0.2
v 0 0.9 0.2
v 0 1 0.2
v 0 1.3 0.2
v 0 1.4 0.2
v 0.1 0.4 0.2
v 0.1 0.6 0.2
v 0.1 0.7 0.2
v 0.1 0.9 0.2
v 0.1 1 0.2
v 0.2 0.4 0.2
v 0.2 0.5 0.2
v 0.2 0.6 0.2
v 0.2 0.7 0.2
v 0.2 0.8 0.2
v 0.2 0.9 0.2
v 0.2 1.3 0.2
v 0.3 0.4 0.2
v 0.3 0.5 0.2
v 0.3 0.6 0.2
v 0.3 0.7 0.2
v 0.3 0.8 0.2
v 0.3 0.9 0.2
v 0.3 1 0.2
v 0.3 1.3 0.2
v 0.3 1.4 0.2
v 0.4 0.5 0.2
v 0.4 0.7 0.2
v 0.4 1.2 0.2
v 0.4 1.3 0.2
v 0.5 1.2 0.2
v 0.5 1.3 0.2
v -0.6 1.1 0.1
v -0.6 1.2 0.1
v -0.6 1.3 0.1
v -0.6 1.4 0.1
v -0.5 0 0.1
v -0.5 1.1 0.1
v -0.5 1.2 0.1
v -0.5 1.3 0.1
v -0.5 1.4 0.1
v -0.4 0 0.1
v -0.4 0.3 0.1
v -0.4 0.4 0.1
v -0.4 1.1 0.1
v -0.4 1.2 0.1
v -0.4 1.3 0.1
v -0.4 1.4 0.1
v -0.3 0.3 0.1
v -0.3 0.4 0.1
v -0.3 0.5 0.1
v -0.3 0.9 0.1
v -0.3 1 0.1
v -0.3 1.1 0.1
v -0.3 1.2 0.1
v -0.3 1.3 0.1
v -0.3 1.4 0.1
v -0.2 0.4 0.1
v -0.2 0.5 0.1
v -0.2 0.7 0.1
v -0.2 0.8 0.1
v -0.2 0.9 0.1
v -0.2 1 0.1
v -0.2 1.1 0.1
v -0.2 1.2 0.1
v -0.1 0 0.1
v -0.1 0.2 0.1
v -0.1 0.3 0.1
v -0.1 0.7 0.1
v -0.1 0.8 0.1
v 0 0 0.1
v 0 0.2 0.1
v 0 0.3 0.1
v 0 1.4 0.1
v 0 1.5 0.1
v 0.2 0 0.1
v 0.2 0.2 0.1
v 0.2 0.3 0.1
v 0.2 1.4 0.1
v 0.2 1.5 0.1
v 0.3 0 0.1
v 0.3 0.2 0.1
v 0.3 0.3 0.1
v 0.3 0.7 0.1
v 0.3 0.8 0.1
v 0.4 0.3 0.1
v 0.4 0.4 0.1
v 0.4 0.5 0.1
v 0.4 0.6 0.1
v 0.4 0.7 0.1
v 0.4 0.8 0.1
v 0.4 1.1 0.1
v 0.4 1.2 0.1
v 0.5 0.3 0.1
v 0.5 0.4 0.1
v 0.5 0.5 0.1
v 0.5 0.6 0.1
v 0.5 1.1 0.1
v 0.5 1.2 0.1
v 0.6 0.4 0.1
v 0.6 0.5 0.1
v -0.3 1 0
v -0.3 1.1 0
v -0.2 1 0
v -0.2 1.1 0
v 0.4 1 0
v 0.4 1.1 0
v 0.5 1 0
v 0.5 1.1 0
v -0.3 0.9 -0.1
v -0.3 1 -0.1
v -0.3 1.1 -0.1
v -0.3 1.2 -0.1
v -0.2 0.9 -0.1
v -0.2 1 -0.1
v -0.2 1.1 -0.1
v -0.2 1.2 -0.1
v 0.4 1.1 -0.1
v 0.4 1.2 -0.1
v 0.5 1.1 -0.1
v 0.5 1.2 -0.1
v -0.3 0.9 0.2
v -0.3 1 0.2
v -0.3 1.1 0.2
v -0.3 1.2 0.2
v -0.2 0.7 0.2
v -0.2 0.8 0.2
v -0.2 0.9 0.2
v -0.2 1 0.2
v -0.2 1.1 0.2
v -0.2 1.2 0.2
v -0.1 0.7 0.2
v -0.1 0.8 0.2
v 0.3 0.7 0.2
v 0.3 0.8 0.2
v 0.4 0.7 0.2
v 0.4 0.8 0.2
v 0.4 1.1 0.2
v 0.4 1.2 0.2
v 0.5 1.1 0.2
v 0.5 1.2 0.2
v -0.3 1 0.1
v -0.3 1.1 0.1
v -0.2 1 0.1
v -0.2 1.1 0.1
v 0.3 0.5 0.1
v 0.3 0.6 0.1
v 0.4 0.5 0.1
v 0.4 0.6 0.1
v 0.4 1 0.1
v 0.4 1.1 0.1
v 0.5 1 0.1
v 0.5 1.1 0.1
v -0.6 1.1 0
v -0.6 1.2 0
v -0.6 1.3 0
v -0.6 1.4 0
v -0.5 0 0
v -0.5 1.1 0
v -0.5 1.2 0
v -0.5 1.3 0
v -0.5 1.4 0
v -0.4 0 0
v -0.4 0.3 0
v -0.4 0.4 0
v -0.4 1.1 0
v -0.4 1.2 0
v -0.4 1.3 0
v -0.4 1.4 0
v -0.3 0.3 0
v -0.3 0.4 0
v -0.3 0.5 0
v -0.3 0.9 0
v -0.3 1 0
v -0.3 1.1 0
v -0.3 1.2 0
v -0.3 1.3 0
v -0.3 1.4 0
v -0.2 0.4 0
v -0.2 0.5 0
v -0.2 0.6 0
v -0.2 0.9 0
v -0.2 1 0
v -0.2 1.1 0
v -0.2 1.2 0
v -0.1 0 0
v -0.1 0.2 0
v -0.1 0.3 0
v -0.1 0.5 0
v -0.1 0.6 0
v 0 0 0
v 0 0.2 0
v 0 0.3 0
v 0 1.4 0
v 0 1.5 0
v 0.1 1.4 0
v 0.2 0 0
v 0.2 0.2 0
v 0.2 0.3 0
v 0.2 1.4 0
v 0.2 1.5 0
v 0.3 0 0
v 0.3 0.2 0
v 0.3 0.3 0
v 0.4 0.3 0
v 0.4 0.4 0
v 0.4 0.5 0
v 0.4 0.6 0
v 0.4 1.1 0
v 0.4 1.2 0
v 0.5 0.3 0
v 0.5 0.4 0
v 0.5 0.5 0
v 0.5 0.6 0
v 0.5 1.1 0
v 0.5 1.2 0
v 0.6 0.4 0
v 0.6 0.5 0
v -0.6 1.2 -0.1
v -0.6 1.3 -0.1
v -0.5 1.1 -0.1
v -0.5 1.2 -0.1
v -0.5 1.3 -0.1
v -0.5 1.4 -0.1
v -0.4 1.1 -0.1
v -0.4 1.2 -0.1
v -0.4 1.3 -0.1
v -0.4 1.4 -0.1
v -0.3 1.2 -0.1
v -0.3 1.3 -0.1
v -0.2 0.6 -0.1
v -0.2 0.7 -0.1
v -0.2 0.8 -0.1
v -0.2 0.9 -0.1
v -0.2 1.2 -0.1
v -0.2 1.3 -0.1
v -0.1 0.4 -0.1
v -0.1 0.6 -0.1
v -0.1 0.7 -0.1
v -0.1 0.8 -0.1
v -0.1 0.9 -0.1
v -0.1 1.3 -0.1
v -0.1 1.4 -0.1
v 0 0.4 -0.1
v 0 0.6 -0.1
v 0 0.8 -0.1
v 0 0.9 -0.1
v 0 1.3 -0.1
v 0.1 0.4 -0.1
v 0.1 0.6 -0.1
v 0.1 1.3 -0.1
v 0.1 1.4 -0.1
v 0.2 0.4 -0.1
v 0.2 0.5 -0.1
v 0.2 0.6 -0.1
v 0.2 0.8 -0.1
v 0.2 0.9 -0.1
v 0.2 1.3 -0.1
v 0.2 1.4 -0.1
v 0.3 0.4 -0.1
v 0.3 0.5 -0.1
v 0.3 0.8 -0.1
v 0.3 0.9 -0.1
v 0.3 1.3 -0.1
v 0.3 1.4 -0.1
v 0.4 0.8 -0.1
v 0.4 0.9 -0.1
v 0.4 1.2 -0.1
v 0.4 1.3 -0.1
v 0.5 1.2 -0.1
v 0.5 1.3 -0.1
v -0.3 0.9 -0.2
v -0.3 1 -0.2
v -0.3 1.2 -0.2
v -0.2 0.3 -0.2
v -0.2 0.4 -0.2
v -0.2 0.7 -0.2
v -0.2 0.8 -0.2
v -0.2 0.9 -0.2
v -0.2 1 -0.2
v -0.2 1.2 -0.2
v -0.2 1.3 -0.2
v -0.1 0.3 -0.2
v -0.1 0.4 -0.2
v -0.1 0.6 -0.2
v -0.1 0.7 -0.2
v -0.1 0.8 -0.2
v -0.1 0.9 -0.2
v -0.1 1.2 -0.2
v -0.1 1.3 -0.2
v 0 0.3 -0.2
v 0 0.4 -0.2
v 0 0.6 -0.2
v 0 0.7 -0.2
v 0 0.8 -0.2
v 0 0.9 -0.2
v 0 1.2 -0.2
v 0 1.3 -0.2
v 0.1 0.3 -0.2
v 0.1 0.4 -0.2
v 0.1 1.2 -0.2
v 0.1 1.3 -0.2
v 0.2 0.3 -0.2
v 0.2 0.4 -0.2
v 0.2 0.5 -0.2
v 0.2 0.6 -0.2
v 0.2 0.7 -0.2
v 0.2 0.8 -0.2
v 0.2 0.9 -0.2
v 0.2 1.2 -0.2
v 0.3 0.3 -0.2
v 0.3 0.4 -0.2
v 0.3 0.5 -0.2
v 0.3 0.6 -0.2
v 0.3 0.7 -0.2
v 0.3 0.8 -0.2
v 0.3 0.9 -0.2
v 0.3 1 -0.2
v 0.3 1.2 -0.2
v 0.4 0.3 -0.2
v 0.4 0.4 -0.2
v 0.4 0.6 -0.2
v 0.4 0.8 -0.2
v 0.4 0.9 -0.2
v 0.4 1 -0.2
v 0.4 1.2 -0.2
v 0.4 1.3 -0.2
v 0.5 1 -0.2
v 0.5 1.2 -0.2
v -0.2 0.9 -0.3
v -0.2 1.2 -0.3
v -0.1 0.7 -0.3
v -0.1 0.8 -0.3
v -0.1 0.9 -0.3
v -0.1 1 -0.3
v -0.1 1.1 -0.3
v 0 0.6 -0.3
v 0 0.7 -0.3
v 0 0.8 -0.3
v 0 1.1 -0.3
v 0.2 0.6 -0.3
v 0.2 0.7 -0.3
v 0.2 0.8 -0.3
v 0.2 1.1 -0.3
v 0.2 1.2 -0.3
v 0.3 0.7 -0.3
v 0.3 0.8 -0.3
v 0.3 1 -0.3
v 0.3 1.1 -0.3
v 0.3 1.2 -0.3
v 0.4 1 -0.3
v 0.4 1.2 -0.3
v -0.1 0.9 -0.4
v -0.1 1 -0.4
v -0.1 1.1 -0.4
v 0 1 -0.4
v 0 1.1 -0.4
v 0.1 0.9 -0.4
v 0.1 1 -0.4
v 0.2 0.9 -0.4
v 0.2 1 -0.4
v 0.3 0.9 -0.4
v 0.3 1.1 -0.4
v -0.5 0 0.1
v -0.4 0 0.1
v -0.1 0 0.1
v 0 0 0.1
v 0.2 0 0.1
v 0.3 0 0.1
v -0.5 0 0
v -0.4 0 0
v -0.1 0 0
v 0 0 0
v 0.2 0 0
v 0.3 0 0
v -0.2 0.3 0.3
v -0.1 0.3 0.3
v 0 0.3 0.3
v 0.1 0.3 0.3
v 0.2 0.3 0.3
v 0.3 0.3 0.3
v 0.4 0.3 0.3
v -0.2 0.3 0.2
v -0.1 0.3 0.2
v 0.3 0.3 0.2
v 0.4 0.3 0.2
v -0.4 0.3 0.1
v -0.3 0.3 0.1
v -0.2 0.3 0.1
v -0.1 0.3 0.1
v 0 0.3 0.1
v 0.2 0.3 0.1
v 0.3 0.3 0.1
v 0.4 0.3 0.1
v 0.5 0.3 0.1
v -0.4 0.3 0
v -0.3 0.3 0
v -0.2 0.3 0
v -0.1 0.3 0
v 0 0.3 0
v 0.2 0.3 0
v 0.3 0.3 0
v 0.4 0.3 0
v 0.5 0.3 0
v -0.2 0.3 -0.1
v -0.1 0.3 -0.1
v 0.3 0.3 -0.1
v 0.4 0.3 -0.1
v -0.2 0.3 -0.2
v -0.1 0.3 -0.2
v 0 0.3 -0.2
v 0.1 0.3 -0.2
v 0.2 0.3 -0.2
v 0.3 0.3 -0.2
v 0.4 0.3 -0.2
v -0.3 0.4 0.1
v -0.2 0.4 0.1
v 0.5 0.4 0.1
v 0.6 0.4 0.1
v -0.3 0.4 0
v -0.2 0.4 0
v 0.5 0.4 0
v 0.6 0.4 0
v -0.2 0.5 0.2
v -0.1 0.5 0.2
v 0.3 0.5 0.2
v 0.4 0.5 0.2
v -0.2 0.5 0.1
v -0.1 0.5 0.1
v 0.3 0.5 0.1
v 0.4 0.5 0.1
v 0.5 0.5 0.1
v -0.2 0.5 0
v -0.1 0.5 0
v 0.4 0.5 0
v 0.5 0.5 0
v 0.2 0.5 -0.1
v 0.3 0.5 -0.1
v 0.2 0.5 -0.2
v 0.3 0.5 -0.2
v -0.1 0.6 0.3
v 0 0.6 0.3
v 0.2 0.6 0.3
v 0.3 0.6 0.3
v -0.1 0.6 0.2
v 0 0.6 0.2
v 0.2 0.6 0.2
v 0.3 0.6 0.2
v 0.3 0.6 0.1
v 0.4 0.6 0.1
v -0.2 0.6 0
v -0.1 0.6 0
v 0.3 0.6 0
v 0.4 0.6 0
v -0.2 0.6 -0.1
v -0.1 0.6 -0.1
v 0 0.6 -0.1
v 0.1 0.6 -0.1
v 0.2 0.6 -0.1
v 0.3 0.6 -0.1
v -0.1 0.6 -0.2
v 0 0.6 -0.2
v 0.2 0.6 -0.2
v 0.3 0.6 -0.2
v 0.4 0.6 -0.2
v 0 0.6 -0.3
v 0.2 0.6 -0.3
v -0.2 0.7 0.3
v -0.1 0.7 0.3
v 0.3 0.7 0.3
v 0.4 0.7 0.3
v -0.2 0.7 0.2
v -0.1 0.7 0.2
v 0.3 0.7 0.2
v 0.4 0.7 0.2
v -0.2 0.7 -0.1
v -0.1 0.7 -0.1
v -0.2 0.7 -0.2
v -0.1 0.7 -0.2
v 0 0.7 -0.2
v 0.2 0.7 -0.2
v 0.3 0.7 -0.2
v -0.1 0.7 -0.3
v 0 0.7 -0.3
v 0.2 0.7 -0.3
v 0.3 0.7 -0.3
v -0.2 0.8 0.2
v -0.1 0.8 0.2
v 0.3 0.8 0.2
v 0.4 0.8 0.2
v -0.2 0.8 0.1
v -0.1 0.8 0.1
v 0.3 0.8 0.1
v 0.4 0.8 0.1
v -0.3 0.9 0.3
v -0.2 0.9 0.3
v 0 0.9 0.3
v 0.1 0.9 0.3
v -0.3 0.9 0.2
v -0.2 0.9 0.2
v 0 0.9 0.2
v 0.1 0.9 0.2
v -0.3 0.9 0.1
v -0.2 0.9 0.1
v -0.3 0.9 0
v -0.2 0.9 0
v -0.3 0.9 -0.1
v -0.2 0.9 -0.1
v -0.1 0.9 -0.1
v 0 0.9 -0.1
v 0.2 0.9 -0.1
v 0.3 0.9 -0.1
v 0.4 0.9 -0.1
v -0.3 0.9 -0.2
v -0.2 0.9 -0.2
v -0.1 0.9 -0.2
v 0 0.9 -0.2
v 0.2 0.9 -0.2
v 0.3 0.9 -0.2
v 0.4 0.9 -0.2
v -0.2 0.9 -0.3
v -0.1 0.9 -0.3
v 0 0.9 -0.3
v 0.1 0.9 -0.3
v 0.2 0.9 -0.3
v 0.3 0.9 -0.3
v -0.1 0.9 -0.4
v 0.1 0.9 -0.4
v 0.2 0.9 -0.4
v 0.3 0.9 -0.4
v -0.2 1 0.4
v -0.1 1 0.4
v 0.1 1 0.4
v 0.2 1 0.4
v 0.4 1 0.4
v -0.2 1 0.3
v -0.1 1 0.3
v 0 1 0.3
v 0.1 1 0.3
v 0.2 1 0.3
v 0.3 1 0.3
v 0.4 1 0.3
v 0.5 1 0.3
v -0.3 1 0.2
v -0.2 1 0.2
v -0.1 1 0.2
v 0 1 0.2
v 0.1 1 0.2
v 0.3 1 0.2
v 0.4 1 0.2
v -0.3 1 0.1
v -0.2 1 0.1
v 0.4 1 0.1
v 0.5 1 0.1
v -0.3 1 0
v -0.2 1 0
v 0.4 1 0
v 0.5 1 0
v -0.3 1 -0.1
v -0.2 1 -0.1
v 0.3 1 -0.2
v 0.4 1 -0.2
v 0.5 1 -0.2
v 0.3 1 -0.3
v 0.4 1 -0.3
v -0.5 1.1 0.2
v -0.4 1.1 0.2
v -0.6 1.1 0.1
v -0.5 1.1 0.1
v -0.4 1.1 0.1
v -0.3 1.1 0.1
v -0.2 1.1 0.1
v 0.4 1.1 0.1
v 0.5 1.1 0.1
v -0.6 1.1 0
v -0.5 1.1 0
v -0.4 1.1 0
v -0.3 1.1 0
v -0.2 1.1 0
v 0.4 1.1 0
v 0.5 1.1 0
v -0.5 1.1 -0.1
v -0.4 1.1 -0.1
v -0.6 1.2 0.2
v -0.5 1.2 0.2
v -0.4 1.2 0.2
v -0.3 1.2 0.2
v -0.2 1.2 0.2
v 0.4 1.2 0.2
v 0.5 1.2 0.2
v -0.6 1.2 0.1
v -0.5 1.2 0.1
v -0.4 1.2 0.1
v -0.3 1.2 0.1
v -0.2 1.2 0.1
v 0.4 1.2 0.1
v 0.5 1.2 0.1
v -0.6 1.2 0
v -0.5 1.2 0
v -0.4 1.2 0
v -0.3 1.2 0
v -0.2 1.2 0
v 0.4 1.2 0
v 0.5 1.2 0
v -0.6 1.2 -0.1
v -0.5 1.2 -0.1
v -0.4 1.2 -0.1
v -0.3 1.2 -0.1
v -0.2 1.2 -0.1
v 0.4 1.2 -0.1
v 0.5 1.2 -0.1
v -0.2 0.4 0.3
v -0.1 0.4 0.3
v 0 0.4 0.3
v 0.1 0.4 0.3
v 0.2 0.4 0.3
v 0.3 0.4 0.3
v 0.4 0.4 0.3
v -0.2 0.4 0.2
v -0.1 0.4 0.2
v 0 0.4 0.2
v 0.1 0.4 0.2
v 0.2 0.4 0.2
v 0.3 0.4 0.2
v 0.4 0.4 0.2
v -0.4 0.4 0.1
v -0.3 0.4 0.1
v -0.2 0.4 0.1
v -0.1 0.4 0.1
v 0.3 0.4 0.1
v 0.4 0.4 0.1
v 0.5 0.4 0.1
v -0.4 0.4 0
v -0.3 0.4 0
v -0.2 0.4 0
v -0.1 0.4 0
v 0.3 0.4 0
v 0.4 0.4 0
v 0.5 0.4 0
v -0.2 0.4 -0.1
v -0.1 0.4 -0.1
v 0 0.4 -0.1
v 0.1 0.4 -0.1
v 0.2 0.4 -0.1
v 0.3 0.4 -0.1
v 0.4 0.4 -0.1
v -0.2 0.4 -0.2
v -0.1 0.4 -0.2
v 0 0.4 -0.2
v 0.1 0.4 -0.2
v 0.2 0.4 -0.2
v 0.3 0.4 -0.2
v 0.4 0.4 -0.2
v -0.3 0.5 0.1
v -0.2 0.5 0.1
v 0.5 0.5 0.1
v 0.6 0.5 0.1
v -0.3 0.5 0
v -0.2 0.5 0
v 0.5 0.5 0
v 0.6 0.5 0
v 0.4 0.6 0.1
v 0.5 0.6 0.1
v 0.4 0.6 0
v 0.5 0.6 0
v -0.1 0.7 0.3
v 0 0.7 0.3
v 0.2 0.7 0.3
v 0.3 0.7 0.3
v -0.2 0.7 0.2
v -0.1 0.7 0.2
v 0 0.7 0.2
v 0.2 0.7 0.2
v 0.3 0.7 0.2
v 0.4 0.7 0.2
v -0.2 0.7 0.1
v -0.1 0.7 0.1
v 0.3 0.7 0.1
v 0.4 0.7 0.1
v 0 0.7 -0.2
v 0.2 0.7 -0.2
v 0 0.7 -0.3
v 0.2 0.7 -0.3
v -0.2 0.8 -0.1
v -0.1 0.8 -0.1
v 0 0.8 -0.1
v 0.2 0.8 -0.1
v 0.3 0.8 -0.1
v 0.4 0.8 -0.1
v -0.2 0.8 -0.2
v -0.1 0.8 -0.2
v 0 0.8 -0.2
v 0.2 0.8 -0.2
v 0.3 0.8 -0.2
v 0.4 0.8 -0.2
v -0.1 0.8 -0.3
v 0 0.8 -0.3
v 0.2 0.8 -0.3
v 0.3 0.8 -0.3
v -0.3 1 0.1
v -0.2 1 0.1
v -0.3 1 0
v -0.2 1 0
v -0.3 1.1 0.2
v -0.2 1.1 0.2
v 0.4 1.1 0.2
v 0.5 1.1 0.2
v -0.3 1.1 0.1
v -0.2 1.1 0.1
v 0.4 1.1 0.1
v 0.5 1.1 0.1
v -0.3 1.1 0
v -0.2 1.1 0
v 0.4 1.1 0
v 0.5 1.1 0
v -0.3 1.1 -0.1
v -0.2 1.1 -0.1
v 0.4 1.1 -0.1
v 0.5 1.1 -0.1
v -0.1 1.1 -0.3
v 0 1.1 -0.3
v 0.2 1.1 -0.3
v 0.3 1.1 -0.3
v -0.1 1.1 -0.4
v 0 1.1 -0.4
v 0.3 1.1 -0.4
v -0.2 1.2 0.4
v 0.4 1.2 0.4
v -0.3 1.2 0.3
v -0.2 1.2 0.3
v 0.2 1.2 0.3
v 0.3 1.2 0.3
v 0.4 1.2 0.3
v 0.5 1.2 0.3
v -0.3 1.2 0.2
v -0.2 1.2 0.2
v 0.4 1.2 0.2
v 0.5 1.2 0.2
v -0.3 1.2 -0.1
v -0.2 1.2 -0.1
v 0.4 1.2 -0.1
v 0.5 1.2 -0.1
v -0.3 1.2 -0.2
v -0.2 1.2 -0.2
v -0.1 1.2 -0.2
v 0 1.2 -0.2
v 0.1 1.2 -0.2
v 0.2 1.2 -0.2
v 0.3 1.2 -0.2
v 0.4 1.2 -0.2
v 0.5 1.2 -0.2
v -0.2 1.2 -0.3
v 0.2 1.2 -0.3
v 0.3 1.2 -0.3
v 0.4 1.2 -0.3
v -0.2 1.3 0.3
v 0.2 1.3 0.3
v 0.3 1.3 0.3
v 0.4 1.3 0.3
v -0.6 1.3 0.2
v -0.5 1.3 0.2
v -0.4 1.3 0.2
v -0.3 1.3 0.2
v -0.2 1.3 0.2
v -0.1 1.3 0.2
v 0 1.3 0.2
v 0.2 1.3 0.2
v 0.3 1.3 0.2
v 0.4 1.3 0.2
v 0.5 1.3 0.2
v -0.6 1.3 0.1
v -0.5 1.3 0.1
v -0.4 1.3 0.1
v -0.3 1.3 0.1
v -0.2 1.3 0.1
v -0.1 1.3 0.1
v 0.4 1.3 0.1
v 0.5 1.3 0.1
v -0.6 1.3 0
v -0.5 1.3 0
v -0.4 1.3 0
v -0.3 1.3 0
v -0.2 1.3 0
v 0.4 1.3 0
v 0.5 1.3 0
v -0.6 1.3 -0.1
v -0.5 1.3 -0.1
v -0.4 1.3 -0.1
v -0.3 1.3 -0.1
v -0.2 1.3 -0.1
v -0.1 1.3 -0.1
v 0 1.3 -0.1
v 0.1 1.3 -0.1
v 0.2 1.3 -0.1
v 0.3 1.3 -0.1
v 0.4 1.3 -0.1
v 0.5 1.3 -0.1
v -0.2 1.3 -0.2
v -0.1 1.3 -0.2
v 0 1.3 -0.2
v 0.1 1.3 -0.2
v 0.4 1.3 -0.2
v -0.5 1.4 0.2
v -0.4 1.4 0.2
v -0.1 1.4 0.2
v 0 1.4 0.2
v 0.3 1.4 0.2
v -0.6 1.4 0.1
v -0.5 1.4 0.1
v -0.4 1.4 0.1
v -0.3 1.4 0.1
v -0.1 1.4 0.1
v 0 1.4 0.1
v 0.2 1.4 0.1
v -0.6 1.4 0
v -0.5 1.4 0
v -0.4 1.4 0
v -0.3 1.4 0
v 0 1.4 0
v 0.1 1.4 0
v 0.2 1.4 0
v -0.5 1.4 -0.1
v -0.4 1.4 -0.1
v -0.1 1.4 -0.1
v 0.1 1.4 -0.1
v 0.2 1.4 -0.1
v 0.3 1.4 -0.1
v 0 1.5 0.1
v 0.2 1.5 0.1
v 0 1.5 0
v 0.2 1.5 0

# faces
f 4/14/1 2/14/1 1/14/1
f 5/14/1 2/14/1 4/14/1
f 7/14/1 4/14/1 3/14/1
f 7/14/1 6/14/1 5/14/1
f 7/14/1 5/14/1 4/14/1
f 8/14/1 6/14/1 7/14/1
f 9/14/1 6/14/1 8/14/1
f 10/14/1 6/14/1 9/14/1
f 11/14/1 9/14/1 8/14/1
f 12/14/1 9/14/1 11/14/1
f 16/7/1 14/7/1 13/7/1
f 17/7/1 14/7/1 16/7/1
f 19/14/1 16/14/1 15/14/1
f 20/14/1 16/14/1 19/14/1
f 21/14/1 18/14/1 17/14/1
f 22/14/1 18/14/1 21/14/1
f 27/14/1 24/14/1 23/14/1
f 28/14/1 24/14/1 27/14/1
f 29/14/1 26/14/1 25/14/1
f 30/14/1 26/14/1 29/14/1
f 33/13/1 32/13/1 31/13/1
f 34/13/1 32/13/1 33/13/1
f 41/16/1 36/16/1 35/16/1
f 42/16/1 38/16/1 37/16/1
f 43/16/1 38/16/1 42/16/1
f 44/9/1 40/9/1 39/9/1
f 45/9/1 40/9/1 44/9/1
f 46/16/1 41/16/1 35/16/1
f 46/16/1 42/16/1 41/16/1
f 47/16/1 42/16/1 46/16/1
f 48/9/1 44/9/1 43/9/1
f 49/16/1 45/16/1 44/16/1
f 49/9/1 44/9/1 48/9/1
f 50/16/1 46/16/1 35/16/1
f 51/16/1 46/16/1 50/16/1
f 52/16/1 45/16/1 49/16/1
f 53/16/1 45/16/1 52/16/1
f 60/15/1 55/15/1 54/15/1
f 61/11/1 56/11/1 55/11/1
f 61/15/1 55/15/1 60/15/1
f 62/15/1 57/15/1 56/15/1
f 62/11/1 56/11/1 61/11/1
f 63/11/1 58/11/1 57/11/1
f 63/15/1 57/15/1 62/15/1
f 64/15/1 59/15/1 58/15/1
f 64/11/1 58/11/1 63/11/1
f 65/15/1 59/15/1 64/15/1
f 69/4/1 67/4/1 66/4/1
f 69/1/1 68/1/1 67/1/1
f 70/1/1 68/1/1 69/1/1
f 73/4/1 69/4/1 66/4/1
f 74/15/1 70/15/1 69/15/1
f 74/4/1 69/4/1 73/4/1
f 75/4/1 71/4/1 70/4/1
f 75/15/1 70/15/1 74/15/1
f 76/4/1 71/4/1 75/4/1
f 78/4/1 73/4/1 72/4/1
f 79/4/1 77/4/1 76/4/1
f 79/4/1 76/4/1 75/4/1
f 79/4/1 75/4/1 74/4/1
f 80/4/1 77/4/1 79/4/1
f 81/4/1 77/4/1 80/4/1
f 82/4/1 78/4/1 72/4/1
f 83/2/1 79/2/1 78/2/1
f 83/4/1 78/4/1 82/4/1
f 84/4/1 80/4/1 79/4/1
f 84/2/1 79/2/1 83/2/1
f 85/4/1 80/4/1 84/4/1
f 86/4/1 80/4/1 85/4/1
f 91/5/1 84/5/1 83/5/1
f 92/5/1 84/5/1 91/5/1
f 93/4/1 86/4/1 85/4/1
f 94/4/1 86/4/1 93/4/1
f 95/16/1 88/16/1 87/16/1
f 96/9/1 90/9/1 89/9/1
f 97/9/1 90/9/1 96/9/1
f 99/16/1 93/16/1 92/16/1
f 100/16/1 93/16/1 99/16/1
f 102/16/1 97/16/1 96/16/1
f 103/16/1 97/16/1 102/16/1
f 104/16/1 99/16/1 98/16/1
f 105/16/1 99/16/1 104/16/1
f 106/16/1 101/16/1 100/16/1
f 107/16/1 101/16/1 106/16/1
f 108/16/1 88/16/1 95/16/1
f 109/16/1 88/16/1 108/16/1
f 110/16/1 104/16/1 103/16/1
f 111/16/1 104/16/1 110/16/1
f 112/9/1 108/9/1 107/9/1
f 113/9/1 108/9/1 112/9/1
f 116/8/1 115/8/1 114/8/1
f 117/8/1 115/8/1 116/8/1
f 118/1/1 117/1/1 116/1/1
f 119/1/1 117/1/1 118/1/1
f 124/11/1 121/11/1 120/11/1
f 125/15/1 122/15/1 121/15/1
f 125/11/1 121/11/1 124/11/1
f 126/11/1 123/11/1 122/11/1
f 126/15/1 122/15/1 125/15/1
f 129/11/1 123/11/1 126/11/1
f 130/11/1 123/11/1 129/11/1
f 132/4/1 128/4/1 127/4/1
f 133/4/1 128/4/1 132/4/1
f 135/4/1 131/4/1 130/4/1
f 136/4/1 131/4/1 135/4/1
f 138/6/1 134/6/1 133/6/1
f 139/6/1 134/6/1 138/6/1
f 141/4/1 137/4/1 136/4/1
f 142/4/1 137/4/1 141/4/1
f 143/4/1 141/4/1 140/4/1
f 144/4/1 141/4/1 143/4/1
f 147/16/1 146/16/1 145/16/1
f 148/16/1 146/16/1 147/16/1
f 149/9/1 148/9/1 147/9/1
f 150/9/1 148/9/1 149/9/1
f 154/9/1 152/9/1 151/9/1
f 155/16/1 153/16/1 152/16/1
f 155/9/1 152/9/1 154/9/1
f 156/16/1 153/16/1 155/16/1
f 159/4/1 158/4/1 157/4/1
f 160/4/1 158/4/1 159/4/1
f 163/4/1 162/4/1 161/4/1
f 164/4/1 162/4/1 163/4/1
f 167/16/1 166/16/1 165/16/1
f 168/16/1 166/16/1 167/16/1
f 171/8/1 170/8/1 169/8/1
f 172/8/1 170/8/1 171/8/1
f 173/1/1 172/1/1 171/1/1
f 174/1/1 172/1/1 173/1/1
f 179/10/1 176/10/1 175/10/1
f 180/10/1 176/10/1 179/10/1
f 181/4/1 178/4/1 177/4/1
f 182/4/1 178/4/1 181/4/1
f 186/4/1 184/4/1 183/4/1
f 187/4/1 184/4/1 186/4/1
f 188/4/1 186/4/1 185/4/1
f 189/4/1 186/4/1 188/4/1
f 192/4/1 191/4/1 190/4/1
f 193/4/1 192/4/1 190/4/1
f 194/4/1 193/4/1 190/4/1
f 195/4/1 193/4/1 194/4/1
f 198/6/1 197/6/1 196/6/1
f 199/6/1 197/6/1 198/6/1
f 202/6/1 201/6/1 200/6/1
f 203/6/1 201/6/1 202/6/1
f 204/7/2 205/7/2 206/7/2
f 206/7/2 205/7/2 207/7/2
f 208/7/2 209/7/2 211/7/2
f 211/7/2 209/7/2 212/7/2
f 210/14/2 211/14/2 214/14/2
f 214/14/2 211/14/2 215/14/2
f 212/14/2 213/14/2 216/14/2
f 216/14/2 213/14/2 217/14/2
f 218/14/2 219/14/2 222/14/2
f 222/14/2 219/14/2 223/14/2
f 220/14/2 221/14/2 224/14/2
f 224/14/2 221/14/2 225/14/2
f 226/6/2 227/6/2 228/6/2
f 228/6/2 227/6/2 229/6/2
f 230/14/2 231/14/2 232/14/2
f 232/14/2 231/14/2 233/14/2
f 234/13/2 235/13/2 236/13/2
f 236/13/2 235/13/2 237/13/2
f 238/4/2 239/4/2 240/4/2
f 238/4/2 240/4/2 241/4/2
f 238/4/2 241/4/2 242/4/2
f 242/4/2 241/4/2 243/4/2
f 244/8/2 245/8/2 246/8/2
f 246/8/2 245/8/2 247/8/2
f 246/1/2 247/1/2 248/1/2
f 248/1/2 247/1/2 249/1/2
f 250/4/2 251/4/2 252/4/2
f 252/4/2 251/4/2 253/4/2
f 254/4/2 255/4/2 257/4/2
f 257/4/2 255/4/2 258/4/2
f 256/4/2 257/4/2 259/4/2
f 259/4/2 257/4/2 260/4/2
f 261/4/2 262/4/2 263/4/2
f 263/4/2 262/4/2 264/4/2
f 265/4/2 266/4/2 267/4/2
f 267/4/2 266/4/2 268/4/2
f 269/16/2 270/16/2 271/16/2
f 271/16/2 270/16/2 272/16/2
f 273/8/2 274/8/2 275/8/2
f 275/8/2 274/8/2 276/8/2
f 275/1/2 276/1/2 277/1/2
f 277/1/2 276/1/2 278/1/2
f 279/15/2 280/15/2 283/15/2
f 280/11/2 281/11/2 284/11/2
f 283/15/2 280/15/2 284/15/2
f 281/15/2 282/15/2 285/15/2
f 284/11/2 281/11/2 285/11/2
f 285/15/2 282/15/2 286/15/2
f 284/13/2 285/13/2 290/13/2
f 285/13/2 286/13/2 290/13/2
f 290/13/2 286/13/2 291/13/2
f 286/10/2 287/10/2 292/10/2
f 291/13/2 286/13/2 292/13/2
f 292/10/2 287/10/2 293/10/2
f 288/4/2 289/4/2 294/4/2
f 294/4/2 289/4/2 295/4/2
f 295/6/2 296/6/2 299/6/2
f 299/6/2 296/6/2 300/6/2
f 297/4/2 298/4/2 302/4/2
f 302/4/2 298/4/2 303/4/2
f 301/4/2 302/4/2 304/4/2
f 304/4/2 302/4/2 305/4/2
f 305/4/2 306/4/2 308/4/2
f 306/16/2 307/16/2 309/16/2
f 308/4/2 306/4/2 309/4/2
f 309/16/2 307/16/2 310/16/2
f 310/16/2 307/16/2 311/16/2
f 312/16/2 313/16/2 314/16/2
f 314/16/2 313/16/2 315/16/2
f 316/11/2 317/11/2 322/11/2
f 317/15/2 318/15/2 323/15/2
f 322/11/2 317/11/2 323/11/2
f 323/15/2 318/15/2 324/15/2
f 319/15/2 320/15/2 325/15/2
f 320/11/2 321/11/2 326/11/2
f 325/15/2 320/15/2 326/15/2
f 326/11/2 321/11/2 327/11/2
f 328/4/2 329/4/2 330/4/2
f 328/4/2 330/4/2 334/4/2
f 330/15/2 331/15/2 335/15/2
f 334/4/2 330/4/2 335/4/2
f 331/4/2 332/4/2 336/4/2
f 335/15/2 331/15/2 336/15/2
f 333/4/2 334/4/2 337/4/2
f 335/3/2 336/3/2 338/3/2
f 336/4/2 332/4/2 339/4/2
f 338/3/2 336/3/2 339/3/2
f 339/4/2 332/4/2 340/4/2
f 340/4/2 332/4/2 341/4/2
f 337/4/2 338/4/2 342/4/2
f 333/4/2 337/4/2 342/4/2
f 339/4/2 340/4/2 342/4/2
f 338/4/2 339/4/2 342/4/2
f 342/4/2 340/4/2 343/4/2
f 343/4/2 340/4/2 344/4/2
f 333/4/2 342/4/2 347/4/2
f 342/5/2 343/5/2 348/5/2
f 347/4/2 342/4/2 348/4/2
f 344/4/2 345/4/2 349/4/2
f 348/5/2 343/5/2 349/5/2
f 343/4/2 344/4/2 349/4/2
f 349/4/2 345/4/2 350/4/2
f 350/4/2 345/4/2 351/4/2
f 346/16/2 347/16/2 353/16/2
f 349/16/2 350/16/2 355/16/2
f 355/16/2 350/16/2 356/16/2
f 346/16/2 353/16/2 358/16/2
f 358/16/2 353/16/2 359/16/2
f 354/16/2 355/16/2 360/16/2
f 360/16/2 355/16/2 361/16/2
f 356/16/2 357/16/2 362/16/2
f 362/16/2 357/16/2 363/16/2
f 351/16/2 352/16/2 364/16/2
f 364/16/2 352/16/2 365/16/2
f 359/16/2 360/16/2 366/16/2
f 366/16/2 360/16/2 367/16/2
f 363/16/2 364/16/2 368/16/2
f 368/16/2 364/16/2 369/16/2
f 370/6/2 371/6/2 372/6/2
f 372/6/2 371/6/2 373/6/2
f 374/6/2 375/6/2 376/6/2
f 376/6/2 375/6/2 377/6/2
f 378/16/2 379/16/2 382/16/2
f 382/16/2 379/16/2 383/16/2
f 383/16/2 379/16/2 384/16/2
f 380/16/2 381/16/2 385/16/2
f 385/16/2 381/16/2 386/16/2
f 382/9/2 383/9/2 387/9/2
f 387/9/2 383/9/2 388/9/2
f 384/16/2 385/16/2 389/16/2
f 389/16/2 385/16/2 390/16/2
f 386/16/2 381/16/2 391/16/2
f 391/16/2 381/16/2 392/16/2
f 388/16/2 389/16/2 393/16/2
f 389/9/2 390/9/2 394/9/2
f 393/16/2 389/16/2 394/16/2
f 390/16/2 391/16/2 395/16/2
f 394/9/2 390/9/2 395/9/2
f 395/16/2 391/16/2 396/16/2
f 397/6/2 398/6/2 399/6/2
f 399/6/2 398/6/2 400/6/2
f 404/9/3 402/9/3 401/9/3
f 405/16/3 403/16/3 402/16/3
f 405/9/3 402/9/3 404/9/3
f 406/16/3 405/16/3 404/16/3
f 407/16/3 403/16/3 405/16/3
f 407/16/3 405/16/3 406/16/3
f 408/9/3 407/9/3 406/9/3
f 409/16/3 403/16/3 407/16/3
f 409/9/3 407/9/3 408/9/3
f 410/16/3 409/16/3 408/16/3
f 411/16/3 403/16/3 409/16/3
f 411/16/3 409/16/3 410/16/3
f 417/16/3 413/16/3 412/16/3
f 418/16/3 413/16/3 417/16/3
f 419/16/3 413/16/3 418/16/3
f 420/16/3 413/16/3 419/16/3
f 422/15/3 415/15/3 414/15/3
f 423/15/3 415/15/3 422/15/3
f 425/4/3 417/4/3 416/4/3
f 425/4/3 418/4/3 417/4/3
f 426/4/3 418/4/3 425/4/3
f 427/11/3 423/11/3 422/11/3
f 428/11/3 423/11/3 427/11/3
f 429/4/3 425/4/3 424/4/3
f 430/4/3 425/4/3 429/4/3
f 433/15/3 428/15/3 427/15/3
f 434/15/3 428/15/3 433/15/3
f 435/4/3 432/4/3 431/4/3
f 436/4/3 432/4/3 435/4/3
f 437/11/3 434/11/3 433/11/3
f 438/11/3 434/11/3 437/11/3
f 441/16/3 421/16/3 420/16/3
f 442/16/3 421/16/3 441/16/3
f 443/15/3 438/15/3 437/15/3
f 444/15/3 438/15/3 443/15/3
f 445/4/3 440/4/3 439/4/3
f 446/4/3 440/4/3 445/4/3
f 448/9/3 442/9/3 441/9/3
f 449/9/3 442/9/3 448/9/3
f 450/11/3 444/11/3 443/11/3
f 451/11/3 444/11/3 450/11/3
f 452/4/3 447/4/3 446/4/3
f 453/4/3 447/4/3 452/4/3
f 455/16/3 449/16/3 448/16/3
f 456/16/3 449/16/3 455/16/3
f 457/16/3 454/16/3 453/16/3
f 458/9/3 455/9/3 454/9/3
f 458/16/3 454/16/3 457/16/3
f 459/9/3 455/9/3 458/9/3
f 463/14/3 461/14/3 460/14/3
f 464/14/3 461/14/3 463/14/3
f 466/14/3 463/14/3 462/14/3
f 466/14/3 465/14/3 464/14/3
f 466/14/3 464/14/3 463/14/3
f 467/14/3 465/14/3 466/14/3
f 468/14/3 465/14/3 467/14/3
f 469/14/3 465/14/3 468/14/3
f 470/14/3 468/14/3 467/14/3
f 471/14/3 468/14/3 470/14/3
f 474/16/3 471/16/3 470/16/3
f 475/16/3 471/16/3 474/16/3
f 477/4/3 473/4/3 472/4/3
f 478/4/3 473/4/3 477/4/3
f 479/4/3 473/4/3 478/4/3
f 485/11/3 477/11/3 476/11/3
f 485/11/3 478/11/3 477/11/3
f 486/11/3 478/11/3 485/11/3
f 487/6/3 480/6/3 479/6/3
f 488/17/3 481/17/3 480/17/3
f 488/6/3 480/6/3 487/6/3
f 489/4/3 482/4/3 481/4/3
f 489/17/3 481/17/3 488/17/3
f 490/4/3 482/4/3 489/4/3
f 491/9/3 484/9/3 483/9/3
f 492/9/3 484/9/3 491/9/3
f 493/15/3 486/15/3 485/15/3
f 494/12/3 487/12/3 486/12/3
f 494/15/3 486/15/3 493/15/3
f 495/6/3 488/6/3 487/6/3
f 495/12/3 487/12/3 494/12/3
f 495/6/3 489/6/3 488/6/3
f 496/6/3 489/6/3 495/6/3
f 498/11/3 494/11/3 493/11/3
f 498/11/3 495/11/3 494/11/3
f 499/11/3 495/11/3 498/11/3
f 500/11/3 495/11/3 499/11/3
f 501/6/3 496/6/3 495/6/3
f 501/11/3 495/11/3 500/11/3
f 502/6/3 496/6/3 501/6/3
f 503/4/3 497/4/3 496/4/3
f 503/6/3 496/6/3 502/6/3
f 504/16/3 492/16/3 491/16/3
f 505/15/3 499/15/3 498/15/3
f 506/11/3 500/11/3 499/11/3
f 506/15/3 499/15/3 505/15/3
f 507/11/3 500/11/3 506/11/3
f 508/6/3 502/6/3 501/6/3
f 509/17/3 503/17/3 502/17/3
f 509/6/3 502/6/3 508/6/3
f 510/4/3 497/4/3 503/4/3
f 510/17/3 503/17/3 509/17/3
f 511/4/3 497/4/3 510/4/3
f 512/16/3 492/16/3 504/16/3
f 513/16/3 492/16/3 512/16/3
f 514/4/3 507/4/3 506/4/3
f 514/4/3 508/4/3 507/4/3
f 515/4/3 508/4/3 514/4/3
f 518/16/3 517/16/3 516/16/3
f 519/16/3 517/16/3 518/16/3
f 525/14/3 521/14/3 520/14/3
f 526/14/3 521/14/3 525/14/3
f 527/14/3 523/14/3 522/14/3
f 528/14/3 523/14/3 527/14/3
f 529/7/3 525/7/3 524/7/3
f 530/7/3 525/7/3 529/7/3
f 531/7/3 525/7/3 530/7/3
f 532/7/3 525/7/3 531/7/3
f 536/6/3 531/6/3 530/6/3
f 537/6/3 531/6/3 536/6/3
f 541/14/3 533/14/3 532/14/3
f 542/14/3 533/14/3 541/14/3
f 543/14/3 535/14/3 534/14/3
f 544/14/3 535/14/3 543/14/3
f 545/13/3 538/13/3 537/13/3
f 546/13/3 538/13/3 545/13/3
f 549/16/3 540/16/3 539/16/3
f 550/16/3 540/16/3 549/16/3
f 551/16/3 542/16/3 541/16/3
f 552/16/3 542/16/3 551/16/3
f 556/4/3 548/4/3 547/4/3
f 557/4/3 548/4/3 556/4/3
f 558/8/3 554/8/3 553/8/3
f 559/1/3 555/1/3 554/1/3
f 559/8/3 554/8/3 558/8/3
f 560/1/3 555/1/3 559/1/3
f 566/16/3 562/16/3 561/16/3
f 567/16/3 562/16/3 566/16/3
f 568/8/3 564/8/3 563/8/3
f 569/1/3 565/1/3 564/1/3
f 569/8/3 564/8/3 568/8/3
f 570/1/3 565/1/3 569/1/3
f 577/3/3 572/3/3 571/3/3
f 578/3/3 572/3/3 577/3/3
f 581/6/3 574/6/3 573/6/3
f 582/6/3 574/6/3 581/6/3
f 583/6/3 576/6/3 575/6/3
f 584/6/3 576/6/3 583/6/3
f 585/16/3 580/16/3 579/16/3
f 586/16/3 580/16/3 585/16/3
f 587/6/3 583/6/3 582/6/3
f 588/6/3 583/6/3 587/6/3
f 591/9/3 590/9/3 589/9/3
f 592/9/3 590/9/3 591/9/3
f 595/16/3 594/16/3 593/16/3
f 596/16/3 594/16/3 595/16/3
f 601/9/3 598/9/3 597/9/3
f 602/9/3 598/9/3 601/9/3
f 603/16/3 600/16/3 599/16/3
f 604/16/3 600/16/3 603/16/3
f 607/16/3 606/16/3 605/16/3
f 608/16/3 606/16/3 607/16/3
f 609/16/4 610/16/4 615/16/4
f 615/16/4 610/16/4 616/16/4
f 611/16/4 612/16/4 617/16/4
f 617/16/4 612/16/4 618/16/4
f 613/4/4 614/4/4 619/4/4
f 619/4/4 614/4/4 620/4/4
f 621/4/4 622/4/4 623/4/4
f 623/4/4 622/4/4 624/4/4
f 625/9/4 626/9/4 627/9/4
f 627/9/4 626/9/4 628/9/4
f 629/16/4 630/16/4 631/16/4
f 631/16/4 630/16/4 632/16/4
f 633/4/4 634/4/4 635/4/4
f 635/4/4 634/4/4 636/4/4
f 637/16/4 638/16/4 639/16/4
f 639/16/4 638/16/4 640/16/4
f 641/14/4 642/14/4 646/14/4
f 646/14/4 642/14/4 647/14/4
f 643/14/4 644/14/4 648/14/4
f 648/14/4 644/14/4 649/14/4
f 645/7/4 646/7/4 650/7/4
f 650/7/4 646/7/4 651/7/4
f 651/7/4 646/7/4 652/7/4
f 652/7/4 646/7/4 653/7/4
f 651/6/4 652/6/4 657/6/4
f 657/6/4 652/6/4 658/6/4
f 653/14/4 654/14/4 662/14/4
f 662/14/4 654/14/4 663/14/4
f 655/14/4 656/14/4 664/14/4
f 664/14/4 656/14/4 665/14/4
f 658/13/4 659/13/4 666/13/4
f 666/13/4 659/13/4 667/13/4
f 660/16/4 661/16/4 669/16/4
f 669/16/4 661/16/4 670/16/4
f 662/16/4 663/16/4 671/16/4
f 671/16/4 663/16/4 672/16/4
f 667/1/4 668/1/4 676/1/4
f 676/1/4 668/1/4 677/1/4
f 673/8/4 674/8/4 678/8/4
f 674/1/4 675/1/4 679/1/4
f 678/8/4 674/8/4 679/8/4
f 679/1/4 675/1/4 680/1/4
f 681/16/4 682/16/4 683/16/4
f 683/16/4 682/16/4 687/16/4
f 687/16/4 682/16/4 688/16/4
f 684/8/4 685/8/4 689/8/4
f 685/1/4 686/1/4 690/1/4
f 689/8/4 685/8/4 690/8/4
f 690/1/4 686/1/4 691/1/4
f 692/6/4 693/6/4 698/6/4
f 698/6/4 693/6/4 699/6/4
f 694/6/4 695/6/4 700/6/4
f 700/6/4 695/6/4 701/6/4
f 696/16/4 697/16/4 702/16/4
f 702/16/4 697/16/4 703/16/4
f 699/6/4 700/6/4 704/6/4
f 704/6/4 700/6/4 705/6/4
f 706/14/4 707/14/4 709/14/4
f 709/14/4 707/14/4 710/14/4
f 708/14/4 709/14/4 712/14/4
f 710/14/4 711/14/4 712/14/4
f 709/14/4 710/14/4 712/14/4
f 712/14/4 711/14/4 713/14/4
f 713/14/4 711/14/4 714/14/4
f 714/14/4 711/14/4 715/14/4
f 713/14/4 714/14/4 716/14/4
f 716/14/4 714/14/4 717/14/4
f 716/16/4 717/16/4 722/16/4
f 722/16/4 717/16/4 723/16/4
f 718/4/4 719/4/4 725/4/4
f 725/4/4 719/4/4 726/4/4
f 720/4/4 721/4/4 727/4/4
f 727/4/4 721/4/4 728/4/4
f 724/11/4 725/11/4 731/11/4
f 731/11/4 725/11/4 732/11/4
f 729/16/4 730/16/4 735/16/4
f 731/15/4 732/15/4 736/15/4
f 736/15/4 732/15/4 737/15/4
f 735/16/4 730/16/4 738/16/4
f 738/16/4 730/16/4 739/16/4
f 736/11/4 737/11/4 740/11/4
f 740/11/4 737/11/4 741/11/4
f 741/11/4 737/11/4 742/11/4
f 733/4/4 734/4/4 743/4/4
f 743/4/4 734/4/4 744/4/4
f 738/9/4 739/9/4 745/9/4
f 745/9/4 739/9/4 746/9/4
f 740/15/4 741/15/4 747/15/4
f 747/15/4 741/15/4 748/15/4
f 745/16/4 746/16/4 751/16/4
f 751/16/4 746/16/4 752/16/4
f 749/4/4 750/4/4 753/4/4
f 753/4/4 750/4/4 754/4/4
f 755/16/4 756/16/4 757/16/4
f 757/16/4 756/16/4 758/16/4
f 759/9/4 760/9/4 766/9/4
f 760/16/4 761/16/4 767/16/4
f 766/9/4 760/9/4 767/9/4
f 767/16/4 761/16/4 768/16/4
f 762/15/4 763/15/4 770/15/4
f 770/15/4 763/15/4 771/15/4
f 764/4/4 765/4/4 773/4/4
f 773/4/4 765/4/4 774/4/4
f 768/9/4 769/9/4 776/9/4
f 776/9/4 769/9/4 777/9/4
f 770/11/4 771/11/4 778/11/4
f 778/11/4 771/11/4 779/11/4
f 772/4/4 773/4/4 780/4/4
f 780/4/4 773/4/4 781/4/4
f 774/4/4 775/4/4 782/4/4
f 782/4/4 775/4/4 783/4/4
f 776/16/4 777/16/4 784/16/4
f 784/16/4 777/16/4 785/16/4
f 778/15/4 779/15/4 786/15/4
f 786/15/4 779/15/4 787/15/4
f 784/9/4 785/9/4 788/9/4
f 788/9/4 785/9/4 789/9/4
f 786/11/4 787/11/4 790/11/4
f 790/11/4 787/11/4 791/11/4
f 781/4/4 782/4/4 794/4/4
f 794/4/4 782/4/4 795/4/4
f 788/16/4 789/16/4 797/16/4
f 790/15/4 791/15/4 798/15/4
f 798/15/4 791/15/4 799/15/4
f 792/10/4 793/10/4 800/10/4
f 793/3/4 794/3/4 801/3/4
f 800/10/4 793/10/4 801/10/4
f 801/3/4 794/3/4 802/3/4
f 795/4/4 796/4/4 803/4/4
f 803/4/4 796/4/4 804/4/4
f 797/16/4 789/16/4 806/16/4
f 798/11/4 799/11/4 807/11/4
f 807/11/4 799/11/4 808/11/4
f 801/4/4 802/4/4 809/4/4
f 802/4/4 803/4/4 809/4/4
f 809/4/4 803/4/4 810/4/4
f 804/4/4 805/4/4 811/4/4
f 811/4/4 805/4/4 812/4/4
f 806/16/4 789/16/4 813/16/4
f 813/16/4 789/16/4 814/16/4
f 812/16/4 813/16/4 815/16/4
f 815/16/4 813/16/4 816/16/4
f 817/16/4 818/16/4 821/16/4
f 821/16/4 818/16/4 822/16/4
f 822/16/4 818/16/4 823/16/4
f 819/4/4 820/4/4 825/4/4
f 825/4/4 820/4/4 826/4/4
f 823/16/4 818/16/4 827/16/4
f 824/4/4 825/4/4 828/4/4
f 828/4/4 825/4/4 829/4/4
f 827/16/4 818/16/4 831/16/4
f 831/16/4 818/16/4 832/16/4
f 829/4/4 830/4/4 833/4/4
f 833/4/4 830/4/4 834/4/4
f 831/9/4 832/9/4 836/9/4
f 836/9/4 832/9/4 837/9/4
f 835/16/4 836/16/4 838/16/4
f 836/16/4 837/16/4 838/16/4
f 838/16/4 837/16/4 839/16/4
f 840/16/4 841/16/4 843/16/4
f 841/9/4 842/9/4 843/9/4
f 843/9/4 842/9/4 844/9/4
f 840/16/4 843/16/4 845/16/4
f 843/16/4 844/16/4 845/16/4
f 845/16/4 844/16/4 846/16/4
f 845/9/4 846/9/4 847/9/4
f 846/16/4 844/16/4 848/16/4
f 847/9/4 846/9/4 848/9/4
f 847/16/4 848/16/4 849/16/4
f 848/16/4 844/16/4 850/16/4
f 849/16/4 848/16/4 850/16/4
f 857/7/5 852/7/5 851/7/5
f 858/7/5 852/7/5 857/7/5
f 859/8/5 854/8/5 853/8/5
f 860/8/5 854/8/5 859/8/5
f 861/8/5 856/8/5 855/8/5
f 862/8/5 856/8/5 861/8/5
f 870/15/5 864/15/5 863/15/5
f 871/11/5 865/11/5 864/11/5
f 871/15/5 864/15/5 870/15/5
f 872/11/5 869/11/5 868/11/5
f 872/15/5 868/15/5 867/15/5
f 873/11/5 869/11/5 872/11/5
f 876/11/5 871/11/5 870/11/5
f 877/11/5 865/11/5 871/11/5
f 877/11/5 871/11/5 876/11/5
f 878/15/5 866/15/5 865/15/5
f 878/11/5 865/11/5 877/11/5
f 879/11/5 867/11/5 866/11/5
f 879/15/5 872/15/5 867/15/5
f 879/15/5 873/15/5 872/15/5
f 880/15/5 873/15/5 879/15/5
f 881/15/5 873/15/5 880/15/5
f 883/6/5 875/6/5 874/6/5
f 884/6/5 875/6/5 883/6/5
f 885/15/5 877/15/5 876/15/5
f 886/15/5 877/15/5 885/15/5
f 887/15/5 866/15/5 878/15/5
f 888/11/5 879/11/5 866/11/5
f 889/11/5 881/11/5 880/11/5
f 890/6/5 882/6/5 881/6/5
f 890/11/5 881/11/5 889/11/5
f 891/6/5 882/6/5 890/6/5
f 892/11/5 886/11/5 885/11/5
f 892/11/5 887/11/5 886/11/5
f 893/11/5 887/11/5 892/11/5
f 894/15/5 890/15/5 889/15/5
f 894/15/5 889/15/5 888/15/5
f 895/15/5 890/15/5 894/15/5
f 896/15/5 893/15/5 892/15/5
f 897/11/5 887/11/5 893/11/5
f 897/15/5 893/15/5 896/15/5
f 898/15/5 866/15/5 887/15/5
f 898/11/5 887/11/5 897/11/5
f 899/11/5 888/11/5 866/11/5
f 899/15/5 866/15/5 898/15/5
f 900/15/5 894/15/5 888/15/5
f 900/11/5 888/11/5 899/11/5
f 901/11/5 895/11/5 894/11/5
f 901/15/5 894/15/5 900/15/5
f 902/11/5 895/11/5 901/11/5
f 907/13/5 904/13/5 903/13/5
f 908/13/5 904/13/5 907/13/5
f 909/6/5 906/6/5 905/6/5
f 910/6/5 906/6/5 909/6/5
f 915/4/5 912/4/5 911/4/5
f 916/4/5 912/4/5 915/4/5
f 917/4/5 914/4/5 913/4/5
f 918/4/5 914/4/5 917/4/5
f 920/1/5 916/1/5 915/1/5
f 921/1/5 916/1/5 920/1/5
f 922/6/5 919/6/5 918/6/5
f 923/6/5 919/6/5 922/6/5
f 926/10/5 925/10/5 924/10/5
f 927/10/5 925/10/5 926/10/5
f 932/4/5 929/4/5 928/4/5
f 933/4/5 929/4/5 932/4/5
f 934/4/5 931/4/5 930/4/5
f 935/4/5 931/4/5 934/4/5
f 940/15/5 937/15/5 936/15/5
f 941/15/5 937/15/5 940/15/5
f 942/4/5 939/4/5 938/4/5
f 943/4/5 939/4/5 942/4/5
f 947/4/5 941/4/5 940/4/5
f 948/4/5 946/4/5 945/4/5
f 948/4/5 944/4/5 943/4/5
f 948/4/5 945/4/5 944/4/5
f 949/4/5 946/4/5 948/4/5
f 950/4/5 946/4/5 949/4/5
f 951/4/5 941/4/5 947/4/5
f 952/4/5 941/4/5 951/4/5
f 953/4/5 950/4/5 949/4/5
f 954/4/5 950/4/5 953/4/5
f 959/4/5 956/4/5 955/4/5
f 960/4/5 956/4/5 959/4/5
f 961/4/5 958/4/5 957/4/5
f 962/4/5 958/4/5 961/4/5
f 965/4/5 964/4/5 963/4/5
f 966/4/5 964/4/5 965/4/5
f 970/4/5 967/4/5 966/4/5
f 971/4/5 967/4/5 970/4/5
f 972/4/5 969/4/5 968/4/5
f 973/4/5 969/4/5 972/4/5
f 978/2/5 975/2/5 974/2/5
f 979/2/5 975/2/5 978/2/5
f 980/4/5 977/4/5 976/4/5
f 981/4/5 977/4/5 980/4/5
f 986/16/5 983/16/5 982/16/5
f 987/16/5 983/16/5 986/16/5
f 988/4/5 985/4/5 984/4/5
f 989/4/5 985/4/5 988/4/5
f 992/16/5 991/16/5 990/16/5
f 993/16/5 991/16/5 992/16/5
f 1001/9/5 995/9/5 994/9/5
f 1002/4/5 996/4/5 995/4/5
f 1002/9/5 995/9/5 1001/9/5
f 1003/4/5 996/4/5 1002/4/5
f 1004/4/5 998/4/5 997/4/5
f 1005/4/5 998/4/5 1004/4/5
f 1006/4/5 1000/4/5 999/4/5
f 1007/4/5 1000/4/5 1006/4/5
f 1008/16/5 1003/16/5 1002/16/5
f 1009/4/5 1004/4/5 1003/4/5
f 1009/16/5 1003/16/5 1008/16/5
f 1010/16/5 1005/16/5 1004/16/5
f 1010/4/5 1004/4/5 1009/4/5
f 1011/16/5 1005/16/5 1010/16/5
f 1012/4/5 1006/4/5 1005/4/5
f 1012/16/5 1005/16/5 1011/16/5
f 1013/4/5 1006/4/5 1012/4/5
f 1014/16/5 1011/16/5 1010/16/5
f 1014/16/5 1010/16/5 1009/16/5
f 1015/9/5 1012/9/5 1011/9/5
f 1015/16/5 1011/16/5 1014/16/5
f 1016/16/5 1013/16/5 1012/16/5
f 1016/9/5 1012/9/5 1015/9/5
f 1017/16/5 1013/16/5 1016/16/5
f 1023/9/5 1019/9/5 1018/9/5
f 1024/16/5 1020/16/5 1019/16/5
f 1024/9/5 1019/9/5 1023/9/5
f 1025/16/5 1020/16/5 1024/16/5
f 1026/9/5 1021/9/5 1020/9/5
f 1026/16/5 1020/16/5 1025/16/5
f 1027/16/5 1022/16/5 1021/16/5
f 1027/9/5 1021/9/5 1026/9/5
f 1028/16/5 1022/16/5 1027/16/5
f 1029/16/5 1022/16/5 1028/16/5
f 1033/16/5 1025/16/5 1024/16/5
f 1034/16/5 1025/16/5 1033/16/5
f 1035/16/5 1028/16/5 1027/16/5
f 1035/16/5 1027/16/5 1026/16/5
f 1036/16/5 1028/16/5 1035/16/5
f 1037/16/5 1030/16/5 1029/16/5
f 1038/16/5 1032/16/5 1031/16/5
f 1039/16/5 1032/16/5 1038/16/5
f 1040/16/5 1030/16/5 1037/16/5
f 1041/16/5 1030/16/5 1040/16/5
f 1046/9/5 1043/9/5 1042/9/5
f 1047/9/5 1043/9/5 1046/9/5
f 1049/16/5 1045/16/5 1044/16/5
f 1050/16/5 1045/16/5 1049/16/5
f 1051/16/5 1049/16/5 1048/16/5
f 1052/16/5 1049/16/5 1051/16/5
f 1056/14/5 1054/14/5 1053/14/5
f 1057/14/5 1054/14/5 1056/14/5
f 1062/14/5 1056/14/5 1055/14/5
f 1063/14/5 1056/14/5 1062/14/5
f 1064/14/5 1058/14/5 1057/14/5
f 1065/16/5 1059/16/5 1058/16/5
f 1065/14/5 1058/14/5 1064/14/5
f 1066/16/5 1059/16/5 1065/16/5
f 1067/16/5 1061/16/5 1060/16/5
f 1068/16/5 1061/16/5 1067/16/5
f 1069/14/5 1064/14/5 1063/14/5
f 1070/14/5 1064/14/5 1069/14/5
f 1078/14/5 1072/14/5 1071/14/5
f 1079/14/5 1072/14/5 1078/14/5
f 1080/14/5 1074/14/5 1073/14/5
f 1081/16/5 1075/16/5 1074/16/5
f 1081/14/5 1074/14/5 1080/14/5
f 1082/16/5 1075/16/5 1081/16/5
f 1083/16/5 1077/16/5 1076/16/5
f 1084/16/5 1077/16/5 1083/16/5
f 1092/14/5 1086/14/5 1085/14/5
f 1093/14/5 1086/14/5 1092/14/5
f 1094/14/5 1088/14/5 1087/14/5
f 1095/16/5 1089/16/5 1088/16/5
f 1095/14/5 1088/14/5 1094/14/5
f 1096/16/5 1089/16/5 1095/16/5
f 1097/16/5 1091/16/5 1090/16/5
f 1098/16/5 1091/16/5 1097/16/5
f 1099/15/6 1100/15/6 1106/15/6
f 1100/11/6 1101/11/6 1107/11/6
f 1106/15/6 1100/15/6 1107/15/6
f 1101/15/6 1102/15/6 1108/15/6
f 1107/11/6 1101/11/6 1108/11/6
f 1102/11/6 1103/11/6 1109/11/6
f 1108/15/6 1102/15/6 1109/15/6
f 1103/15/6 1104/15/6 1110/15/6
f 1109/11/6 1103/11/6 1110/11/6
f 1104/11/6 1105/11/6 1111/11/6
f 1110/15/6 1104/15/6 1111/15/6
f 1111/11/6 1105/11/6 1112/11/6
f 1106/11/6 1107/11/6 1115/11/6
f 1115/11/6 1107/11/6 1116/11/6
f 1111/15/6 1112/15/6 1117/15/6
f 1117/15/6 1112/15/6 1118/15/6
f 1113/6/6 1114/6/6 1120/6/6
f 1120/6/6 1114/6/6 1121/6/6
f 1115/15/6 1116/15/6 1122/15/6
f 1122/15/6 1116/15/6 1123/15/6
f 1117/11/6 1118/11/6 1124/11/6
f 1118/6/6 1119/6/6 1125/6/6
f 1124/11/6 1118/11/6 1125/11/6
f 1125/6/6 1119/6/6 1126/6/6
f 1122/11/6 1123/11/6 1127/11/6
f 1127/11/6 1123/11/6 1128/11/6
f 1124/15/6 1125/15/6 1132/15/6
f 1132/15/6 1125/15/6 1133/15/6
f 1127/15/6 1128/15/6 1134/15/6
f 1128/11/6 1129/11/6 1135/11/6
f 1134/15/6 1128/15/6 1135/15/6
f 1129/15/6 1130/15/6 1136/15/6
f 1135/11/6 1129/11/6 1136/11/6
f 1130/11/6 1131/11/6 1137/11/6
f 1136/15/6 1130/15/6 1137/15/6
f 1131/15/6 1132/15/6 1138/15/6
f 1137/11/6 1131/11/6 1138/11/6
f 1132/11/6 1133/11/6 1139/11/6
f 1138/15/6 1132/15/6 1139/15/6
f 1139/11/6 1133/11/6 1140/11/6
f 1141/13/6 1142/13/6 1145/13/6
f 1145/13/6 1142/13/6 1146/13/6
f 1143/6/6 1144/6/6 1147/6/6
f 1147/6/6 1144/6/6 1148/6/6
f 1149/6/6 1150/6/6 1151/6/6
f 1151/6/6 1150/6/6 1152/6/6
f 1153/4/6 1154/4/6 1158/4/6
f 1158/4/6 1154/4/6 1159/4/6
f 1155/4/6 1156/4/6 1160/4/6
f 1160/4/6 1156/4/6 1161/4/6
f 1157/4/6 1158/4/6 1163/4/6
f 1163/4/6 1158/4/6 1164/4/6
f 1161/4/6 1162/4/6 1165/4/6
f 1165/4/6 1162/4/6 1166/4/6
f 1167/4/6 1168/4/6 1169/4/6
f 1169/4/6 1168/4/6 1170/4/6
f 1171/4/6 1172/4/6 1177/4/6
f 1177/4/6 1172/4/6 1178/4/6
f 1173/4/6 1174/4/6 1179/4/6
f 1179/4/6 1174/4/6 1180/4/6
f 1175/4/6 1176/4/6 1181/4/6
f 1181/4/6 1176/4/6 1182/4/6
f 1178/4/6 1179/4/6 1183/4/6
f 1183/4/6 1179/4/6 1184/4/6
f 1180/4/6 1181/4/6 1185/4/6
f 1185/4/6 1181/4/6 1186/4/6
f 1187/16/6 1188/16/6 1189/16/6
f 1189/16/6 1188/16/6 1190/16/6
f 1191/16/6 1192/16/6 1195/16/6
f 1195/16/6 1192/16/6 1196/16/6
f 1193/16/6 1194/16/6 1197/16/6
f 1197/16/6 1194/16/6 1198/16/6
f 1199/9/6 1200/9/6 1203/9/6
f 1203/9/6 1200/9/6 1204/9/6
f 1201/16/6 1202/16/6 1205/16/6
f 1205/16/6 1202/16/6 1206/16/6
f 1207/9/6 1208/9/6 1211/9/6
f 1209/16/6 1210/16/6 1212/16/6
f 1211/9/6 1208/9/6 1212/9/6
f 1208/16/6 1209/16/6 1212/16/6
f 1212/16/6 1210/16/6 1213/16/6
f 1214/16/6 1215/16/6 1217/16/6
f 1217/16/6 1215/16/6 1218/16/6
f 1218/16/6 1215/16/6 1219/16/6
f 1219/16/6 1215/16/6 1220/16/6
f 1216/16/6 1217/16/6 1222/16/6
f 1222/16/6 1217/16/6 1223/16/6
f 1220/9/6 1221/9/6 1224/9/6
f 1224/9/6 1221/9/6 1225/9/6
f 1226/16/6 1227/16/6 1230/16/6
f 1230/16/6 1227/16/6 1231/16/6
f 1228/16/6 1229/16/6 1237/16/6
f 1237/16/6 1229/16/6 1238/16/6
f 1231/16/6 1232/16/6 1239/16/6
f 1232/16/6 1233/16/6 1239/16/6
f 1233/16/6 1234/16/6 1239/16/6
f 1234/16/6 1235/16/6 1239/16/6
f 1235/9/6 1236/9/6 1240/9/6
f 1239/16/6 1235/16/6 1240/16/6
f 1236/16/6 1237/16/6 1241/16/6
f 1240/9/6 1236/9/6 1241/9/6
f 1241/16/6 1237/16/6 1242/16/6
f 1243/16/6 1244/16/6 1251/16/6
f 1251/16/6 1244/16/6 1252/16/6
f 1252/16/6 1244/16/6 1253/16/6
f 1244/9/6 1245/9/6 1254/9/6
f 1253/16/6 1244/16/6 1254/16/6
f 1245/16/6 1246/16/6 1255/16/6
f 1254/9/6 1245/9/6 1255/9/6
f 1255/16/6 1246/16/6 1256/16/6
f 1247/14/6 1248/14/6 1258/14/6
f 1258/14/6 1248/14/6 1259/14/6
f 1249/14/6 1250/14/6 1260/14/6
f 1251/16/6 1252/16/6 1261/16/6
f 1260/14/6 1250/14/6 1261/14/6
f 1250/16/6 1251/16/6 1261/16/6
f 1261/16/6 1252/16/6 1262/16/6
f 1262/16/6 1252/16/6 1263/16/6
f 1256/16/6 1257/16/6 1264/16/6
f 1255/16/6 1256/16/6 1264/16/6
f 1264/16/6 1257/16/6 1265/16/6
f 1261/9/6 1262/9/6 1269/9/6
f 1262/16/6 1263/16/6 1270/16/6
f 1269/9/6 1262/9/6 1270/9/6
f 1264/9/6 1265/9/6 1271/9/6
f 1255/16/6 1264/16/6 1271/16/6
f 1271/9/6 1265/9/6 1272/9/6
f 1266/14/6 1267/14/6 1273/14/6
f 1273/14/6 1267/14/6 1274/14/6
f 1268/14/6 1269/14/6 1275/14/6
f 1269/16/6 1270/16/6 1276/16/6
f 1275/14/6 1269/14/6 1276/14/6
f 1270/16/6 1263/16/6 1277/16/6
f 1276/16/6 1270/16/6 1277/16/6
f 1277/16/6 1263/16/6 1278/16/6
f 1255/16/6 1271/16/6 1282/16/6
f 1271/16/6 1272/16/6 1282/16/6
f 1282/16/6 1272/16/6 1283/16/6
f 1283/16/6 1272/16/6 1284/16/6
f 1277/9/6 1278/9/6 1285/9/6
f 1278/16/6 1279/16/6 1286/16/6
f 1285/9/6 1278/9/6 1286/9/6
f 1279/9/6 1280/9/6 1287/9/6
f 1286/16/6 1279/16/6 1287/16/6
f 1282/16/6 1283/16/6 1288/16/6
f 1287/9/6 1280/9/6 1288/9/6
f 1280/16/6 1281/16/6 1288/16/6
f 1281/16/6 1282/16/6 1288/16/6
f 1288/16/6 1283/16/6 1289/16/6
f 1290/14/6 1291/14/6 1296/14/6
f 1296/14/6 1291/14/6 1297/14/6
f 1292/9/6 1293/9/6 1299/9/6
f 1293/16/6 1294/16/6 1300/16/6
f 1299/9/6 1293/9/6 1300/9/6
f 1300/16/6 1294/16/6 1301/16/6
f 1297/14/6 1298/14/6 1302/14/6
f 1295/14/6 1296/14/6 1302/14/6
f 1296/14/6 1297/14/6 1302/14/6
f 1302/14/6 1298/14/6 1303/14/6
f 1303/14/6 1298/14/6 1304/14/6
f 1304/14/6 1298/14/6 1305/14/6
f 1299/16/6 1300/16/6 1306/16/6
f 1301/16/6 1294/16/6 1308/16/6
f 1303/14/6 1304/14/6 1309/14/6
f 1309/14/6 1304/14/6 1310/14/6
f 1306/16/6 1307/16/6 1311/16/6
f 1299/16/6 1306/16/6 1311/16/6
f 1307/9/6 1308/9/6 1312/9/6
f 1311/16/6 1307/16/6 1312/16/6
f 1308/16/6 1294/16/6 1313/16/6
f 1312/9/6 1308/9/6 1313/9/6
f 1313/16/6 1294/16/6 1314/16/6
f 1315/16/6 1316/16/6 1317/16/6
f 1317/16/6 1316/16/6 1318/16/6
